<svg width="211" height="211" viewBox="0 0 211 211" fill="none" xmlns="http://www.w3.org/2000/svg">
<path d="M50.9558 145.062C55.0784 145.062 57.1421 145.061 58.803 145.629C61.8877 146.685 64.3149 149.112 65.371 152.197C65.939 153.858 65.9377 155.922 65.9377 160.044V165.247C65.9377 169.37 65.939 171.434 65.371 173.094C64.3149 176.179 61.8877 178.606 58.803 179.662C57.1421 180.23 55.0784 180.229 50.9558 180.229H45.7529C41.6302 180.229 39.5665 180.23 37.9056 179.662C34.8209 178.606 32.3938 176.179 31.3376 173.094C30.7697 171.434 30.771 169.37 30.771 165.247V160.044C30.771 155.922 30.7697 153.858 31.3376 152.197C32.3938 149.112 34.8209 146.685 37.9056 145.629C39.5665 145.061 41.6302 145.062 45.7529 145.062H50.9558Z" fill="#3E5DE7"/>
<path d="M108.102 145.062C112.224 145.062 114.288 145.061 115.949 145.629C119.034 146.685 121.461 149.112 122.517 152.197C123.085 153.858 123.083 155.922 123.083 160.044V165.247C123.083 169.37 123.085 171.434 122.517 173.094C121.461 176.179 119.034 178.606 115.949 179.662C114.288 180.23 112.224 180.229 108.102 180.229H102.899C98.7761 180.229 96.7124 180.23 95.0515 179.662C91.9668 178.606 89.5396 176.179 88.4835 173.094C87.9155 171.434 87.9168 169.37 87.9168 165.247V160.044C87.9168 155.922 87.9155 153.858 88.4835 152.197C89.5396 149.112 91.9668 146.685 95.0515 145.629C96.7124 145.061 98.7761 145.062 102.899 145.062H108.102Z" fill="#3E5DE7"/>
<path d="M165.247 145.062C169.37 145.062 171.434 145.061 173.095 145.629C176.179 146.685 178.607 149.112 179.663 152.197C180.231 153.858 180.229 155.922 180.229 160.044V165.247C180.229 169.37 180.231 171.434 179.663 173.094C178.607 176.179 176.179 178.606 173.095 179.662C171.434 180.23 169.37 180.229 165.247 180.229H160.045C155.922 180.229 153.858 180.23 152.197 179.662C149.113 178.606 146.685 176.179 145.629 173.094C145.061 171.434 145.063 169.37 145.063 165.247V160.044C145.063 155.922 145.061 153.858 145.629 152.197C146.685 149.112 149.113 146.685 152.197 145.629C153.858 145.061 155.922 145.062 160.045 145.062H165.247Z" fill="#3E5DE7"/>
<path d="M50.9558 87.9166C55.0784 87.9166 57.1421 87.9153 58.803 88.4832C61.8877 89.5394 64.3149 91.9665 65.371 95.0512C65.939 96.7121 65.9377 98.7758 65.9377 102.898V108.101C65.9377 112.224 65.939 114.288 65.371 115.949C64.3149 119.033 61.8877 121.46 58.803 122.517C57.1421 123.085 55.0784 123.083 50.9558 123.083H45.7529C41.6302 123.083 39.5665 123.085 37.9056 122.517C34.8209 121.46 32.3938 119.033 31.3376 115.949C30.7697 114.288 30.771 112.224 30.771 108.101V102.898C30.771 98.7758 30.7697 96.7121 31.3376 95.0512C32.3938 91.9665 34.8209 89.5394 37.9056 88.4832C39.5665 87.9153 41.6302 87.9166 45.7529 87.9166H50.9558Z" fill="#3E5DE7"/>
<path d="M108.102 87.9166C112.224 87.9166 114.288 87.9153 115.949 88.4832C119.034 89.5394 121.461 91.9665 122.517 95.0512C123.085 96.7121 123.083 98.7758 123.083 102.898V108.101C123.083 112.224 123.085 114.288 122.517 115.949C121.461 119.033 119.034 121.46 115.949 122.517C114.288 123.085 112.224 123.083 108.102 123.083H102.899C98.7761 123.083 96.7124 123.085 95.0515 122.517C91.9668 121.46 89.5396 119.033 88.4835 115.949C87.9155 114.288 87.9168 112.224 87.9168 108.101V102.898C87.9168 98.7758 87.9155 96.7121 88.4835 95.0512C89.5396 91.9665 91.9668 89.5394 95.0515 88.4832C96.7124 87.9153 98.7761 87.9166 102.899 87.9166H108.102Z" fill="#3E5DE7"/>
<path d="M165.247 87.9166C169.37 87.9166 171.434 87.9153 173.095 88.4832C176.179 89.5394 178.607 91.9665 179.663 95.0512C180.231 96.7121 180.229 98.7758 180.229 102.898V108.101C180.229 112.224 180.231 114.288 179.663 115.949C178.607 119.033 176.179 121.46 173.095 122.517C171.434 123.085 169.37 123.083 165.247 123.083H160.045C155.922 123.083 153.858 123.085 152.197 122.517C149.113 121.46 146.685 119.033 145.629 115.949C145.061 114.288 145.063 112.224 145.063 108.101V102.898C145.063 98.7758 145.061 96.7121 145.629 95.0512C146.685 91.9665 149.113 89.5394 152.197 88.4832C153.858 87.9153 155.922 87.9166 160.045 87.9166H165.247Z" fill="#3E5DE7"/>
<path d="M50.9558 30.7708C55.0784 30.7708 57.1421 30.7694 58.803 31.3374C61.8877 32.3935 64.3149 34.8207 65.371 37.9054C65.939 39.5663 65.9377 41.63 65.9377 45.7526V50.9555C65.9377 55.0782 65.939 57.1419 65.371 58.8028C64.3149 61.8875 61.8877 64.3146 58.803 65.3708C57.1421 65.9387 55.0784 65.9374 50.9558 65.9374H45.7529C41.6302 65.9374 39.5665 65.9387 37.9056 65.3708C34.8209 64.3146 32.3938 61.8875 31.3376 58.8028C30.7697 57.1419 30.771 55.0782 30.771 50.9555V45.7526C30.771 41.63 30.7697 39.5663 31.3376 37.9054C32.3938 34.8207 34.8209 32.3935 37.9056 31.3374C39.5665 30.7694 41.6302 30.7708 45.7529 30.7708H50.9558Z" fill="#3E5DE7"/>
<path d="M108.102 30.7708C112.224 30.7708 114.288 30.7694 115.949 31.3374C119.034 32.3935 121.461 34.8207 122.517 37.9054C123.085 39.5663 123.083 41.63 123.083 45.7526V50.9555C123.083 55.0782 123.085 57.1419 122.517 58.8028C121.461 61.8875 119.034 64.3146 115.949 65.3708C114.288 65.9387 112.224 65.9374 108.102 65.9374H102.899C98.7761 65.9374 96.7124 65.9387 95.0515 65.3708C91.9668 64.3146 89.5396 61.8875 88.4835 58.8028C87.9155 57.1419 87.9168 55.0782 87.9168 50.9555V45.7526C87.9168 41.63 87.9155 39.5663 88.4835 37.9054C89.5396 34.8207 91.9668 32.3935 95.0515 31.3374C96.7124 30.7694 98.7761 30.7708 102.899 30.7708H108.102Z" fill="#3E5DE7"/>
<path d="M165.247 30.7708C169.37 30.7708 171.434 30.7694 173.095 31.3374C176.179 32.3935 178.607 34.8207 179.663 37.9054C180.231 39.5663 180.229 41.63 180.229 45.7526V50.9555C180.229 55.0782 180.231 57.1419 179.663 58.8028C178.607 61.8875 176.179 64.3146 173.095 65.3708C171.434 65.9387 169.37 65.9374 165.247 65.9374H160.045C155.922 65.9374 153.858 65.9387 152.197 65.3708C149.113 64.3146 146.685 61.8875 145.629 58.8028C145.061 57.1419 145.063 55.0782 145.063 50.9555V45.7526C145.063 41.63 145.061 39.5663 145.629 37.9054C146.685 34.8207 149.113 32.3935 152.197 31.3374C153.858 30.7694 155.922 30.7708 160.045 30.7708H165.247Z" fill="#3E5DE7"/>
</svg>
