<svg width="176" height="158" viewBox="0 20 176 90" fill="none" xmlns="http://www.w3.org/2000/svg">
<path d="M55.3294 1.76765C55.004 1.44225 55.004 0.914678 55.3294 0.589279C55.6548 0.26388 56.1824 0.26388 56.5078 0.589279L68.5722 12.6537C68.8976 12.9791 68.8976 13.5067 68.5722 13.8321C68.2468 14.1575 67.7193 14.1575 67.3939 13.8321L55.3294 1.76765Z" fill="#C9191E"/>
<path d="M67.3933 0.587134C67.7176 0.262868 68.2433 0.262869 68.5676 0.587134C68.8919 0.911399 68.8919 1.43714 68.5676 1.7614L56.4991 13.8299C56.1748 14.1542 55.6491 14.1542 55.3248 13.8299C55.0005 13.5057 55.0005 12.9799 55.3248 12.6557L67.3933 0.587134Z" fill="#C9191E"/>
<path d="M161.585 98.3663C161.26 98.0409 161.26 97.5133 161.585 97.1879C161.911 96.8625 162.438 96.8625 162.764 97.1879L174.828 109.252C175.153 109.578 175.153 110.105 174.828 110.431C174.503 110.756 173.975 110.756 173.65 110.431L161.585 98.3663Z" fill="#C9191E"/>
<path d="M173.651 97.1858C173.975 96.8615 174.501 96.8615 174.825 97.1858C175.15 97.51 175.15 98.0358 174.825 98.36L162.757 110.429C162.433 110.753 161.907 110.753 161.583 110.429C161.258 110.104 161.258 109.579 161.583 109.254L173.651 97.1858Z" fill="#C9191E"/>
<path d="M26.0257 19.5818H147.852C149.203 19.5818 150.499 20.12 151.455 21.0782C152.411 22.0363 152.948 23.3357 152.948 24.6907V137.341C152.948 138.56 152.464 139.73 151.604 140.593C150.744 141.455 149.577 141.94 148.36 141.94H26.0257C24.6742 141.94 23.378 141.402 22.4223 140.443C21.4666 139.485 20.9297 138.186 20.9297 136.831V24.6926C20.9297 23.3376 21.4666 22.0381 22.4223 21.08C23.378 20.1219 24.6742 19.5837 26.0257 19.5837V19.5818Z" fill="#CE0500"/>
<path d="M20.9297 35.6816H152.948V136.864C152.948 138.21 152.411 139.501 151.455 140.453C150.499 141.405 149.203 141.94 147.852 141.94H26.0275C24.676 141.94 23.3798 141.405 22.4241 140.453C21.4685 139.501 20.9316 138.21 20.9316 136.864V35.6816H20.9297Z" fill="#000091"/>
<path d="M33.0048 30.8514C34.3386 30.8514 35.4198 29.7702 35.4198 28.4364C35.4198 27.1027 34.3386 26.0215 33.0048 26.0215C31.6711 26.0215 30.5898 27.1027 30.5898 28.4364C30.5898 29.7702 31.6711 30.8514 33.0048 30.8514Z" fill="white"/>
<path d="M41.0536 30.8514C42.3874 30.8514 43.4686 29.7702 43.4686 28.4364C43.4686 27.1027 42.3874 26.0215 41.0536 26.0215C39.7199 26.0215 38.6387 27.1027 38.6387 28.4364C38.6387 29.7702 39.7199 30.8514 41.0536 30.8514Z" fill="white"/>
<path d="M49.1044 30.8517C50.4382 30.8517 51.5194 29.7704 51.5194 28.4367C51.5194 27.1029 50.4382 26.0217 49.1044 26.0217C47.7707 26.0217 46.6895 27.1029 46.6895 28.4367C46.6895 29.7704 47.7707 30.8517 49.1044 30.8517Z" fill="white"/>
<path d="M143.172 29.2405H82.2232C81.9994 29.2478 81.7764 29.2116 81.5675 29.134C81.3585 29.0564 81.1679 28.9391 81.0069 28.789C80.846 28.6388 80.718 28.459 80.6305 28.2601C80.5431 28.0613 80.498 27.8475 80.498 27.6315C80.498 27.4155 80.5431 27.2017 80.6305 27.0028C80.718 26.8039 80.846 26.6241 81.0069 26.474C81.1679 26.3238 81.3585 26.2065 81.5675 26.1289C81.7764 26.0513 81.9994 26.0151 82.2232 26.0224H143.172C143.396 26.0151 143.619 26.0513 143.828 26.1289C144.037 26.2065 144.227 26.3238 144.388 26.474C144.549 26.6241 144.677 26.8039 144.765 27.0028C144.852 27.2017 144.897 27.4155 144.897 27.6315C144.897 27.8475 144.852 28.0613 144.765 28.2601C144.677 28.459 144.549 28.6388 144.388 28.789C144.227 28.9391 144.037 29.0564 143.828 29.134C143.619 29.2116 143.396 29.2478 143.172 29.2405Z" fill="white"/>
<path d="M25.9141 119.827L29.9529 123.866L11.8198 141.999L7.78095 137.96L25.9141 119.827Z" fill="#009081"/>
<path d="M0 130.183L4.03887 126.144L15.8562 137.961L11.8173 142L0 130.183Z" fill="#009081"/>
<g clip-path="url(#clip0_1455_32071)">
<path fill-rule="evenodd" clip-rule="evenodd" d="M123.761 48.1123C126.518 47.4589 129.422 48.411 131.157 50.5242L131.435 50.887L132.197 51.9476L132.613 51.9853C135.248 52.2973 137.497 53.9785 138.437 56.4016L138.465 56.49C139.24 56.8204 139.931 57.2655 140.528 57.8154L140.616 57.903L140.743 57.9406C140.897 57.9909 141.049 58.0463 141.199 58.1065L141.64 58.3016L143.587 59.2256C144.201 59.5221 144.762 59.895 145.257 60.3332L145.4 60.4704L145.562 60.4342C147.495 59.9729 149.57 60.3381 151.24 61.4131L151.648 61.6965C152.888 62.6255 153.76 63.8957 154.165 65.3187L154.287 65.8265L155.988 66.9657C156.239 67.1339 156.454 67.3477 156.622 67.5947L156.774 67.8523L159.138 72.5159C159.722 73.6678 159.249 75.0684 158.081 75.6444C156.997 76.1792 155.695 75.8148 155.047 74.8378L154.91 74.6016L152.822 70.4808L150.73 69.0814C150.163 68.7017 149.794 68.1009 149.711 67.439L149.674 66.8653C149.597 66.2999 149.29 65.786 148.792 65.4128C148.278 65.0291 147.611 64.8509 146.969 64.918L146.651 64.9722L145.061 65.3357C144.175 65.5385 143.259 65.2202 142.695 64.537L142.521 64.2959C142.336 64.0028 142.079 63.7495 141.767 63.5553L141.523 63.4211L139.575 62.4968C139.436 62.4294 139.294 62.3758 139.15 62.3354L138.93 62.2848C138.47 62.2003 138.047 61.9833 137.715 61.664L137.526 61.4605C137.248 61.122 136.871 60.8625 136.441 60.7123L136.109 60.6207C135.367 60.4677 134.751 59.9747 134.441 59.3038L134.34 59.0442L134.073 58.2131C133.796 57.3398 133.003 56.7183 132.022 56.6125L131.722 56.5965H130.964C130.294 56.5965 129.659 56.3158 129.214 55.8323L129.036 55.6129L127.575 53.5786C127.068 52.869 126.129 52.4805 125.199 52.5871L124.889 52.6411L117.126 54.5644C116.503 54.7193 115.989 55.081 115.666 55.5733L115.521 55.83L113.822 59.3721C113.708 59.6145 113.641 59.8778 113.623 60.1413L113.623 60.404L113.935 65.0385C113.977 65.6573 113.767 66.2624 113.36 66.7239L113.14 66.9422L110.948 68.8488C110.788 68.9875 110.611 69.104 110.421 69.1955L110.126 69.3136L101.949 71.9807C101.127 72.2462 100.54 72.8794 100.368 73.6303L100.322 73.9169L100.277 74.4361C100.165 75.7209 99.0245 76.6533 97.7544 76.5619L97.4806 76.5264L93.1748 75.7183C92.7911 75.6463 92.4331 75.4819 92.1315 75.2417L91.9165 75.0475L88.6037 71.6635C88.1726 71.2254 87.5517 70.9492 86.9524 70.9181L86.6555 70.9234L82.8003 71.1098C82.0417 71.1502 81.3702 71.4956 80.9419 72.0532C80.5902 72.5071 80.4384 73.054 80.5027 73.5963L80.5529 73.8667L81.7803 78.6257L83.4144 82.3483C84.1256 83.9695 82.827 85.715 81.1017 85.6027L80.8399 85.5717L79.555 85.3509C79.1869 85.2843 78.8051 85.2985 78.4404 85.3907L78.1706 85.4745L77.8034 85.6118C77.0377 85.8981 76.1842 85.7712 75.5419 85.2927L75.3115 85.097L73.5637 83.4074C73.1367 82.994 72.5366 82.7461 71.8872 82.7127L71.559 82.7141L62.1079 83.5223C61.9175 83.5373 61.7327 83.5729 61.5456 83.6314L61.2624 83.7364L54.4125 86.7761C53.3714 87.2389 52.8509 88.2665 53.0828 89.2609L53.1566 89.5085L54.2007 92.3654C54.3297 92.7169 54.5642 93.0442 54.8826 93.3112L55.1368 93.4995C55.8646 93.9748 56.261 94.8015 56.1869 95.6445L56.1446 95.9257C56.0313 96.4551 56.1256 97.0087 56.4429 97.5204L56.6206 97.8178L56.9451 98.3146C56.9955 98.387 57.044 98.4543 57.0905 98.5169L57.3441 98.836L57.5432 99.0503L57.682 99.1708C57.7176 99.1966 57.7422 99.2085 57.7548 99.2085C59.0602 99.2085 60.1184 100.253 60.1184 101.54C60.1184 102.828 59.0602 103.872 57.7548 103.872C55.5607 103.872 53.8251 102.395 52.378 99.8997C51.827 99.0151 51.4979 98.0229 51.401 97.0056L51.3709 96.4524L51.3522 96.4349C50.7626 95.8447 50.2838 95.1596 49.9428 94.4085L49.7549 93.9502L48.7091 91.0885C47.5254 87.8415 48.9883 84.3107 52.0774 82.7131L52.4719 82.5236L59.3518 79.4707C59.9795 79.202 60.6044 79.0221 61.2383 78.9287L61.7155 78.8748L71.21 78.0636C73.1872 77.9438 75.0847 78.5462 76.5234 79.7612L76.8733 80.0776L77.5543 80.7384L77.3695 80.3103L77.2483 79.9598L75.9699 75.0093C75.4575 72.993 75.9031 70.877 77.1804 69.2286C78.3526 67.7026 80.1137 66.7258 82.0654 66.4945L82.557 66.4524L86.3159 66.2731C88.1932 66.0968 90.1809 66.7873 91.6449 68.083L91.9997 68.4194L94.7941 71.2736L96.1058 71.5208L96.18 71.3419C96.915 69.7127 98.287 68.3983 100.028 67.7097L100.471 67.5508L108.181 65.036L109.138 64.2012L108.905 60.7024C108.845 59.7323 108.995 58.7612 109.348 57.8465L109.541 57.3941L111.249 53.8334C112.089 52.0861 113.626 50.7755 115.499 50.1764L115.974 50.0416L123.761 48.1123Z" fill="white"/>
<path fill-rule="evenodd" clip-rule="evenodd" d="M75.226 118.344C76.2622 117.56 77.7458 117.754 78.5396 118.777L78.3133 118.475L78.7714 118.661L79.7121 118.997L82.2396 119.828L82.6491 119.979C82.7074 120.002 82.7617 120.025 82.8133 120.047L85.1699 121.193C85.764 121.483 86.2034 122.003 86.3888 122.622L86.4524 122.893C86.4787 123.046 86.5227 123.196 86.5839 123.341L86.6885 123.555C87.1679 124.413 87.0488 125.464 86.4172 126.194L86.2125 126.403C85.708 126.858 85.4339 127.469 85.4431 128.091C85.447 128.358 85.5052 128.626 85.6135 128.879L85.7382 129.126C86.0025 129.576 86.1052 130.097 86.0354 130.607L85.9372 131.062L85.9123 131.221L84.4785 143.123C84.4459 143.387 84.4622 143.646 84.5259 143.894L84.6053 144.139C84.8061 144.647 84.82 145.208 84.6447 145.725L84.5977 145.879L84.5644 146.025L82.8316 155.031C82.7742 155.329 82.6583 155.613 82.4914 155.866L82.3079 156.109L79.1856 159.721C78.745 160.232 78.5712 160.886 78.6975 161.522C78.8112 162.074 79.1435 162.566 79.635 162.906L79.8938 163.063L81.9002 164.115C82.2078 164.276 82.4745 164.502 82.6823 164.775L82.8267 164.989L83.7855 166.591C83.9886 166.931 84.2936 167.225 84.6552 167.43L84.9363 167.566L89.6285 169.485C89.8252 169.565 90.0095 169.671 90.1767 169.8L90.414 170.009L91.8198 171.428C92.2118 171.825 92.7564 172.082 93.3373 172.148L93.6303 172.164H95.711C96.0182 172.164 96.3214 172.224 96.604 172.337L96.8792 172.469L98.2754 173.252C98.4726 173.364 98.6784 173.448 98.8949 173.505L99.2281 173.569L107.439 174.622C108.161 174.721 108.889 174.514 109.428 174.063L109.574 173.93L109.703 173.793C110.201 173.214 110.949 172.915 111.704 172.978L111.987 173.019L112.782 173.183L113.167 173.296L115.066 174.035C115.634 174.256 116.09 174.683 116.343 175.223L116.453 175.502C116.615 176.009 116.974 176.457 117.456 176.751L117.707 176.884L120.004 177.945C120.389 178.119 120.836 178.197 121.272 178.17L121.596 178.13L123.563 177.748C123.751 177.711 123.943 177.697 124.134 177.707L124.42 177.737L128.532 178.445L129.044 178.49C129.196 178.49 129.347 178.477 129.489 178.453L129.694 178.41L134.856 177.105C135.494 176.939 136.038 176.538 136.343 176.023C136.595 175.603 136.691 175.106 136.622 174.631L136.561 174.35L135.306 170.155C135.164 169.678 135.18 169.17 135.349 168.706L135.469 168.434L136.759 165.946C137.354 164.8 138.778 164.346 139.94 164.933C141.019 165.477 141.493 166.728 141.079 167.821L140.967 168.071L140.106 169.727L141.097 173.038C141.584 174.688 141.414 176.462 140.643 177.979L140.418 178.386C139.56 179.837 138.156 180.94 136.502 181.484L136.045 181.618L130.896 182.92C130.434 183.043 129.932 183.118 129.334 183.14L128.868 183.147L127.955 183.069L124.05 182.405L122.494 182.708C121.156 182.959 119.763 182.843 118.49 182.371L118.018 182.177L115.704 181.109C114.355 180.487 113.247 179.47 112.529 178.224L112.419 178.019L112.121 177.902C110.723 178.925 108.999 179.416 107.277 179.293L106.808 179.244L98.6225 178.194C97.8559 178.097 97.1187 177.883 96.4324 177.561L95.9276 177.3L95.0871 176.827L93.6303 176.828C91.8379 176.828 90.1027 176.176 88.7858 175.015L88.4372 174.686L87.3725 173.609L83.1261 171.875C81.857 171.355 80.7604 170.483 79.9876 169.382L79.7133 168.959L79.093 167.924L77.6672 167.177C75.9416 166.263 74.686 164.727 74.1741 162.897L74.0618 162.434C73.6863 160.545 74.1323 158.614 75.2841 157.074L75.5867 156.697L78.3012 153.553L79.9187 145.163L79.9462 145.04L79.915 144.924C79.7685 144.308 79.7108 143.675 79.7436 143.041L79.7852 142.566L81.2249 130.613L81.2076 130.571C80.959 129.957 80.8015 129.311 80.7423 128.653L80.7165 128.158C80.6986 126.946 81.0117 125.766 81.603 124.724L81.6338 124.669L80.8667 124.296L78.1705 123.406L77.0139 122.996C75.8218 122.553 75.2756 122.242 74.7869 121.613C73.9931 120.59 74.1897 119.127 75.226 118.344Z" fill="white"/>
<path opacity="0.3" d="M117.53 103.536C117.53 111.018 111.403 117.084 103.845 117.084C96.287 117.084 90.1602 111.018 90.1602 103.536C90.1602 96.0536 96.287 89.988 103.845 89.988C111.403 89.988 117.53 96.0536 117.53 103.536Z" fill="#C9191E"/>
<path d="M110.454 103.534C110.454 107.146 107.497 110.074 103.849 110.074C100.201 110.074 97.2432 107.146 97.2432 103.534C97.2432 99.9225 100.201 96.9946 103.849 96.9946C107.497 96.9946 110.454 99.9225 110.454 103.534Z" fill="#C9191E"/>
</g>
<defs>
<clipPath id="clip0_1455_32071">
<rect width="120.748" height="96.5985" fill="white" transform="translate(24.1504 38.249)"/>
</clipPath>
</defs>
</svg>
