<svg width="32" height="32" viewBox="0 0 32 32" fill="none" xmlns="http://www.w3.org/2000/svg">
<path d="M24.2854 21.9524C23.6427 21.9524 23.3213 21.9524 23.0627 22.0399C22.5817 22.2053 22.2033 22.5837 22.0397 23.0628C21.9504 23.3214 21.9523 23.6428 21.9523 24.2855V25.0955C21.9523 25.7382 21.9504 26.0595 22.0397 26.3181C22.2033 26.7973 22.5817 27.1757 23.0627 27.3411C23.3213 27.4286 23.6427 27.4286 24.2854 27.4286H25.0954C25.7362 27.4286 26.0575 27.4286 26.3161 27.3411C26.7972 27.1757 27.1756 26.7973 27.3391 26.3181C27.4285 26.0595 27.4285 25.7382 27.4285 25.0955V24.2855C27.4285 23.6428 27.4285 23.3214 27.3391 23.0628C27.1756 22.5837 26.7972 22.2053 26.3161 22.0399C26.0575 21.9524 25.7362 21.9524 25.0954 21.9524H24.2854Z" fill="#2845C1"/>
<path d="M15.8093 21.9524C15.1666 21.9524 14.8453 21.9524 14.5867 22.0399C14.1056 22.2053 13.7272 22.5837 13.5637 23.0628C13.4743 23.3214 13.4762 23.6428 13.4762 24.2855V25.0955C13.4762 25.7382 13.4743 26.0595 13.5637 26.3181C13.7272 26.7973 14.1056 27.1757 14.5867 27.3411C14.8453 27.4286 15.1666 27.4286 15.8093 27.4286H16.6193C17.2601 27.4286 17.5814 27.4286 17.84 27.3411C18.3211 27.1757 18.6995 26.7973 18.863 26.3181C18.9524 26.0595 18.9524 25.7382 18.9524 25.0955V24.2855C18.9524 23.6428 18.9524 23.3214 18.863 23.0628C18.6995 22.5837 18.3211 22.2053 17.84 22.0399C17.5814 21.9524 17.2601 21.9524 16.6193 21.9524H15.8093Z" fill="#2845C1"/>
<path d="M7.33297 21.9524C6.69028 21.9524 6.36893 21.9524 6.11034 22.0399C5.62927 22.2053 5.25278 22.5837 5.08735 23.0628C4.99799 23.3214 4.99989 23.6428 4.99989 24.2855V25.0955C4.99989 25.7382 4.99799 26.0595 5.08735 26.3181C5.25278 26.7973 5.62927 27.1757 6.11034 27.3411C6.36893 27.4286 6.69028 27.4286 7.33297 27.4286H8.14299C8.78378 27.4286 9.10513 27.4286 9.36372 27.3411C9.84479 27.1757 10.2232 26.7973 10.3867 26.3181C10.4761 26.0595 10.4761 25.7382 10.4761 25.0955V24.2855C10.4761 23.6428 10.4761 23.3214 10.3867 23.0628C10.2232 22.5837 9.84479 22.2053 9.36372 22.0399C9.10513 21.9524 8.78378 21.9524 8.14299 21.9524H7.33297Z" fill="#2845C1"/>
<path d="M24.2856 13.4762C23.6429 13.4762 23.3216 13.4762 23.063 13.5637C22.5819 13.7291 22.2035 14.1075 22.04 14.5866C21.9506 14.8452 21.9525 15.1666 21.9525 15.8093V16.6193C21.9525 17.262 21.9506 17.5833 22.04 17.8419C22.2035 18.3211 22.5819 18.6995 23.063 18.8649C23.3216 18.9524 23.6429 18.9524 24.2856 18.9524H25.0956C25.7364 18.9524 26.0578 18.9524 26.3164 18.8649C26.7974 18.6995 27.1758 18.3211 27.3393 17.8419C27.4287 17.5833 27.4287 17.262 27.4287 16.6193V15.8093C27.4287 15.1666 27.4287 14.8452 27.3393 14.5866C27.1758 14.1075 26.7974 13.7291 26.3164 13.5637C26.0578 13.4762 25.7364 13.4762 25.0956 13.4762H24.2856Z" fill="#2845C1"/>
<path d="M15.8093 13.4762C15.1666 13.4762 14.8453 13.4762 14.5867 13.5637C14.1056 13.7291 13.7272 14.1075 13.5637 14.5866C13.4743 14.8452 13.4762 15.1666 13.4762 15.8093V16.6193C13.4762 17.262 13.4743 17.5833 13.5637 17.8419C13.7272 18.3211 14.1056 18.6995 14.5867 18.8649C14.8453 18.9524 15.1666 18.9524 15.8093 18.9524H16.6193C17.2601 18.9524 17.5814 18.9524 17.84 18.8649C18.3211 18.6995 18.6995 18.3211 18.863 17.8419C18.9524 17.5833 18.9524 17.262 18.9524 16.6193V15.8093C18.9524 15.1666 18.9524 14.8452 18.863 14.5866C18.6995 14.1075 18.3211 13.7291 17.84 13.5637C17.5814 13.4762 17.2601 13.4762 16.6193 13.4762H15.8093Z" fill="#2845C1"/>
<path d="M7.33322 13.4762C6.69052 13.4762 6.36918 13.4762 6.11058 13.5637C5.62951 13.7291 5.25302 14.1075 5.0876 14.5866C4.99823 14.8452 5.00013 15.1666 5.00013 15.8093V16.6193C5.00013 17.262 4.99823 17.5833 5.0876 17.8419C5.25302 18.3211 5.62951 18.6995 6.11058 18.8649C6.36918 18.9524 6.69052 18.9524 7.33322 18.9524H8.14323C8.78402 18.9524 9.10537 18.9524 9.36397 18.8649C9.84504 18.6995 10.2234 18.3211 10.387 17.8419C10.4763 17.5833 10.4763 17.262 10.4763 16.6193V15.8093C10.4763 15.1666 10.4763 14.8452 10.387 14.5866C10.2234 14.1075 9.84504 13.7291 9.36397 13.5637C9.10537 13.4762 8.78402 13.4762 8.14323 13.4762H7.33322Z" fill="#2845C1"/>
<path d="M24.2854 5C23.6427 5 23.3213 5 23.0627 5.08747C22.5817 5.25289 22.2033 5.63128 22.0397 6.11045C21.9504 6.36905 21.9523 6.69039 21.9523 7.33309V8.14311C21.9523 8.7858 21.9504 9.10714 22.0397 9.36574C22.2033 9.84491 22.5817 10.2233 23.0627 10.3887C23.3213 10.4762 23.6427 10.4762 24.2854 10.4762H25.0954C25.7362 10.4762 26.0575 10.4762 26.3161 10.3887C26.7972 10.2233 27.1756 9.84491 27.3391 9.36574C27.4285 9.10714 27.4285 8.7858 27.4285 8.14311V7.33309C27.4285 6.69039 27.4285 6.36905 27.3391 6.11045C27.1756 5.63128 26.7972 5.25289 26.3161 5.08747C26.0575 5 25.7362 5 25.0954 5H24.2854Z" fill="#FBC63A"/>
<path d="M15.809 5C15.1664 5 14.845 5 14.5864 5.08747C14.1053 5.25289 13.727 5.63128 13.5634 6.11045C13.4741 6.36905 13.476 6.69039 13.476 7.33309V8.14311C13.476 8.7858 13.4741 9.10714 13.5634 9.36574C13.727 9.84491 14.1053 10.2233 14.5864 10.3887C14.845 10.4762 15.1664 10.4762 15.809 10.4762H16.6191C17.2599 10.4762 17.5812 10.4762 17.8398 10.3887C18.3209 10.2233 18.6993 9.84491 18.8628 9.36574C18.9521 9.10714 18.9521 8.7858 18.9521 8.14311V7.33309C18.9521 6.69039 18.9521 6.36905 18.8628 6.11045C18.6993 5.63128 18.3209 5.25289 17.8398 5.08747C17.5812 5 17.2599 5 16.6191 5H15.809Z" fill="#2845C1"/>
<path d="M7.33297 5C6.69028 5 6.36893 5 6.11034 5.08747C5.62927 5.25289 5.25088 5.63128 5.08735 6.11045C4.99799 6.36905 4.99989 6.69039 4.99989 7.33309V8.14311C4.99989 8.7858 4.99799 9.10714 5.08735 9.36574C5.25088 9.84491 5.62927 10.2233 6.11034 10.3887C6.36893 10.4762 6.69028 10.4762 7.33297 10.4762H8.14299C8.78378 10.4762 9.10513 10.4762 9.36372 10.3887C9.84479 10.2233 10.2232 9.84491 10.3867 9.36574C10.4761 9.10714 10.4761 8.7858 10.4761 8.14311V7.33309C10.4761 6.69039 10.4761 6.36905 10.3867 6.11045C10.2232 5.63128 9.84479 5.25289 9.36372 5.08747C9.10513 5 8.78378 5 8.14299 5H7.33297Z" fill="#2845C1"/>
</svg>
