<svg width="81" height="81" viewBox="-10 -10 106 106" fill="none" xmlns="http://www.w3.org/2000/svg">
<path fill-rule="evenodd" clip-rule="evenodd" d="M40.9015 28.1372L51.3304 34.1578V46.1989L40.9015 52.2196L30.4727 46.1989V34.1578L40.9015 28.1372Z" fill="#000091"/>
<path fill-rule="evenodd" clip-rule="evenodd" d="M52.6398 7L63.0687 13.0206V25.0617L52.6398 31.0824L42.2109 25.0617V13.0206L52.6398 7Z" fill="#000091"/>
<path fill-rule="evenodd" clip-rule="evenodd" d="M52.6398 48.918L63.0687 54.9386V66.9797L52.6398 73.0003L42.2109 66.9797V54.9386L52.6398 48.918Z" fill="#000091"/>
<path fill-rule="evenodd" clip-rule="evenodd" d="M17.4269 28.1372L27.8558 34.1578V46.1989L17.4269 52.2196L6.99805 46.1989V34.1578L17.4269 28.1372Z" fill="#000091"/>
<path fill-rule="evenodd" clip-rule="evenodd" d="M29.1613 7L39.5902 13.0206V25.0617L29.1613 31.0824L18.7324 25.0617V13.0206L29.1613 7Z" fill="#000091"/>
<path fill-rule="evenodd" clip-rule="evenodd" d="M29.1613 48.918L39.5902 54.9386V66.9797L29.1613 73.0003L18.7324 66.9797V54.9386L29.1613 48.918Z" fill="#000091"/>
<path fill-rule="evenodd" clip-rule="evenodd" d="M64.798 28.1372L75.2269 34.1578V46.1989L64.798 52.2196L54.3691 46.1989V34.1578L64.798 28.1372Z" fill="#000091"/>
</svg>
