<svg width="608" height="131" viewBox="0 0 608 131" fill="none" xmlns="http://www.w3.org/2000/svg">
<path d="M23.8051 28.2604C21.1068 28.8513 19.0084 30.9737 18.4481 33.6784L16.2012 44.5249C15.6242 47.3104 13.1706 49.3079 10.326 49.3079L4 49.3079C1.73461 49.3079 -0.0786818 47.4283 0.00257528 45.1644L0.53673 30.2821C0.53673 20.9313 8.6141 11.3985 17.6791 10.7942L35.4732 10.004C37.7497 9.90288 39.6506 11.7213 39.6506 14L39.6506 19.9621C39.6506 22.7812 37.688 25.2201 34.9342 25.8232L23.8051 28.2604Z" fill="#018F83"/>
<path d="M46.0256 83.5V48.5H50.7256V83.5H46.0256ZM59.7959 83.5V58.3H64.0459V63.7V83.5H59.7959ZM64.0459 66.05L62.0959 63.8C62.8626 62.6 63.7126 61.5167 64.6459 60.55C65.6126 59.55 66.7292 58.7667 67.9959 58.2C69.2959 57.6 70.7792 57.3 72.4459 57.3C74.3459 57.3 76.0292 57.7167 77.4959 58.55C78.9959 59.35 80.1626 60.5667 80.9959 62.2C81.8626 63.8333 82.2959 65.85 82.2959 68.25V83.5H78.0459V68.4C78.0459 66.1333 77.4626 64.3833 76.2959 63.15C75.1292 61.9167 73.5626 61.3 71.5959 61.3C70.3626 61.3 69.2792 61.5167 68.3459 61.95C67.4126 62.3833 66.5959 62.9667 65.8959 63.7C65.1959 64.4 64.5792 65.1833 64.0459 66.05ZM86.5006 62.15V58.3H104.401V62.15H86.5006ZM91.3006 75.05V52H95.6006V75.05C95.6006 76.3833 95.8006 77.4167 96.2006 78.15C96.6339 78.85 97.2339 79.35 98.0006 79.65C98.7673 79.95 99.6506 80.1 100.651 80.1C101.484 80.1 102.201 80.05 102.801 79.95C103.401 79.8167 103.934 79.6667 104.401 79.5V83.3C103.801 83.5333 103.151 83.7 102.451 83.8C101.751 83.9333 100.951 84 100.051 84C98.1839 84 96.6006 83.6833 95.3006 83.05C94.0006 82.4167 93.0006 81.45 92.3006 80.15C91.6339 78.8167 91.3006 77.1167 91.3006 75.05ZM120.958 84.5C118.125 84.5 115.675 83.8833 113.608 82.65C111.575 81.3833 109.992 79.7167 108.858 77.65C107.758 75.5833 107.208 73.3333 107.208 70.9C107.208 69 107.492 67.2333 108.058 65.6C108.658 63.9333 109.508 62.4833 110.608 61.25C111.742 59.9833 113.092 59.0167 114.658 58.35C116.225 57.65 117.975 57.3 119.908 57.3C121.642 57.3 123.192 57.5833 124.558 58.15C125.958 58.6833 127.142 59.4667 128.108 60.5C129.108 61.5 129.875 62.6667 130.408 64C130.942 65.3 131.208 66.7333 131.208 68.3C131.208 68.7667 131.175 69.2333 131.108 69.7C131.075 70.1667 131.008 70.5833 130.908 70.95H110.308V67.7H127.658L126.958 67.95C126.958 66.6833 126.675 65.5167 126.108 64.45C125.542 63.35 124.725 62.4833 123.658 61.85C122.625 61.1833 121.342 60.85 119.808 60.85C118.175 60.85 116.725 61.25 115.458 62.05C114.225 62.8167 113.258 63.9333 112.558 65.4C111.892 66.8333 111.558 68.5833 111.558 70.65C111.558 72.7167 111.958 74.5 112.758 76C113.558 77.5 114.658 78.65 116.058 79.45C117.492 80.25 119.125 80.65 120.958 80.65C122.592 80.65 124.058 80.3167 125.358 79.65C126.692 78.95 127.775 78.0333 128.608 76.9L131.758 79.35C130.592 80.9167 129.075 82.1667 127.208 83.1C125.375 84.0333 123.292 84.5 120.958 84.5ZM122.158 54.3H118.008L123.208 46H128.008L122.158 54.3ZM137.411 83.5V58.3H141.661V63.8V83.5H137.411ZM141.661 66.2L139.711 64.2C140.244 63.3 140.828 62.4667 141.461 61.7C142.094 60.9333 142.778 60.25 143.511 59.65C144.278 59.05 145.111 58.6 146.011 58.3C146.911 57.9667 147.911 57.8 149.011 57.8C149.411 57.8 149.794 57.8333 150.161 57.9C150.528 57.9333 150.861 58 151.161 58.1V62.25C150.794 62.15 150.411 62.0833 150.011 62.05C149.611 61.9833 149.161 61.95 148.661 61.95C147.561 61.95 146.578 62.1333 145.711 62.5C144.878 62.8333 144.128 63.3167 143.461 63.95C142.794 64.5833 142.194 65.3333 141.661 66.2ZM166.419 84.5C163.586 84.5 161.136 83.8833 159.069 82.65C157.036 81.3833 155.453 79.7167 154.319 77.65C153.219 75.5833 152.669 73.3333 152.669 70.9C152.669 69 152.953 67.2333 153.519 65.6C154.119 63.9333 154.969 62.4833 156.069 61.25C157.203 59.9833 158.553 59.0167 160.119 58.35C161.686 57.65 163.436 57.3 165.369 57.3C167.103 57.3 168.653 57.5833 170.019 58.15C171.419 58.6833 172.603 59.4667 173.569 60.5C174.569 61.5 175.336 62.6667 175.869 64C176.403 65.3 176.669 66.7333 176.669 68.3C176.669 68.7667 176.636 69.2333 176.569 69.7C176.536 70.1667 176.469 70.5833 176.369 70.95H155.769V67.7H173.119L172.419 67.95C172.419 66.6833 172.136 65.5167 171.569 64.45C171.003 63.35 170.186 62.4833 169.119 61.85C168.086 61.1833 166.803 60.85 165.269 60.85C163.636 60.85 162.186 61.25 160.919 62.05C159.686 62.8167 158.719 63.9333 158.019 65.4C157.353 66.8333 157.019 68.5833 157.019 70.65C157.019 72.7167 157.419 74.5 158.219 76C159.019 77.5 160.119 78.65 161.519 79.45C162.953 80.25 164.586 80.65 166.419 80.65C168.053 80.65 169.519 80.3167 170.819 79.65C172.153 78.95 173.236 78.0333 174.069 76.9L177.219 79.35C176.053 80.9167 174.536 82.1667 172.669 83.1C170.836 84.0333 168.753 84.5 166.419 84.5ZM185.277 64.4C185.277 65.3333 185.577 66.1 186.177 66.7C186.81 67.3 187.593 67.8167 188.527 68.25C189.493 68.65 190.51 69.0667 191.577 69.5C192.677 69.9 193.693 70.4 194.627 71C195.593 71.6 196.377 72.3667 196.977 73.3C197.61 74.2 197.927 75.3833 197.927 76.85C197.893 78.4167 197.493 79.7667 196.727 80.9C195.993 82.0333 194.993 82.9167 193.727 83.55C192.46 84.1833 191.027 84.5 189.427 84.5C187.427 84.5 185.643 84.1167 184.077 83.35C182.51 82.55 181.143 81.45 179.977 80.05L182.977 77.5C183.843 78.6 184.793 79.45 185.827 80.05C186.893 80.65 188.077 80.95 189.377 80.95C190.777 80.95 191.86 80.5833 192.627 79.85C193.393 79.0833 193.777 78.15 193.777 77.05C193.777 76.1167 193.477 75.3667 192.877 74.8C192.277 74.2 191.493 73.7 190.527 73.3C189.56 72.8667 188.543 72.45 187.477 72.05C186.41 71.6167 185.393 71.1 184.427 70.5C183.46 69.9 182.677 69.1333 182.077 68.2C181.477 67.2333 181.177 66 181.177 64.5C181.177 63.1667 181.51 61.9667 182.177 60.9C182.877 59.8 183.843 58.9333 185.077 58.3C186.343 57.6333 187.777 57.3 189.377 57.3C191.177 57.3 192.81 57.6833 194.277 58.45C195.777 59.2167 196.96 60.2167 197.827 61.45L194.827 63.95C194.16 62.9833 193.36 62.2333 192.427 61.7C191.527 61.1333 190.527 60.85 189.427 60.85C188.56 60.85 187.81 61.0167 187.177 61.35C186.543 61.65 186.06 62.0667 185.727 62.6C185.427 63.1333 185.277 63.7333 185.277 64.4ZM206.249 64.4C206.249 65.3333 206.549 66.1 207.149 66.7C207.783 67.3 208.566 67.8167 209.499 68.25C210.466 68.65 211.483 69.0667 212.549 69.5C213.649 69.9 214.666 70.4 215.599 71C216.566 71.6 217.349 72.3667 217.949 73.3C218.583 74.2 218.899 75.3833 218.899 76.85C218.866 78.4167 218.466 79.7667 217.699 80.9C216.966 82.0333 215.966 82.9167 214.699 83.55C213.433 84.1833 211.999 84.5 210.399 84.5C208.399 84.5 206.616 84.1167 205.049 83.35C203.483 82.55 202.116 81.45 200.949 80.05L203.949 77.5C204.816 78.6 205.766 79.45 206.799 80.05C207.866 80.65 209.049 80.95 210.349 80.95C211.749 80.95 212.833 80.5833 213.599 79.85C214.366 79.0833 214.749 78.15 214.749 77.05C214.749 76.1167 214.449 75.3667 213.849 74.8C213.249 74.2 212.466 73.7 211.499 73.3C210.533 72.8667 209.516 72.45 208.449 72.05C207.383 71.6167 206.366 71.1 205.399 70.5C204.433 69.9 203.649 69.1333 203.049 68.2C202.449 67.2333 202.149 66 202.149 64.5C202.149 63.1667 202.483 61.9667 203.149 60.9C203.849 59.8 204.816 58.9333 206.049 58.3C207.316 57.6333 208.749 57.3 210.349 57.3C212.149 57.3 213.783 57.6833 215.249 58.45C216.749 59.2167 217.933 60.2167 218.799 61.45L215.799 63.95C215.133 62.9833 214.333 62.2333 213.399 61.7C212.499 61.1333 211.499 60.85 210.399 60.85C209.533 60.85 208.783 61.0167 208.149 61.35C207.516 61.65 207.033 62.0667 206.699 62.6C206.399 63.1333 206.249 63.7333 206.249 64.4ZM233.92 61.1C232.486 61.1 231.186 61.4167 230.02 62.05C228.853 62.6833 227.886 63.5333 227.12 64.6L223.87 62.15C225.003 60.65 226.436 59.4667 228.17 58.6C229.903 57.7333 231.87 57.3 234.07 57.3C236.203 57.3 238.036 57.7 239.57 58.5C241.103 59.2667 242.27 60.35 243.07 61.75C243.87 63.15 244.27 64.7667 244.27 66.6V83.5H240.02V78.8V66.6C240.02 64.8667 239.453 63.5167 238.32 62.55C237.186 61.5833 235.72 61.1 233.92 61.1ZM231.57 84.2C229.07 84.2 227.053 83.5667 225.52 82.3C224.02 81 223.27 79.2833 223.27 77.15C223.27 75.25 223.97 73.65 225.37 72.35C226.803 71.05 228.853 70.1833 231.52 69.75L240.22 68.3L241.22 71.25L232.57 72.7C230.836 73 229.57 73.5167 228.77 74.25C227.97 74.9833 227.57 75.9 227.57 77C227.57 78.0667 227.986 78.95 228.82 79.65C229.653 80.35 230.803 80.7 232.27 80.7C233.936 80.7 235.436 80.3167 236.77 79.55C238.103 78.7833 239.203 77.7 240.07 76.3L240.92 78.9C240.386 80 239.62 80.95 238.62 81.75C237.653 82.55 236.553 83.15 235.32 83.55C234.086 83.9833 232.836 84.2 231.57 84.2ZM251.796 83.5V58.3H256.046V63.7V83.5H251.796ZM256.046 66.05L254.096 63.8C254.863 62.6 255.713 61.5167 256.646 60.55C257.613 59.55 258.729 58.7667 259.996 58.2C261.296 57.6 262.779 57.3 264.446 57.3C266.346 57.3 268.029 57.7167 269.496 58.55C270.996 59.35 272.163 60.5667 272.996 62.2C273.863 63.8333 274.296 65.85 274.296 68.25V83.5H270.046V68.4C270.046 66.1333 269.463 64.3833 268.296 63.15C267.129 61.9167 265.563 61.3 263.596 61.3C262.363 61.3 261.279 61.5167 260.346 61.95C259.413 62.3833 258.596 62.9667 257.896 63.7C257.196 64.4 256.579 65.1833 256.046 66.05ZM278.501 62.15V58.3H296.401V62.15H278.501ZM283.301 75.05V52H287.601V75.05C287.601 76.3833 287.801 77.4167 288.201 78.15C288.634 78.85 289.234 79.35 290.001 79.65C290.767 79.95 291.651 80.1 292.651 80.1C293.484 80.1 294.201 80.05 294.801 79.95C295.401 79.8167 295.934 79.6667 296.401 79.5V83.3C295.801 83.5333 295.151 83.7 294.451 83.8C293.751 83.9333 292.951 84 292.051 84C290.184 84 288.601 83.6833 287.301 83.05C286.001 82.4167 285.001 81.45 284.301 80.15C283.634 78.8167 283.301 77.1167 283.301 75.05ZM313.735 84.05C313.168 84.05 312.635 83.9 312.135 83.6C311.668 83.3 311.285 82.9167 310.985 82.45C310.685 81.95 310.535 81.4167 310.535 80.85C310.535 80.2833 310.685 79.7667 310.985 79.3C311.285 78.8333 311.668 78.45 312.135 78.15C312.635 77.85 313.168 77.7 313.735 77.7C314.335 77.7 314.868 77.85 315.335 78.15C315.835 78.45 316.218 78.8333 316.485 79.3C316.785 79.7667 316.935 80.2833 316.935 80.85C316.935 81.4167 316.785 81.95 316.485 82.45C316.218 82.9167 315.835 83.3 315.335 83.6C314.868 83.9 314.335 84.05 313.735 84.05ZM312.035 73.3L311.535 65.7C313.868 65.4333 315.835 64.9833 317.435 64.35C319.068 63.6833 320.302 62.8167 321.135 61.75C322.002 60.65 322.435 59.3167 322.435 57.75C322.435 56.55 322.152 55.4833 321.585 54.55C321.052 53.5833 320.302 52.8333 319.335 52.3C318.368 51.7333 317.268 51.45 316.035 51.45C314.502 51.45 313.168 51.8167 312.035 52.55C310.935 53.25 309.852 54.3333 308.785 55.8L305.085 53.5C306.385 51.6667 307.918 50.2167 309.685 49.15C311.485 48.05 313.668 47.5 316.235 47.5C318.235 47.5 320.052 47.95 321.685 48.85C323.318 49.7167 324.618 50.9167 325.585 52.45C326.552 53.9833 327.035 55.7333 327.035 57.7C327.035 59.8667 326.485 61.7333 325.385 63.3C324.318 64.8667 322.835 66.1333 320.935 67.1C319.035 68.0333 316.868 68.65 314.435 68.95L315.635 68L315.335 73.3H312.035Z" fill="#4C61C5"/>
<path d="M346.463 83.5V48.5H357.963C361.829 48.5 364.863 49.4333 367.063 51.3C369.296 53.1333 370.413 55.6833 370.413 58.95C370.413 61.0833 369.913 62.9333 368.913 64.5C367.913 66.0333 366.479 67.2333 364.613 68.1C362.746 68.9333 360.529 69.35 357.963 69.35H349.563V63.45H358.313C359.813 63.45 360.979 63.0333 361.813 62.2C362.679 61.3667 363.113 60.25 363.113 58.85C363.113 57.5167 362.679 56.45 361.813 55.65C360.979 54.8167 359.813 54.4 358.313 54.4H353.563V83.5H346.463ZM383.159 62.85C381.926 62.85 380.826 63.1167 379.859 63.65C378.926 64.1833 378.126 64.9167 377.459 65.85L372.809 62.3C373.943 60.7333 375.409 59.5167 377.209 58.65C379.043 57.75 381.093 57.3 383.359 57.3C385.793 57.3 387.826 57.7333 389.459 58.6C391.093 59.4667 392.326 60.65 393.159 62.15C393.993 63.65 394.409 65.3167 394.409 67.15V83.5H388.059V79.15V67.15C388.059 65.85 387.593 64.8167 386.659 64.05C385.759 63.25 384.593 62.85 383.159 62.85ZM380.509 84.25C378.009 84.25 375.959 83.5833 374.359 82.25C372.793 80.8833 372.009 79.0333 372.009 76.7C372.009 74.8 372.726 73.1833 374.159 71.85C375.593 70.5167 377.659 69.6167 380.359 69.15L388.359 67.8L389.359 72.05L382.059 73.3C380.726 73.5 379.759 73.8667 379.159 74.4C378.593 74.9333 378.309 75.6167 378.309 76.45C378.309 77.25 378.626 77.9167 379.259 78.45C379.893 78.9833 380.743 79.25 381.809 79.25C383.243 79.25 384.476 78.9333 385.509 78.3C386.576 77.6333 387.443 76.7833 388.109 75.75L388.909 79.65C388.576 80.5167 387.959 81.3 387.059 82C386.193 82.7 385.176 83.25 384.009 83.65C382.876 84.05 381.709 84.25 380.509 84.25ZM400.681 83.5V58.3H407.031V64.15V83.5H400.681ZM407.031 67.35L404.181 64.55C404.681 63.7833 405.231 63 405.831 62.2C406.431 61.4 407.098 60.6667 407.831 60C408.598 59.3333 409.464 58.8 410.431 58.4C411.398 58 412.481 57.8 413.681 57.8C414.114 57.8 414.514 57.8333 414.881 57.9C415.248 57.9667 415.581 58.05 415.881 58.15V64.4C415.481 64.3 415.048 64.2167 414.581 64.15C414.148 64.0833 413.648 64.05 413.081 64.05C412.048 64.05 411.131 64.2167 410.331 64.55C409.564 64.85 408.898 65.25 408.331 65.75C407.764 66.25 407.331 66.7833 407.031 67.35ZM418.456 64V58.3H437.256V64H418.456ZM423.156 74.3V52H429.556V74.3C429.556 75.2333 429.706 76 430.006 76.6C430.339 77.1667 430.806 77.5833 431.406 77.85C432.006 78.0833 432.723 78.2 433.556 78.2C434.423 78.2 435.156 78.15 435.756 78.05C436.389 77.95 436.906 77.8167 437.306 77.65V83.2C436.673 83.4667 435.956 83.6667 435.156 83.8C434.389 83.9333 433.489 84 432.456 84C430.356 84 428.623 83.6333 427.256 82.9C425.889 82.1333 424.856 81.0333 424.156 79.6C423.489 78.1333 423.156 76.3667 423.156 74.3ZM451.693 62.85C450.459 62.85 449.359 63.1167 448.393 63.65C447.459 64.1833 446.659 64.9167 445.993 65.85L441.343 62.3C442.476 60.7333 443.943 59.5167 445.743 58.65C447.576 57.75 449.626 57.3 451.893 57.3C454.326 57.3 456.359 57.7333 457.993 58.6C459.626 59.4667 460.859 60.65 461.693 62.15C462.526 63.65 462.943 65.3167 462.943 67.15V83.5H456.593V79.15V67.15C456.593 65.85 456.126 64.8167 455.193 64.05C454.293 63.25 453.126 62.85 451.693 62.85ZM449.043 84.25C446.543 84.25 444.493 83.5833 442.893 82.25C441.326 80.8833 440.543 79.0333 440.543 76.7C440.543 74.8 441.259 73.1833 442.693 71.85C444.126 70.5167 446.193 69.6167 448.893 69.15L456.893 67.8L457.893 72.05L450.593 73.3C449.259 73.5 448.293 73.8667 447.693 74.4C447.126 74.9333 446.843 75.6167 446.843 76.45C446.843 77.25 447.159 77.9167 447.793 78.45C448.426 78.9833 449.276 79.25 450.343 79.25C451.776 79.25 453.009 78.9333 454.043 78.3C455.109 77.6333 455.976 76.7833 456.643 75.75L457.443 79.65C457.109 80.5167 456.493 81.3 455.593 82C454.726 82.7 453.709 83.25 452.543 83.65C451.409 84.05 450.243 84.25 449.043 84.25ZM484.964 63.65L480.714 58.3H492.414V63.65H484.964ZM466.764 87.9C466.764 86.3333 467.231 84.95 468.164 83.75C469.131 82.55 470.464 81.4833 472.164 80.55L475.014 82.95C474.381 83.4167 473.831 83.9667 473.364 84.6C472.931 85.2667 472.714 86.0667 472.714 87C472.714 87.8 472.964 88.5 473.464 89.1C473.964 89.7 474.714 90.15 475.714 90.45C476.714 90.75 477.964 90.9 479.464 90.9C480.997 90.9 482.281 90.7167 483.314 90.35C484.347 90.0167 485.114 89.5333 485.614 88.9C486.147 88.2667 486.414 87.5333 486.414 86.7C486.414 86.0667 486.281 85.5 486.014 85C485.747 84.5 485.297 84.1167 484.664 83.85C484.064 83.5833 483.247 83.45 482.214 83.45H474.264C473.131 83.45 472.131 83.1833 471.264 82.65C470.431 82.0833 469.781 81.4 469.314 80.6C468.881 79.8 468.664 78.9667 468.664 78.1C468.664 76.7333 469.081 75.5333 469.914 74.5C470.747 73.4667 472.114 72.5167 474.014 71.65L477.014 73.95C476.381 74.3167 475.864 74.7167 475.464 75.15C475.064 75.5833 474.864 76.0333 474.864 76.5C474.864 77 474.997 77.3833 475.264 77.65C475.564 77.8833 475.997 78 476.564 78H482.914C485.014 78 486.797 78.35 488.264 79.05C489.731 79.75 490.831 80.7167 491.564 81.95C492.297 83.15 492.664 84.5333 492.664 86.1C492.664 87.4667 492.347 88.75 491.714 89.95C491.114 91.1833 490.231 92.25 489.064 93.15C487.897 94.05 486.497 94.75 484.864 95.25C483.264 95.75 481.481 96 479.514 96C476.847 96 474.564 95.6833 472.664 95.05C470.764 94.45 469.297 93.55 468.264 92.35C467.264 91.15 466.764 89.6667 466.764 87.9ZM468.064 66.15C468.064 64.5167 468.464 63.0333 469.264 61.7C470.064 60.3667 471.214 59.3 472.714 58.5C474.214 57.7 476.031 57.3 478.164 57.3C480.297 57.3 482.114 57.7 483.614 58.5C485.147 59.3 486.314 60.3667 487.114 61.7C487.914 63.0333 488.314 64.5167 488.314 66.15C488.314 67.7833 487.914 69.2833 487.114 70.65C486.314 72.0167 485.147 73.1 483.614 73.9C482.114 74.7 480.297 75.1 478.164 75.1C476.031 75.1 474.214 74.7 472.714 73.9C471.214 73.1 470.064 72.0167 469.264 70.65C468.464 69.2833 468.064 67.7833 468.064 66.15ZM482.564 66.15C482.564 65.3167 482.381 64.6 482.014 64C481.681 63.3667 481.181 62.8833 480.514 62.55C479.881 62.2167 479.114 62.05 478.214 62.05C477.314 62.05 476.531 62.2167 475.864 62.55C475.197 62.8833 474.681 63.3667 474.314 64C473.981 64.6 473.814 65.3167 473.814 66.15C473.814 66.9833 473.981 67.7167 474.314 68.35C474.681 68.9833 475.197 69.4833 475.864 69.85C476.531 70.1833 477.314 70.35 478.214 70.35C479.114 70.35 479.881 70.1833 480.514 69.85C481.181 69.4833 481.681 68.9833 482.014 68.35C482.381 67.7167 482.564 66.9833 482.564 66.15ZM507.123 84.5C504.123 84.5 501.573 83.8833 499.473 82.65C497.406 81.3833 495.823 79.7167 494.723 77.65C493.656 75.5833 493.123 73.3333 493.123 70.9C493.123 69.0333 493.406 67.2833 493.973 65.65C494.573 63.9833 495.423 62.5333 496.523 61.3C497.623 60.0333 498.973 59.05 500.573 58.35C502.173 57.65 504.006 57.3 506.073 57.3C507.84 57.3 509.423 57.5833 510.823 58.15C512.256 58.7167 513.473 59.5167 514.473 60.55C515.506 61.55 516.29 62.75 516.823 64.15C517.39 65.5167 517.673 67.0167 517.673 68.65C517.673 69.3167 517.623 69.9667 517.523 70.6C517.456 71.2333 517.373 71.75 517.273 72.15H497.623V67.6H512.223L511.473 67.8C511.473 66.9 511.256 66.05 510.823 65.25C510.423 64.45 509.806 63.8 508.973 63.3C508.173 62.7667 507.156 62.5 505.923 62.5C504.556 62.5 503.39 62.8 502.423 63.4C501.49 64 500.773 64.9 500.273 66.1C499.773 67.2667 499.523 68.7 499.523 70.4C499.523 72.4 499.84 74.0167 500.473 75.25C501.106 76.4833 501.99 77.3833 503.123 77.95C504.256 78.5167 505.573 78.8 507.073 78.8C508.473 78.8 509.74 78.5333 510.873 78C512.006 77.4667 512.906 76.7333 513.573 75.8L518.123 79.4C516.956 80.9667 515.423 82.2167 513.523 83.15C511.656 84.05 509.523 84.5 507.123 84.5ZM537.238 60.85L542.238 64L526.488 80.95L521.488 77.8L537.238 60.85ZM521.838 64V58.3H542.238V64H521.838ZM521.488 83.5V77.8H542.588V83.5H521.488ZM556.085 72.25L554.735 48.5H562.035L560.685 72.25H556.085ZM558.435 84.1C557.635 84.1 556.901 83.9 556.235 83.5C555.568 83.1 555.035 82.5667 554.635 81.9C554.235 81.2333 554.035 80.5167 554.035 79.75C554.035 78.95 554.218 78.2333 554.585 77.6C554.985 76.9667 555.518 76.45 556.185 76.05C556.885 75.65 557.635 75.45 558.435 75.45C559.201 75.45 559.918 75.65 560.585 76.05C561.251 76.45 561.785 76.9667 562.185 77.6C562.585 78.2333 562.785 78.95 562.785 79.75C562.785 80.5167 562.585 81.2333 562.185 81.9C561.785 82.5667 561.251 83.1 560.585 83.5C559.918 83.9 559.201 84.1 558.435 84.1Z" fill="#4C61C5"/>
<path d="M584.195 100.74C586.893 100.149 588.992 98.0263 589.552 95.3216L591.799 84.4751C592.376 81.6896 594.829 79.6921 597.674 79.6921L604 79.6921C606.265 79.6921 608.079 81.5717 607.997 83.8356L607.463 98.7179C607.463 108.069 599.386 117.601 590.321 118.206L572.527 118.996C570.25 119.097 568.349 117.279 568.349 115L568.349 109.038C568.349 106.219 570.312 103.78 573.066 103.177L584.195 100.74Z" fill="#FBC63A"/>
</svg>
