<svg width="580" height="131" viewBox="0 0 580 131" fill="none" xmlns="http://www.w3.org/2000/svg">
<path d="M23.8051 28.2606C21.1068 28.8515 19.0084 30.9739 18.4481 33.6787L16.2012 44.5252C15.6242 47.3106 13.1706 49.3081 10.326 49.3081L4 49.3081C1.73461 49.3081 -0.0786818 47.4286 0.00257528 45.1646L0.53673 30.2823C0.53673 20.9316 8.6141 11.3987 17.6791 10.7944L35.4732 10.0042C37.7497 9.90313 39.6506 11.7215 39.6506 14.0003L39.6506 19.9623C39.6506 22.7815 37.688 25.2204 34.9342 25.8235L23.8051 28.2606Z" fill="#018F83"/>
<path d="M34.0975 87.5V55.244H39.5375V87.5H34.0975ZM36.8495 46.86C36.1668 46.86 35.5268 46.6893 34.9295 46.348C34.3322 46.0067 33.8628 45.5587 33.5215 45.004C33.1802 44.4067 33.0095 43.7453 33.0095 43.02C33.0095 41.9533 33.3722 41.0573 34.0975 40.332C34.8655 39.6067 35.7828 39.244 36.8495 39.244C37.5748 39.244 38.2148 39.4147 38.7695 39.756C39.3668 40.0973 39.8362 40.5667 40.1775 41.164C40.5188 41.7187 40.6895 42.3373 40.6895 43.02C40.6895 43.7453 40.5188 44.4067 40.1775 45.004C39.8362 45.5587 39.3668 46.0067 38.7695 46.348C38.2148 46.6893 37.5748 46.86 36.8495 46.86ZM49.755 87.5V55.244H55.195V62.156V87.5H49.755ZM55.195 65.164L52.699 62.284C53.6803 60.748 54.7683 59.3613 55.963 58.124C57.2003 56.844 58.6297 55.8413 60.251 55.116C61.915 54.348 63.8137 53.964 65.947 53.964C68.379 53.964 70.5337 54.4973 72.411 55.564C74.331 56.588 75.8243 58.1453 76.891 60.236C78.0003 62.3267 78.555 64.908 78.555 67.98V87.5H73.115V68.172C73.115 65.2707 72.3683 63.0307 70.875 61.452C69.3817 59.8733 67.3763 59.084 64.859 59.084C63.2803 59.084 61.8937 59.3613 60.699 59.916C59.5043 60.4707 58.459 61.2173 57.563 62.156C56.667 63.052 55.8777 64.0547 55.195 65.164ZM83.937 60.172V55.244H106.849V60.172H83.937ZM90.081 76.684V47.18H95.585V76.684C95.585 78.3907 95.841 79.7133 96.353 80.652C96.9077 81.548 97.6757 82.188 98.657 82.572C99.6383 82.956 100.769 83.148 102.049 83.148C103.116 83.148 104.033 83.084 104.801 82.956C105.569 82.7853 106.252 82.5933 106.849 82.38V87.244C106.081 87.5427 105.249 87.756 104.353 87.884C103.457 88.0547 102.433 88.14 101.281 88.14C98.8917 88.14 96.865 87.7347 95.201 86.924C93.537 86.1133 92.257 84.876 91.361 83.212C90.5077 81.5053 90.081 79.3293 90.081 76.684ZM128.043 88.78C124.416 88.78 121.28 87.9907 118.635 86.412C116.032 84.7907 114.006 82.6573 112.555 80.012C111.147 77.3667 110.443 74.4867 110.443 71.372C110.443 68.94 110.806 66.6787 111.531 64.588C112.299 62.4547 113.387 60.5987 114.795 59.02C116.246 57.3987 117.974 56.1613 119.979 55.308C121.984 54.412 124.224 53.964 126.699 53.964C128.918 53.964 130.902 54.3267 132.651 55.052C134.443 55.7347 135.958 56.7373 137.195 58.06C138.475 59.34 139.456 60.8333 140.139 62.54C140.822 64.204 141.163 66.0387 141.163 68.044C141.163 68.6413 141.12 69.2387 141.035 69.836C140.992 70.4333 140.907 70.9667 140.779 71.436H114.411V67.276H136.619L135.723 67.596C135.723 65.9747 135.36 64.4813 134.635 63.116C133.91 61.708 132.864 60.5987 131.499 59.788C130.176 58.9347 128.534 58.508 126.571 58.508C124.48 58.508 122.624 59.02 121.003 60.044C119.424 61.0253 118.187 62.4547 117.291 64.332C116.438 66.1667 116.011 68.4067 116.011 71.052C116.011 73.6973 116.523 75.98 117.547 77.9C118.571 79.82 119.979 81.292 121.771 82.316C123.606 83.34 125.696 83.852 128.043 83.852C130.134 83.852 132.011 83.4253 133.675 82.572C135.382 81.676 136.768 80.5027 137.835 79.052L141.867 82.188C140.374 84.1933 138.432 85.7933 136.043 86.988C133.696 88.1827 131.03 88.78 128.043 88.78ZM129.579 50.124H124.267L130.923 39.5H137.067L129.579 50.124ZM149.102 87.5V55.244H154.542V62.284V87.5H149.102ZM154.542 65.356L152.046 62.796C152.729 61.644 153.476 60.5773 154.286 59.596C155.097 58.6147 155.972 57.74 156.91 56.972C157.892 56.204 158.958 55.628 160.11 55.244C161.262 54.8173 162.542 54.604 163.95 54.604C164.462 54.604 164.953 54.6467 165.422 54.732C165.892 54.7747 166.318 54.86 166.702 54.988V60.3C166.233 60.172 165.742 60.0867 165.23 60.044C164.718 59.9587 164.142 59.916 163.502 59.916C162.094 59.916 160.836 60.1507 159.726 60.62C158.66 61.0467 157.7 61.6653 156.846 62.476C155.993 63.2867 155.225 64.2467 154.542 65.356ZM186.233 88.78C182.606 88.78 179.47 87.9907 176.825 86.412C174.222 84.7907 172.196 82.6573 170.745 80.012C169.337 77.3667 168.633 74.4867 168.633 71.372C168.633 68.94 168.996 66.6787 169.721 64.588C170.489 62.4547 171.577 60.5987 172.985 59.02C174.436 57.3987 176.164 56.1613 178.169 55.308C180.174 54.412 182.414 53.964 184.889 53.964C187.108 53.964 189.092 54.3267 190.841 55.052C192.633 55.7347 194.148 56.7373 195.385 58.06C196.665 59.34 197.646 60.8333 198.329 62.54C199.012 64.204 199.353 66.0387 199.353 68.044C199.353 68.6413 199.31 69.2387 199.225 69.836C199.182 70.4333 199.097 70.9667 198.969 71.436H172.601V67.276H194.809L193.913 67.596C193.913 65.9747 193.55 64.4813 192.825 63.116C192.1 61.708 191.054 60.5987 189.689 59.788C188.366 58.9347 186.724 58.508 184.761 58.508C182.67 58.508 180.814 59.02 179.193 60.044C177.614 61.0253 176.377 62.4547 175.481 64.332C174.628 66.1667 174.201 68.4067 174.201 71.052C174.201 73.6973 174.713 75.98 175.737 77.9C176.761 79.82 178.169 81.292 179.961 82.316C181.796 83.34 183.886 83.852 186.233 83.852C188.324 83.852 190.201 83.4253 191.865 82.572C193.572 81.676 194.958 80.5027 196.025 79.052L200.057 82.188C198.564 84.1933 196.622 85.7933 194.233 86.988C191.886 88.1827 189.22 88.78 186.233 88.78ZM210.371 63.052C210.371 64.2467 210.755 65.228 211.523 65.996C212.333 66.764 213.336 67.4253 214.531 67.98C215.768 68.492 217.069 69.0253 218.435 69.58C219.843 70.092 221.144 70.732 222.339 71.5C223.576 72.268 224.579 73.2493 225.347 74.444C226.157 75.596 226.563 77.1107 226.563 78.988C226.52 80.9933 226.008 82.7213 225.027 84.172C224.088 85.6227 222.808 86.7533 221.187 87.564C219.565 88.3747 217.731 88.78 215.683 88.78C213.123 88.78 210.84 88.2893 208.835 87.308C206.829 86.284 205.08 84.876 203.587 83.084L207.427 79.82C208.536 81.228 209.752 82.316 211.075 83.084C212.44 83.852 213.955 84.236 215.619 84.236C217.411 84.236 218.797 83.7667 219.779 82.828C220.76 81.8467 221.251 80.652 221.251 79.244C221.251 78.0493 220.867 77.0893 220.099 76.364C219.331 75.596 218.328 74.956 217.091 74.444C215.853 73.8893 214.552 73.356 213.187 72.844C211.821 72.2893 210.52 71.628 209.283 70.86C208.045 70.092 207.043 69.1107 206.275 67.916C205.507 66.6787 205.123 65.1 205.123 63.18C205.123 61.4733 205.549 59.9373 206.403 58.572C207.299 57.164 208.536 56.0547 210.115 55.244C211.736 54.3907 213.571 53.964 215.619 53.964C217.923 53.964 220.013 54.4547 221.891 55.436C223.811 56.4173 225.325 57.6973 226.435 59.276L222.595 62.476C221.741 61.2387 220.717 60.2787 219.523 59.596C218.371 58.8707 217.091 58.508 215.683 58.508C214.573 58.508 213.613 58.7213 212.803 59.148C211.992 59.532 211.373 60.0653 210.947 60.748C210.563 61.4307 210.371 62.1987 210.371 63.052ZM237.215 63.052C237.215 64.2467 237.599 65.228 238.367 65.996C239.178 66.764 240.181 67.4253 241.375 67.98C242.613 68.492 243.914 69.0253 245.279 69.58C246.687 70.092 247.989 70.732 249.183 71.5C250.421 72.268 251.423 73.2493 252.191 74.444C253.002 75.596 253.407 77.1107 253.407 78.988C253.365 80.9933 252.853 82.7213 251.871 84.172C250.933 85.6227 249.653 86.7533 248.031 87.564C246.41 88.3747 244.575 88.78 242.527 88.78C239.967 88.78 237.685 88.2893 235.679 87.308C233.674 86.284 231.925 84.876 230.431 83.084L234.271 79.82C235.381 81.228 236.597 82.316 237.919 83.084C239.285 83.852 240.799 84.236 242.463 84.236C244.255 84.236 245.642 83.7667 246.623 82.828C247.605 81.8467 248.095 80.652 248.095 79.244C248.095 78.0493 247.711 77.0893 246.943 76.364C246.175 75.596 245.173 74.956 243.935 74.444C242.698 73.8893 241.397 73.356 240.031 72.844C238.666 72.2893 237.365 71.628 236.127 70.86C234.89 70.092 233.887 69.1107 233.119 67.916C232.351 66.6787 231.967 65.1 231.967 63.18C231.967 61.4733 232.394 59.9373 233.247 58.572C234.143 57.164 235.381 56.0547 236.959 55.244C238.581 54.3907 240.415 53.964 242.463 53.964C244.767 53.964 246.858 54.4547 248.735 55.436C250.655 56.4173 252.17 57.6973 253.279 59.276L249.439 62.476C248.586 61.2387 247.562 60.2787 246.367 59.596C245.215 58.8707 243.935 58.508 242.527 58.508C241.418 58.508 240.458 58.7213 239.647 59.148C238.837 59.532 238.218 60.0653 237.791 60.748C237.407 61.4307 237.215 62.1987 237.215 63.052ZM275.455 88.78C271.829 88.78 268.693 87.9907 266.047 86.412C263.445 84.7907 261.418 82.6573 259.967 80.012C258.559 77.3667 257.855 74.4867 257.855 71.372C257.855 68.94 258.218 66.6787 258.943 64.588C259.711 62.4547 260.799 60.5987 262.207 59.02C263.658 57.3987 265.386 56.1613 267.391 55.308C269.397 54.412 271.637 53.964 274.111 53.964C276.33 53.964 278.314 54.3267 280.063 55.052C281.855 55.7347 283.37 56.7373 284.607 58.06C285.887 59.34 286.869 60.8333 287.551 62.54C288.234 64.204 288.575 66.0387 288.575 68.044C288.575 68.6413 288.533 69.2387 288.447 69.836C288.405 70.4333 288.319 70.9667 288.191 71.436H261.823V67.276H284.031L283.135 67.596C283.135 65.9747 282.773 64.4813 282.047 63.116C281.322 61.708 280.277 60.5987 278.911 59.788C277.589 58.9347 275.946 58.508 273.983 58.508C271.893 58.508 270.037 59.02 268.415 60.044C266.837 61.0253 265.599 62.4547 264.703 64.332C263.85 66.1667 263.423 68.4067 263.423 71.052C263.423 73.6973 263.935 75.98 264.959 77.9C265.983 79.82 267.391 81.292 269.183 82.316C271.018 83.34 273.109 83.852 275.455 83.852C277.546 83.852 279.423 83.4253 281.087 82.572C282.794 81.676 284.181 80.5027 285.247 79.052L289.279 82.188C287.786 84.1933 285.845 85.7933 283.455 86.988C281.109 88.1827 278.442 88.78 275.455 88.78ZM276.991 50.124H271.679L278.335 39.5H284.479L276.991 50.124ZM311.732 88.204C311.007 88.204 310.324 88.012 309.684 87.628C309.087 87.244 308.596 86.7533 308.212 86.156C307.828 85.516 307.636 84.8333 307.636 84.108C307.636 83.3827 307.828 82.7213 308.212 82.124C308.596 81.5267 309.087 81.036 309.684 80.652C310.324 80.268 311.007 80.076 311.732 80.076C312.5 80.076 313.183 80.268 313.78 80.652C314.42 81.036 314.911 81.5267 315.252 82.124C315.636 82.7213 315.828 83.3827 315.828 84.108C315.828 84.8333 315.636 85.516 315.252 86.156C314.911 86.7533 314.42 87.244 313.78 87.628C313.183 88.012 312.5 88.204 311.732 88.204ZM309.556 74.444L308.916 64.716C311.903 64.3747 314.42 63.7987 316.468 62.988C318.559 62.1347 320.137 61.0253 321.204 59.66C322.313 58.252 322.868 56.5453 322.868 54.54C322.868 53.004 322.505 51.6387 321.78 50.444C321.097 49.2067 320.137 48.2467 318.9 47.564C317.663 46.8387 316.255 46.476 314.676 46.476C312.713 46.476 311.007 46.9453 309.556 47.884C308.148 48.78 306.761 50.1667 305.396 52.044L300.66 49.1C302.324 46.7533 304.287 44.8973 306.548 43.532C308.852 42.124 311.647 41.42 314.932 41.42C317.492 41.42 319.817 41.996 321.908 43.148C323.999 44.2573 325.663 45.7933 326.9 47.756C328.137 49.7187 328.756 51.9587 328.756 54.476C328.756 57.2493 328.052 59.6387 326.644 61.644C325.279 63.6493 323.38 65.2707 320.948 66.508C318.516 67.7027 315.743 68.492 312.628 68.876L314.164 67.66L313.78 74.444H309.556Z" fill="#4C61C5"/>
<path d="M340.189 62.54V55.244H364.253V62.54H340.189ZM346.205 75.724V47.18H354.397V75.724C354.397 76.9187 354.589 77.9 354.973 78.668C355.399 79.3933 355.997 79.9267 356.765 80.268C357.533 80.5667 358.45 80.716 359.517 80.716C360.626 80.716 361.565 80.652 362.333 80.524C363.143 80.396 363.805 80.2253 364.317 80.012V87.116C363.506 87.4573 362.589 87.7133 361.565 87.884C360.583 88.0547 359.431 88.14 358.109 88.14C355.421 88.14 353.202 87.6707 351.453 86.732C349.703 85.7507 348.381 84.3427 347.485 82.508C346.631 80.6307 346.205 78.3693 346.205 75.724ZM385.243 88.78C381.403 88.78 378.139 87.9907 375.451 86.412C372.805 84.7907 370.779 82.6573 369.371 80.012C368.005 77.3667 367.323 74.4867 367.323 71.372C367.323 68.9827 367.685 66.7427 368.411 64.652C369.179 62.5187 370.267 60.6627 371.675 59.084C373.083 57.4627 374.811 56.204 376.859 55.308C378.907 54.412 381.253 53.964 383.899 53.964C386.16 53.964 388.187 54.3267 389.979 55.052C391.813 55.7773 393.371 56.8013 394.651 58.124C395.973 59.404 396.976 60.94 397.659 62.732C398.384 64.4813 398.747 66.4013 398.747 68.492C398.747 69.3453 398.683 70.1773 398.555 70.988C398.469 71.7987 398.363 72.46 398.235 72.972H373.083V67.148H391.771L390.811 67.404C390.811 66.252 390.533 65.164 389.979 64.14C389.467 63.116 388.677 62.284 387.611 61.644C386.587 60.9613 385.285 60.62 383.707 60.62C381.957 60.62 380.464 61.004 379.227 61.772C378.032 62.54 377.115 63.692 376.475 65.228C375.835 66.7213 375.515 68.556 375.515 70.732C375.515 73.292 375.92 75.3613 376.731 76.94C377.541 78.5187 378.672 79.6707 380.123 80.396C381.573 81.1213 383.259 81.484 385.179 81.484C386.971 81.484 388.592 81.1427 390.043 80.46C391.493 79.7773 392.645 78.8387 393.499 77.644L399.323 82.252C397.829 84.2573 395.867 85.8573 393.435 87.052C391.045 88.204 388.315 88.78 385.243 88.78ZM411.245 63.564C411.245 64.5027 411.608 65.2707 412.333 65.868C413.101 66.4227 414.061 66.9347 415.213 67.404C416.408 67.8307 417.645 68.3 418.925 68.812C420.248 69.324 421.485 69.964 422.637 70.732C423.832 71.4573 424.792 72.4387 425.517 73.676C426.285 74.8707 426.669 76.4067 426.669 78.284C426.626 80.5453 426.05 82.4653 424.941 84.044C423.874 85.58 422.466 86.7533 420.717 87.564C418.968 88.3747 417.069 88.78 415.021 88.78C412.12 88.78 409.624 88.2467 407.533 87.18C405.442 86.1133 403.629 84.6627 402.093 82.828L407.469 77.964C408.45 79.2013 409.538 80.2253 410.733 81.036C411.97 81.8467 413.357 82.252 414.893 82.252C416.216 82.252 417.197 81.932 417.837 81.292C418.52 80.6093 418.861 79.7773 418.861 78.796C418.861 77.8573 418.477 77.1107 417.709 76.556C416.984 75.9587 416.024 75.4467 414.829 75.02C413.677 74.5507 412.44 74.06 411.117 73.548C409.837 73.036 408.6 72.396 407.405 71.628C406.253 70.86 405.293 69.8573 404.525 68.62C403.8 67.3827 403.437 65.8253 403.437 63.948C403.437 62.028 403.928 60.3213 404.909 58.828C405.933 57.3347 407.298 56.1613 409.005 55.308C410.754 54.412 412.738 53.964 414.957 53.964C417.389 53.964 419.65 54.4973 421.741 55.564C423.874 56.588 425.517 57.8893 426.669 59.468L421.293 64.204C420.482 63.18 419.544 62.3053 418.477 61.58C417.41 60.8547 416.258 60.492 415.021 60.492C414.168 60.492 413.464 60.6413 412.909 60.94C412.354 61.196 411.928 61.5587 411.629 62.028C411.373 62.4973 411.245 63.0093 411.245 63.564ZM429.411 62.54V55.244H453.475V62.54H429.411ZM435.427 75.724V47.18H443.619V75.724C443.619 76.9187 443.811 77.9 444.195 78.668C444.622 79.3933 445.219 79.9267 445.987 80.268C446.755 80.5667 447.672 80.716 448.739 80.716C449.848 80.716 450.787 80.652 451.555 80.524C452.366 80.396 453.027 80.2253 453.539 80.012V87.116C452.728 87.4573 451.811 87.7133 450.787 87.884C449.806 88.0547 448.654 88.14 447.331 88.14C444.643 88.14 442.424 87.6707 440.675 86.732C438.926 85.7507 437.603 84.3427 436.707 82.508C435.854 80.6307 435.427 78.3693 435.427 75.724ZM474.465 88.78C470.625 88.78 467.361 87.9907 464.673 86.412C462.028 84.7907 460.001 82.6573 458.593 80.012C457.228 77.3667 456.545 74.4867 456.545 71.372C456.545 68.9827 456.908 66.7427 457.633 64.652C458.401 62.5187 459.489 60.6627 460.897 59.084C462.305 57.4627 464.033 56.204 466.081 55.308C468.129 54.412 470.476 53.964 473.121 53.964C475.382 53.964 477.409 54.3267 479.201 55.052C481.036 55.7773 482.593 56.8013 483.873 58.124C485.196 59.404 486.198 60.94 486.881 62.732C487.606 64.4813 487.969 66.4013 487.969 68.492C487.969 69.3453 487.905 70.1773 487.777 70.988C487.692 71.7987 487.585 72.46 487.457 72.972H462.305V67.148H480.993L480.033 67.404C480.033 66.252 479.756 65.164 479.201 64.14C478.689 63.116 477.9 62.284 476.833 61.644C475.809 60.9613 474.508 60.62 472.929 60.62C471.18 60.62 469.686 61.004 468.449 61.772C467.254 62.54 466.337 63.692 465.697 65.228C465.057 66.7213 464.737 68.556 464.737 70.732C464.737 73.292 465.142 75.3613 465.953 76.94C466.764 78.5187 467.894 79.6707 469.345 80.396C470.796 81.1213 472.481 81.484 474.401 81.484C476.193 81.484 477.814 81.1427 479.265 80.46C480.716 79.7773 481.868 78.8387 482.721 77.644L488.545 82.252C487.052 84.2573 485.089 85.8573 482.657 87.052C480.268 88.204 477.537 88.78 474.465 88.78ZM513.012 58.508L519.412 62.54L499.252 84.236L492.852 80.204L513.012 58.508ZM493.3 62.54V55.244H519.412V62.54H493.3ZM492.852 87.5V80.204H519.86V87.5H492.852ZM537.136 73.1L535.408 42.7H544.752L543.024 73.1H537.136ZM540.144 88.268C539.12 88.268 538.181 88.012 537.328 87.5C536.475 86.988 535.792 86.3053 535.28 85.452C534.768 84.5987 534.512 83.6813 534.512 82.7C534.512 81.676 534.747 80.7587 535.216 79.948C535.728 79.1373 536.411 78.476 537.264 77.964C538.16 77.452 539.12 77.196 540.144 77.196C541.125 77.196 542.043 77.452 542.896 77.964C543.749 78.476 544.432 79.1373 544.944 79.948C545.456 80.7587 545.712 81.676 545.712 82.7C545.712 83.6813 545.456 84.5987 544.944 85.452C544.432 86.3053 543.749 86.988 542.896 87.5C542.043 88.012 541.125 88.268 540.144 88.268Z" fill="#4C61C5"/>
<path d="M556.195 100.739C558.893 100.148 560.992 98.0261 561.552 95.3213L563.799 84.4748C564.376 81.6894 566.829 79.6919 569.674 79.6919L576 79.6919C578.265 79.6919 580.079 81.5714 579.997 83.8354L579.463 98.7177C579.463 108.068 571.386 117.601 562.321 118.206L544.527 118.996C542.25 119.097 540.349 117.278 540.349 115L540.349 109.038C540.349 106.219 542.312 103.78 545.066 103.177L556.195 100.739Z" fill="#FBC63A"/>
</svg>
