<svg width="32" height="32" viewBox="0 0 32 32" fill="none" xmlns="http://www.w3.org/2000/svg">
<path d="M15.2741 2.9994C15.0183 3.07955 14.771 3.22233 14.2764 3.5079L6.04338 8.26123C5.54876 8.5468 5.30145 8.68958 5.10416 8.871C4.73955 9.20627 4.48622 9.64505 4.37817 10.1284C4.3197 10.39 4.3197 10.6756 4.3197 11.2467V20.7534C4.3197 21.3245 4.3197 21.6101 4.37817 21.8717C4.48622 22.355 4.73955 22.7938 5.10416 23.1291C5.30145 23.3105 5.54876 23.4533 6.04338 23.7389L14.2764 28.4922C14.771 28.7778 15.0183 28.9206 15.2741 29.0007C15.7467 29.1488 16.2534 29.1488 16.726 29.0007C16.9818 28.9205 17.2291 28.7778 17.7237 28.4922L25.9567 23.7389C26.4514 23.4533 26.6987 23.3105 26.896 23.1291C27.2606 22.7938 27.5139 22.355 27.6219 21.8717C27.6804 21.6101 27.6804 21.3245 27.6804 20.7534V11.2467C27.6804 10.6756 27.6804 10.39 27.6219 10.1284C27.5139 9.64505 27.2606 9.20627 26.896 8.871C26.6987 8.68958 26.4514 8.5468 25.9567 8.26123L17.7237 3.5079C17.2291 3.22233 16.9818 3.07955 16.726 2.9994C16.2534 2.85128 15.7467 2.85128 15.2741 2.9994Z" fill="#2845C1"/>
<path fill-rule="evenodd" clip-rule="evenodd" d="M18.6678 1.87257L26.9008 6.6259C26.9337 6.64489 26.9669 6.66398 27.0003 6.68321C27.3923 6.90859 27.8173 7.15297 28.174 7.481C28.8222 8.07704 29.2725 8.85709 29.4646 9.71646C29.5704 10.1894 29.5695 10.6796 29.5687 11.1318C29.5686 11.1704 29.5686 11.2087 29.5686 11.2466V20.7533C29.5686 20.7913 29.5686 20.8296 29.5687 20.8682C29.5695 21.3203 29.5704 21.8105 29.4646 22.2835C29.2725 23.1428 28.8222 23.9229 28.174 24.5189C27.8173 24.847 27.3923 25.0913 27.0003 25.3167C26.9669 25.336 26.9337 25.355 26.9008 25.374L18.6678 30.1274C18.6349 30.1464 18.6017 30.1656 18.5684 30.1849C18.1772 30.4117 17.7531 30.6575 17.2906 30.8024C16.4504 31.0658 15.5496 31.0658 14.7094 30.8024C14.2469 30.6575 13.8228 30.4117 13.4316 30.1849C13.3983 30.1656 13.3651 30.1464 13.3322 30.1274L5.09921 25.374C5.06631 25.355 5.03311 25.336 4.99967 25.3167C4.60772 25.0913 4.18274 24.847 3.82601 24.5189C3.17782 23.9229 2.72746 23.1428 2.53537 22.2835C2.42965 21.8105 2.4305 21.3203 2.43129 20.8682C2.43136 20.8296 2.43142 20.7913 2.43142 20.7533V11.2466C2.43142 11.2087 2.43136 11.1704 2.43129 11.1318C2.4305 10.6796 2.42965 10.1894 2.53537 9.71646C2.72746 8.85709 3.17782 8.07704 3.82601 7.481C4.18274 7.15297 4.60772 6.90859 4.99967 6.68321C5.03311 6.66398 5.06631 6.64489 5.09921 6.6259L13.3322 1.87257C13.3651 1.85358 13.3982 1.83437 13.4316 1.81502C13.8228 1.58828 14.2469 1.34242 14.7094 1.1975C15.5496 0.934168 16.4504 0.934168 17.2906 1.1975C17.7531 1.34242 18.1772 1.58828 18.5684 1.81502C18.6018 1.83437 18.6349 1.85358 18.6678 1.87257ZM15.274 2.99932C15.0183 3.07946 14.7709 3.22225 14.2763 3.50782L6.04333 8.26114C5.5487 8.54672 5.30139 8.6895 5.1041 8.87092C4.73949 9.20619 4.48617 9.64497 4.37811 10.1284C4.31965 10.3899 4.31965 10.6755 4.31965 11.2466V20.7533C4.31965 21.3244 4.31965 21.61 4.37811 21.8716C4.48617 22.355 4.73949 22.7937 5.1041 23.129C5.30139 23.3104 5.5487 23.4532 6.04333 23.7388L14.2763 28.4921C14.7709 28.7777 15.0183 28.9205 15.274 29.0006C15.7467 29.1487 16.2533 29.1487 16.726 29.0006C16.9817 28.9205 17.229 28.7777 17.7237 28.4921L25.9567 23.7388C26.4513 23.4532 26.6986 23.3104 26.8959 23.129C27.2605 22.7937 27.5138 22.355 27.6219 21.8716C27.6804 21.61 27.6804 21.3244 27.6804 20.7533V11.2466C27.6804 10.6755 27.6804 10.3899 27.6219 10.1284C27.5138 9.64497 27.2605 9.20619 26.8959 8.87092C26.6986 8.6895 26.4513 8.54672 25.9567 8.26114L17.7237 3.50782C17.2291 3.22225 16.9817 3.07946 16.726 2.99932C16.2533 2.85119 15.7467 2.85119 15.274 2.99932Z" fill="#2845C1"/>
<path d="M7.97609 16.0973L11.8734 9.3841L12.1004 8.99507L8.80562 6.6664L6.04334 8.26121C5.54872 8.54678 5.3014 8.68957 5.10411 8.87098C4.93243 9.02886 4.78542 9.20968 4.66663 9.4073L7.97609 16.0973Z" fill="#FBC63A"/>
<path d="M16.4223 2.92529L27.5708 22.0633C27.5904 22.0003 27.6074 21.9364 27.6219 21.8716C27.6804 21.6101 27.6804 21.3245 27.6804 20.7534V11.2467C27.6804 10.6756 27.6804 10.39 27.6219 10.1284C27.5138 9.64503 27.2605 9.20626 26.8959 8.87098C26.6986 8.68957 26.4513 8.54678 25.9567 8.26121L17.7237 3.50789C17.2291 3.22232 16.9818 3.07953 16.726 2.99938C16.6261 2.96806 16.5246 2.94337 16.4223 2.92529Z" fill="#FBC63A"/>
<path d="M23.0848 6.60309L25.9567 8.26123C26.4514 8.5468 26.6987 8.68958 26.896 8.871C27.053 9.01536 27.1893 9.17891 27.3023 9.35695L24.0384 16.0366L19.8637 8.85036L23.0848 6.60309Z" fill="#2845C1"/>
<path d="M23.0848 6.60309L25.9567 8.26123C26.4514 8.5468 26.6987 8.68958 26.896 8.871C27.053 9.01536 27.1893 9.17891 27.3023 9.35695L24.0384 16.0366L19.8637 8.85036L23.0848 6.60309Z" fill="#F7F8F8" fill-opacity="0.35"/>
<path d="M16.0269 2.88845V29.1116C15.7731 29.1144 15.519 29.0775 15.2741 29.0007C15.0183 28.9206 14.771 28.7778 14.2764 28.4922L6.04338 23.7389C5.54876 23.4533 5.30145 23.3105 5.10416 23.1291C4.80293 22.8521 4.57766 22.5045 4.44751 22.1194L15.6348 2.91593C15.7647 2.89617 15.8958 2.88701 16.0269 2.88845Z" fill="#2845C1"/>
<path d="M16.0269 2.88845V29.1116C15.7731 29.1144 15.519 29.0775 15.2741 29.0007C15.0183 28.9206 14.771 28.7778 14.2764 28.4922L6.04338 23.7389C5.54876 23.4533 5.30145 23.3105 5.10416 23.1291C4.80293 22.8521 4.57766 22.5045 4.44751 22.1194L15.6348 2.91593C15.7647 2.89617 15.8958 2.88701 16.0269 2.88845Z" fill="#F7F8F8" fill-opacity="0.35"/>
<path fill-rule="evenodd" clip-rule="evenodd" d="M19.8402 27.2703C19.0771 27.0452 18.3251 26.7867 17.5865 26.4954C17.4563 26.2237 17.3855 25.9294 17.3785 25.6304C17.3716 25.3315 17.4286 25.0344 17.5461 24.7574C17.6107 24.519 17.706 24.2891 17.8304 24.0739C17.8506 24.0545 17.8707 24.0351 17.8707 24.015C17.8761 24.015 17.8812 24.013 17.885 24.0093C17.8888 24.0057 17.8909 24.0008 17.8909 23.9957C17.9806 23.8451 18.0824 23.7014 18.1954 23.566L18.2075 23.5544L18.2236 23.5381L18.2357 23.5265C18.2357 23.5079 18.2545 23.4892 18.2739 23.4699L18.2761 23.4677C18.2863 23.4478 18.3016 23.4329 18.3169 23.4182C18.3319 23.4037 18.3469 23.3893 18.3569 23.3701C18.499 23.2261 18.6556 23.0961 18.8244 22.9831C18.9964 22.9235 19.1724 22.8778 19.3525 22.846C20.0074 22.8925 20.6582 22.9776 21.3026 23.1C21.3817 23.1114 21.4578 23.1377 21.5263 23.1774C21.7693 23.2231 22.0205 23.2091 22.2571 23.1387C22.4112 23.1116 22.5556 23.0472 22.6765 22.9516C22.7973 22.8559 22.8906 22.7321 22.9475 22.5921C23.0187 22.4672 23.0593 22.3284 23.0663 22.1863C23.0733 22.0441 23.0465 21.9023 22.9878 21.7715C22.8441 21.5586 22.9773 21.434 23.134 21.3148L23.1889 21.273C23.2583 21.2257 23.3213 21.1692 23.3754 21.1057C23.4416 20.9789 23.3876 20.8861 23.3304 20.7878C23.2996 20.7349 23.2679 20.6803 23.2535 20.618C23.235 20.5826 23.1953 20.5715 23.1499 20.5588C23.0959 20.5436 23.0337 20.5262 22.9895 20.4632C23.2737 20.3463 23.6799 20.1303 23.4974 19.7997C23.3754 19.624 23.1929 19.312 23.4166 19.1363C23.5248 19.0774 23.6506 19.0464 23.7717 19.0165C23.9688 18.9679 24.1534 18.9225 24.229 18.7647C24.2688 18.6172 24.268 18.4623 24.2266 18.3152C24.1853 18.1682 24.1049 18.0339 23.9932 17.9255L23.9326 17.8419C23.8724 17.7615 23.8155 17.6789 23.7622 17.5942C23.6339 17.3899 23.4915 17.1941 23.3359 17.0081C23.1582 16.7668 23.0148 16.5039 22.9095 16.2262C22.8325 16.0419 22.8689 15.8727 22.9061 15.6994C22.9278 15.5982 22.9499 15.4957 22.9499 15.3878C22.9618 14.8241 22.8725 14.2627 22.6858 13.728C22.6431 13.6131 22.6111 13.4948 22.5794 13.3773C22.5357 13.2154 22.4924 13.055 22.4218 12.9074C22.4064 12.7442 22.3432 12.5885 22.2393 12.4584C22.2193 12.419 22.2089 12.3757 22.2089 12.3318C22.2089 12.288 22.2193 12.2447 22.2393 12.2053C22.4048 12.093 22.5615 11.9691 22.7068 11.8337C22.7516 11.7391 22.76 11.6323 22.7304 11.5324C22.7008 11.4325 22.6353 11.3458 22.5453 11.2879C22.3866 11.2176 22.3312 11.3236 22.2722 11.4363C22.2331 11.5111 22.1924 11.5888 22.119 11.62H21.997C21.9642 11.5406 22.0115 11.4997 22.0743 11.4455C22.0886 11.4331 22.1038 11.42 22.119 11.4056C22.119 11.3668 22.119 11.2887 22.0786 11.2887C21.9171 11.2887 21.7742 11.2492 21.733 11.1718C21.3438 10.7068 20.8215 10.3608 20.2302 10.1762C20.382 10.2211 20.5387 10.2466 20.6978 10.2536C20.9707 10.3086 21.255 10.2815 21.5101 10.1762C21.6431 10.1335 21.7009 9.95712 21.7534 9.7967C21.7733 9.73603 21.7924 9.67765 21.8145 9.62964C21.8309 9.54457 21.8286 9.45715 21.8076 9.37301C21.7866 9.28887 21.7474 9.20989 21.6926 9.14115C21.5092 8.88556 21.2561 8.68313 20.961 8.55588C20.7744 8.47218 20.5914 8.38101 20.4127 8.28261C20.3506 8.2407 20.2823 8.20783 20.2101 8.18506C17.8158 7.03544 12.8869 8.03023 12.5114 8.18506H12.5041C12.1581 8.2813 11.8208 8.40428 11.4956 8.55279C11.0477 8.71219 10.6433 8.96666 10.3126 9.29713C9.98191 9.6276 9.73345 10.0255 9.58586 10.4611C9.12481 10.7515 8.75317 11.1548 8.50947 11.6293C8.42942 11.7727 8.34071 11.9124 8.25265 12.051C7.96049 12.511 7.67546 12.9598 7.7375 13.4981C7.79113 13.8991 7.87216 14.2741 7.95626 14.6633C7.99881 14.8602 8.04215 15.0608 8.08311 15.2701C8.11783 15.4807 8.17194 15.6882 8.24461 15.8895C8.28033 15.984 8.28445 16.0902 8.28849 16.1944C8.29358 16.3257 8.29855 16.4538 8.36654 16.5514C8.38639 16.5894 8.3954 16.6297 8.40428 16.6695C8.42249 16.751 8.44019 16.8301 8.54984 16.8827V17.0375C8.5606 17.0479 8.56849 17.0582 8.57582 17.0677C8.59601 17.0941 8.61195 17.115 8.67177 17.115V17.2698C9.02303 17.5973 9.32342 17.9712 9.56567 18.3799C9.64642 18.5936 9.17969 18.4961 9.00042 18.4186C8.66489 18.2092 8.35784 17.9606 8.08634 17.6785C8.06417 17.6993 8.0497 17.7265 8.04516 17.756C8.09803 17.8452 8.19471 17.9407 8.29012 18.035C8.48613 18.2287 8.67681 18.4171 8.47152 18.5348C8.40113 18.5685 8.32644 18.5506 8.25114 18.5326C8.15367 18.5093 8.05517 18.4857 7.9636 18.5735C7.93705 18.6122 7.94542 18.6592 7.95427 18.7089C7.95887 18.7348 7.9636 18.7614 7.9636 18.7879C7.82954 18.6951 7.68852 18.6857 7.54889 18.6765C7.45554 18.6703 7.36281 18.6641 7.27319 18.6331C7.1985 18.6152 7.14937 18.5431 7.10009 18.4708C7.0428 18.3868 6.9853 18.3025 6.88721 18.3025C6.40554 18.1899 5.91718 18.1053 5.42484 18.0494C5.05835 17.9965 4.68959 17.9596 4.3197 17.9388V18.3285C4.64149 18.2695 4.96912 18.2428 5.29725 18.2491C5.42511 18.2296 5.55538 18.2296 5.68323 18.2491C5.22086 18.2486 4.7615 18.3132 4.3197 18.4401V19.1465C4.6638 19.2118 5.00391 19.2955 5.33843 19.3972C5.67173 19.5146 5.99156 19.6645 6.29289 19.8446C6.41159 19.953 6.5408 20.0513 6.67888 20.1365C6.77633 20.1898 6.88521 20.221 6.99719 20.2277C7.10917 20.2344 7.22126 20.2165 7.32487 20.1752H7.59135C8.16985 20.0835 8.71093 19.8412 9.15546 19.4746C9.15546 19.5133 9.19584 19.5133 9.23621 19.5133C9.17298 19.8219 9.05616 20.1181 8.8906 20.3896C8.89119 20.399 8.88924 20.4107 8.88708 20.4235C8.8803 20.4641 8.87152 20.5166 8.9334 20.546H8.99719C8.96328 20.546 8.9334 20.5514 8.9334 20.5847C8.9334 20.6234 8.96388 20.6234 8.99931 20.6234C9.03474 20.6234 9.07512 20.6234 9.0949 20.6621C8.90302 20.6672 8.72078 20.7439 8.58699 20.8758C8.58699 20.9145 8.66774 20.9145 8.70892 20.9145C8.67932 20.9524 8.63505 20.9625 8.59272 20.9721C8.54845 20.9822 8.50629 20.9918 8.48524 21.0322C8.50705 21.0532 8.5354 21.0668 8.56599 21.0709C8.52562 21.0709 8.48524 21.0709 8.48524 21.1096V21.2273C8.42027 21.2273 8.38032 21.2589 8.33869 21.2918C8.31514 21.3104 8.29104 21.3294 8.26157 21.3434C8.36679 21.4201 8.447 21.3968 8.53501 21.3713C8.58207 21.3577 8.63137 21.3434 8.68793 21.3434C8.50923 21.4083 8.34472 21.4839 8.1825 21.5585C7.95768 21.6619 7.73726 21.7632 7.4896 21.8311C7.44923 21.8311 7.44923 21.8602 7.44923 21.8892C7.44923 21.9182 7.44923 21.9472 7.40885 21.9472C7.48278 21.9942 7.53444 21.97 7.59065 21.9436C7.62716 21.9265 7.66559 21.9085 7.71328 21.9085C7.49398 22.0301 7.2712 22.1441 7.04493 22.2599C6.72633 22.423 6.40082 22.5896 6.06841 22.7857C6.02461 22.8274 5.99625 22.8818 5.98766 22.9405H5.82616C5.78434 22.9605 5.77501 22.9964 5.7644 23.0371C5.75453 23.0751 5.74354 23.1172 5.70423 23.1549C5.79337 23.2116 5.89175 23.176 5.98358 23.1428C6.07975 23.1079 6.16872 23.0757 6.23233 23.1549C6.27271 23.1549 6.15158 23.1936 6.07083 23.1936C6.05065 23.1936 6.04055 23.213 6.03046 23.2323C6.02036 23.2517 6.01027 23.2711 5.99008 23.2711H5.86573C5.85579 23.2782 5.84586 23.2851 5.83607 23.2918C5.76633 23.34 5.70423 23.3829 5.70423 23.4847C5.67517 23.4797 5.64535 23.4816 5.61744 23.4903C5.65372 23.5121 5.69195 23.5347 5.73233 23.5584C6.52798 23.5334 7.3145 23.3837 8.0605 23.1147C8.69016 22.8071 9.26038 22.3987 9.74655 21.907C9.76842 21.9279 9.7826 21.9551 9.78692 21.9844C9.66822 22.3227 9.4397 22.6161 9.13608 22.8205C9.02748 22.8776 8.93334 22.9483 8.84471 23.0148C8.7508 23.0853 8.66306 23.1511 8.57084 23.1913C8.45108 23.2555 8.33565 23.3269 8.22523 23.405C7.71489 23.5575 7.19083 23.6643 6.6595 23.7239L6.41321 23.758C6.32355 23.7706 6.23408 23.7838 6.14491 23.7975L7.30872 24.4694C7.49382 24.4673 7.67842 24.4501 7.86105 24.4176C8.09845 24.3533 8.3294 24.2689 8.55146 24.1644V24.2418C8.81864 24.1405 9.05551 23.9782 9.29115 23.8168C9.55403 23.6368 9.81538 23.4578 10.1156 23.3655C10.121 23.3655 10.1309 23.3711 10.144 23.3785C10.1796 23.3988 10.239 23.4325 10.2981 23.4042C10.4443 23.2304 10.6302 23.0912 10.8415 22.9973C11.0528 22.9033 11.2837 22.8571 11.5166 22.8623C11.5166 22.901 11.5166 22.9397 11.5569 22.9397H11.5771C11.4801 23.0173 11.3703 23.094 11.2591 23.1716C11.2306 23.1915 11.2019 23.2115 11.1734 23.2316C11.1274 23.2718 11.1677 23.3098 11.2081 23.3098C11.3151 23.2689 11.3991 23.2117 11.4818 23.1553C11.5558 23.1049 11.6287 23.0552 11.716 23.0187C11.6958 23.038 11.6857 23.0671 11.6756 23.0961C11.6656 23.1251 11.6555 23.1542 11.6353 23.1735C11.4838 23.2643 11.3411 23.3679 11.2089 23.4832C10.7521 23.8691 10.3244 24.2856 9.92904 24.7296C9.73819 24.9474 9.53028 25.1502 9.32399 25.3515C9.31033 25.3648 9.29668 25.3782 9.28305 25.3915C9.23306 25.4364 9.18038 25.4788 9.12545 25.5183L14.2764 28.4922C14.771 28.7778 15.0183 28.9206 15.2741 29.0007C15.7467 29.1489 16.2534 29.1489 16.726 29.0007C16.9818 28.9206 17.2291 28.7778 17.7237 28.4922L19.8402 27.2703ZM22.2034 16.1685C22.2433 16.1483 22.2771 16.1186 22.3015 16.0822C22.3015 16.048 22.2654 16.0205 22.2316 15.9946C22.1926 15.9649 22.1565 15.9373 22.1812 15.9042C22.4081 15.7501 22.6132 15.5396 22.5324 15.3282C22.5068 15.2568 22.3767 15.2299 22.2372 15.201C22.1528 15.1836 22.0649 15.1654 21.9946 15.1362C21.8482 15.0942 21.6921 15.0942 21.5457 15.1362L21.4383 15.1571L21.3317 15.1772C21.1338 15.2105 20.9392 15.2624 20.7519 15.3321C20.4846 15.4141 20.2327 15.5372 20.0066 15.6967C20.2803 15.5945 20.5645 15.5233 20.8552 15.4846C21.0716 15.433 21.2961 15.4199 21.5174 15.4459C21.5673 15.4575 21.6229 15.4657 21.6761 15.4735C21.7995 15.4916 21.9106 15.5079 21.9106 15.562C21.8638 15.7241 21.6991 15.8192 21.5198 15.9228C21.3806 16.0032 21.2325 16.0887 21.1241 16.2146H20.9998C20.9384 16.2524 20.9174 16.3136 20.8994 16.3659C20.8809 16.4196 20.8656 16.4639 20.8133 16.4639C20.6947 16.4385 20.5707 16.4522 20.4612 16.5026C20.5318 16.5813 20.6219 16.6418 20.7231 16.6787C20.8244 16.7157 20.9336 16.7277 21.041 16.7139C21.0756 16.7247 21.106 16.7452 21.1282 16.7729C21.1504 16.8005 21.1633 16.8339 21.1653 16.8688C21.1962 16.8656 21.2249 16.8519 21.2461 16.8301C21.2856 16.8301 21.3268 16.8301 21.3268 16.8688V17.0236C21.2938 17.0609 21.2517 17.0897 21.2042 17.1076C21.1567 17.1254 21.1053 17.1317 21.0547 17.1258H20.9861C20.9408 17.1249 20.8955 17.1291 20.8512 17.1382C21.1492 17.2148 21.4625 17.2148 21.7613 17.1382C21.8829 17.0972 21.8746 16.9742 21.8657 16.842C21.8579 16.7268 21.8497 16.6047 21.9268 16.5243C21.8864 16.5243 21.8864 16.4954 21.8864 16.4666C21.8864 16.4378 21.8864 16.4089 21.846 16.4089C21.9168 16.3335 21.9929 16.2629 22.0738 16.1976C22.1189 16.1987 22.1635 16.1887 22.2034 16.1685Z" fill="white"/>
<path d="M4.40028 21.9624C5.11114 21.8142 5.80403 21.5944 6.46731 21.3062C5.81275 20.8701 5.08652 20.5438 4.3197 20.3404V20.7534C4.3197 21.3245 4.3197 21.6101 4.37817 21.8717C4.38497 21.9021 4.39234 21.9323 4.40028 21.9624Z" fill="white"/>
<rect x="8" y="25.5" width="15.5" height="6.5" rx="1" fill="#2845C1"/>
<path d="M10 30.7789V26.6189H11.3728C12.288 26.6189 12.8466 27.0883 12.8466 27.8609C12.8466 28.6275 12.288 29.097 11.3728 29.097H10.8439V30.7789H10ZM11.4085 27.3201H10.8439V28.3958H11.4085C11.765 28.3958 11.979 28.1878 11.979 27.849C11.979 27.5341 11.765 27.3201 11.4085 27.3201Z" fill="white"/>
<path d="M13.604 30.7789V26.6189H14.8758C15.791 26.6189 16.3556 27.0883 16.3556 27.8609C16.3556 28.3661 16.1119 28.7405 15.684 28.9366L16.9855 30.7789H15.993L14.8817 29.097H14.4479V30.7789H13.604ZM14.9233 27.3201H14.4479V28.3958H14.9233C15.2799 28.3958 15.4879 28.1878 15.4879 27.849C15.4879 27.5341 15.2799 27.3201 14.9233 27.3201Z" fill="white"/>
<path d="M19.3698 26.5C20.6772 26.5 21.5746 27.5103 21.5746 28.6989C21.5746 29.8874 20.6772 30.8977 19.3698 30.8977C18.0564 30.8977 17.1591 29.8874 17.1591 28.6989C17.1591 27.5103 18.0564 26.5 19.3698 26.5ZM19.3698 30.1073C20.1483 30.1073 20.7069 29.4952 20.7069 28.6989C20.7069 27.9025 20.1483 27.2904 19.3698 27.2904C18.5853 27.2904 18.0267 27.9025 18.0267 28.6989C18.0267 29.4952 18.5853 30.1073 19.3698 30.1073Z" fill="white"/>
</svg>
