<svg width="186" height="67" viewBox="0 0 186 67" fill="none" xmlns="http://www.w3.org/2000/svg">
<path fill-rule="evenodd" clip-rule="evenodd" d="M27.3396 2.47782C28.8796 1.61156 30.7725 1.61156 32.3124 2.47782C40.2696 6.94069 48.2209 11.4364 56.1445 15.9486C57.6845 16.8258 58.6309 18.427 58.6365 20.165C58.6645 29.1455 58.6645 38.1315 58.6365 47.1121C58.6309 48.8501 57.6845 50.4565 56.1445 51.3282C48.2209 55.8459 40.2696 60.3363 32.3124 64.8046C30.7725 65.6654 28.8796 65.6654 27.3396 64.8046C19.3825 60.3363 11.4308 55.8459 3.50724 51.3282C1.97292 50.4565 1.0266 48.8501 1.021 47.1121C0.993 38.1315 0.993 29.1455 1.021 20.165C1.0266 18.427 1.97292 16.8258 3.50724 15.9486C11.4308 11.4364 19.3825 6.94069 27.3396 2.47782Z" stroke="#2845C1" stroke-width="2" stroke-miterlimit="1.5" stroke-linecap="round" stroke-linejoin="round"/>
<path d="M12.9717 28.349C12.9375 28.4488 12.9375 28.5729 12.9375 28.8208V43.5432C12.9375 44.7831 12.9375 45.4032 13.1085 45.9026C13.426 46.8298 14.1544 47.5583 15.0817 47.8757C15.5811 48.0467 16.201 48.0467 17.441 48.0467L30.0848 47.9984C30.2395 47.9984 24.7997 47.9772 30.3796 47.9772C30.4959 47.9379 30.588 47.8475 30.6295 47.7319C30.6519 47.6696 30.6533 47.5922 30.6562 47.4375C30.6562 47.4375 30.227 46.1931 29.9744 45.3721C29.6741 44.3963 29.524 43.1952 29.524 43.1952C29.2238 36.8151 33.748 33.8441 35.3243 33.056C36.6974 32.3695 41.6297 30.5791 46.4103 34.6159C46.513 34.7027 46.651 34.8596 46.716 34.8794C46.838 34.9166 46.9694 34.8627 47.0301 34.7504C47.0625 34.6907 47.0625 34.5765 47.0625 34.3482V28.6168C47.0625 28.3688 47.0625 28.2448 47.0283 28.1449C46.9648 27.9594 46.8191 27.8138 46.6337 27.7503C46.5338 27.7161 46.4098 27.7161 46.1618 27.7161L13.8382 27.9201C13.5902 27.9201 13.4662 27.9201 13.3663 27.9543C13.1809 28.0178 13.0352 28.1635 12.9717 28.349Z" fill="#2845C1"/>
<path fill-rule="evenodd" clip-rule="evenodd" d="M12.9375 21.7535C12.9375 20.5135 12.9375 19.8936 13.1085 19.3942C13.426 18.4669 14.1544 17.7385 15.0817 17.421C15.5811 17.25 16.201 17.25 17.441 17.25H42.5687C43.8087 17.25 44.4286 17.25 44.928 17.421C45.8553 17.7385 46.5837 18.4669 46.9012 19.3942C47.0722 19.8936 47.0722 20.5136 47.0722 21.7535V24.3999C47.0722 24.6479 47.0722 24.7719 47.038 24.8718C46.9745 25.0573 46.8288 25.2029 46.6434 25.2664C46.5435 25.3006 46.4195 25.3006 46.1715 25.3006H13.8382C13.5902 25.3006 13.4662 25.3006 13.3663 25.2664C13.1809 25.2029 13.0352 25.0573 12.9717 24.8718C12.9375 24.7719 12.9375 24.6479 12.9375 24.3999V21.7535ZM18.9755 21.3424C18.9755 22.2687 18.2246 23.0196 17.2983 23.0196C16.372 23.0196 15.621 22.2687 15.621 21.3424C15.621 20.4161 16.372 19.6652 17.2983 19.6652C18.2246 19.6652 18.9755 20.4161 18.9755 21.3424ZM22.6653 23.0196C23.5917 23.0196 24.3426 22.2687 24.3426 21.3424C24.3426 20.4161 23.5917 19.6652 22.6653 19.6652C21.739 19.6652 20.9881 20.4161 20.9881 21.3424C20.9881 22.2687 21.739 23.0196 22.6653 23.0196ZM29.7097 21.3424C29.7097 22.2687 28.9587 23.0196 28.0324 23.0196C27.1061 23.0196 26.3552 22.2687 26.3552 21.3424C26.3552 20.4161 27.1061 19.6652 28.0324 19.6652C28.9587 19.6652 29.7097 20.4161 29.7097 21.3424Z" fill="#FCC73B"/>
<path d="M40.2319 34.353C40.0772 34.6247 40.5666 34.97 40.9495 35.2372C41.5365 35.6486 41.7422 35.9233 41.6716 36.3467C41.6716 36.3467 41.6716 36.3467 41.6716 36.3497L41.6236 36.4698L41.508 36.7385L41.4599 36.8406L41.3848 36.9847C41.1266 37.4471 40.9915 37.7233 40.5021 37.7819C40.4826 37.7849 40.4646 37.7864 40.4465 37.7879L40.3324 37.7954H40.2063C40.1838 37.7954 40.1598 37.7954 40.1358 37.7954L39.9676 37.7879L39.5383 37.7624L39.3266 37.7549H39.2035C38.7441 37.7669 38.5249 37.866 38.4363 38.1002C38.2562 38.5776 38.3508 39.6255 38.7156 40.0473L38.7696 40.1164C38.9543 40.3776 38.9753 40.7274 38.8747 41.0787C38.7726 41.4345 38.5579 41.7453 38.3568 41.8849C38.1886 42.0005 37.9709 42.0095 37.7938 41.9089C37.6722 41.8399 37.5641 41.7378 37.4049 41.5651L37.1242 41.2514C36.7144 40.795 36.4741 40.5983 36.1919 40.5217L36.0673 40.4902L35.9217 40.4572L35.4683 40.3626L35.2131 40.3071L34.9864 40.253C34.3108 40.0849 34.0316 39.9212 33.8424 39.5264C33.7208 39.2742 33.6878 39.064 33.6803 38.6406V38.2758L33.6863 37.9305C33.6863 37.89 33.6893 37.8494 33.6953 37.8089C33.7193 37.6168 33.7478 37.4096 33.5857 37.4411C33.1158 37.5417 31.8502 38.8193 31.8262 42.2167C31.8802 46.5599 35.4172 50.0624 39.774 50.0624C39.861 50.0624 39.9481 50.0624 40.0337 50.0579C40.7843 50.0339 41.5095 49.9048 42.194 49.6871C42.3787 49.6285 42.4943 49.4469 42.4673 49.2562C42.4312 49.0085 42.3772 48.6797 42.3141 48.5116L42.2646 48.3885C42.2181 48.2774 42.143 48.1453 42.0424 47.9906L41.9313 47.8285C41.9118 47.8 41.8908 47.7714 41.8683 47.7414L41.7301 47.5583L41.574 47.3616L41.3999 47.1514L41.2077 46.9262L40.9975 46.689L40.7708 46.4383L40.5261 46.1756L40.2649 45.8993L39.9857 45.6111C39.6043 45.2193 39.5022 44.919 39.5593 44.2704L39.5818 44.0543C39.5863 44.0167 39.5908 43.9762 39.5968 43.9357L39.6479 43.5814C39.798 42.5905 40.361 42.2182 42.2991 41.9179C43.3921 41.7483 43.853 42.0335 44.4505 42.9193L44.5721 43.0949C44.8063 43.4297 44.9099 43.5033 45.3467 43.697L45.5014 43.766C45.698 43.8561 45.8647 43.9387 46.0734 44.0543C46.3481 44.2074 46.5463 44.362 46.6904 44.5482C46.8856 44.8004 47.2834 44.7418 47.3765 44.4371C47.5912 43.733 47.7098 42.9883 47.7188 42.2167C47.7113 41.6837 47.6482 41.1478 47.5266 40.6178L47.4786 40.4227C46.9081 38.2053 45.5284 36.2161 43.6773 35.2642L43.5677 35.2072C43.3275 35.0811 42.3832 34.437 40.4285 34.2238C40.4285 34.2238 40.3099 34.2133 40.2274 34.3575L40.2319 34.353Z" fill="#2845C1"/>
<path d="M78.486 43.9827C78.1945 44.2497 77.7348 44.151 77.6528 43.7643C77.5926 43.4804 77.5625 43.1492 77.5625 42.7706V29.7118C77.5625 29.3017 77.5926 28.9508 77.6528 28.659C77.7334 28.3173 78.1091 28.2355 78.3821 28.4561L86.8045 35.2631C87.1411 35.5351 87.1567 36.0428 86.8376 36.3351L78.486 43.9827ZM81.2261 46.4375C80.7531 46.4375 80.3317 46.3902 79.9619 46.2956C79.9379 46.2893 79.9142 46.2829 79.8908 46.2763C79.4465 46.152 79.3893 45.6141 79.7294 45.3023L88.4245 37.3292C88.6836 37.0917 89.0778 37.0804 89.3501 37.3027L90.7592 38.4532C91.1376 38.7528 91.5246 38.9815 91.9202 39.1392C92.3158 39.2891 92.7157 39.364 93.1199 39.364C93.5241 39.364 93.924 39.2891 94.3196 39.1392C94.7238 38.9815 95.1151 38.7528 95.4935 38.4532L96.9026 37.3027C97.1749 37.0804 97.5691 37.0917 97.8282 37.3292L106.523 45.3023C106.863 45.6141 106.806 46.1508 106.361 46.2736C106.334 46.2811 106.306 46.2884 106.278 46.2956C105.917 46.3902 105.5 46.4375 105.027 46.4375H81.2261ZM108.587 43.7643C108.507 44.1434 108.056 44.2474 107.77 43.9857L99.4151 36.3351C99.096 36.0428 99.1116 35.5351 99.4482 35.2631L107.874 28.4529C108.141 28.2379 108.508 28.326 108.587 28.659C108.656 28.9508 108.69 29.3017 108.69 29.7118V42.7706C108.69 43.1492 108.656 43.4804 108.587 43.7643Z" fill="#2845C1"/>
<path d="M83.2221 29.7155L79.3394 26.5465C78.4376 25.8105 78.4376 24.4325 79.3394 23.6965L91.5585 13.7237C92.4344 13.0088 93.6923 13.0088 94.5682 13.7237L106.787 23.6965C107.689 24.4325 107.689 25.8105 106.787 26.5465L103.031 29.6126V25.4718C103.031 24.1573 101.965 23.0918 100.651 23.0918H85.6021C84.2877 23.0918 83.2221 24.1573 83.2221 25.4718V29.7155Z" fill="#FCC73B"/>
<path fill-rule="evenodd" clip-rule="evenodd" d="M90.2615 1.64969C91.8014 0.783436 93.6944 0.783436 95.2343 1.64969C103.191 6.11257 111.143 10.6082 119.066 15.1205C120.606 15.9977 121.553 17.5988 121.558 19.3368C121.586 28.3174 121.586 37.3034 121.558 46.284C121.553 48.022 120.606 49.6284 119.066 50.5001C111.143 55.0178 103.191 59.5081 95.2343 63.9765C93.6944 64.8373 91.8014 64.8373 90.2615 63.9765C82.3043 59.5081 74.3527 55.0178 66.4291 50.5001C64.8948 49.6284 63.9485 48.022 63.9429 46.284C63.9149 37.3034 63.9149 28.3174 63.9429 19.3368C63.9485 17.5988 64.8948 15.9977 66.4291 15.1205C74.3527 10.6082 82.3043 6.11257 90.2615 1.64969Z" stroke="#2845C1" stroke-width="2" stroke-miterlimit="1.5" stroke-linecap="round" stroke-linejoin="round"/>
<path d="M169.866 25.5499H146.998C144.401 25.5499 141.789 27.5937 141.165 30.1149L139.375 37.3395V23.3205C139.375 21.8113 139.721 20.6747 140.413 19.9105C141.114 19.1368 142.086 18.75 143.328 18.75H147.094C147.556 18.75 147.955 18.7834 148.292 18.8503C148.63 18.9172 148.94 19.0318 149.224 19.1942C149.508 19.347 149.805 19.5619 150.116 19.8389L150.874 20.5123C151.247 20.8275 151.598 21.0519 151.926 21.1857C152.254 21.3194 152.658 21.3863 153.137 21.3863H165.515C166.943 21.3863 168.026 21.7827 168.762 22.5754C169.423 23.2781 169.791 24.2696 169.866 25.5499Z" fill="#FCC73B"/>
<path d="M143.741 46.0626C142.303 46.0626 141.318 45.6512 140.786 44.8283C140.251 44.0154 140.18 42.8159 140.573 41.2298L143.326 30.115C143.663 28.7522 145.075 27.6475 146.479 27.6475H171.9C173.304 27.6475 174.169 28.7522 173.831 30.115L171.078 41.2298C170.685 42.8159 170.033 44.0154 169.122 44.8283C168.208 45.6512 167.117 46.0626 165.848 46.0626H143.741Z" fill="#2845C1"/>
<path fill-rule="evenodd" clip-rule="evenodd" d="M152.931 1.64969C154.471 0.783435 156.364 0.783435 157.904 1.64969C165.861 6.11257 173.813 10.6082 181.736 15.1205C183.276 15.9977 184.223 17.5989 184.228 19.3368C184.256 28.3174 184.256 37.3034 184.228 46.284C184.223 48.022 183.276 49.6284 181.736 50.5001C173.813 55.0178 165.861 59.5082 157.904 63.9765C156.364 64.8373 154.471 64.8373 152.931 63.9765C144.974 59.5082 137.023 55.0178 129.099 50.5001C127.565 49.6284 126.618 48.022 126.613 46.284C126.585 37.3034 126.585 28.3174 126.613 19.3368C126.618 17.5989 127.565 15.9977 129.099 15.1205C137.023 10.6082 144.974 6.11257 152.931 1.64969Z" stroke="#2845C1" stroke-width="2" stroke-miterlimit="1.5" stroke-linecap="round" stroke-linejoin="round"/>
</svg>
