<svg width="81" height="81" viewBox="0 0 81 81" fill="none" xmlns="http://www.w3.org/2000/svg">
<path d="M51.8819 27.4991L30.0789 14.8818L8.27601 27.6213C8.14136 27.6981 8.0294 27.8089 7.95131 27.9427C7.87322 28.0764 7.83164 28.2284 7.83105 28.3832V53.0275C7.83963 53.1808 7.88442 53.3297 7.96178 53.4621C8.03914 53.5946 8.14674 53.7069 8.27601 53.7895L30.076 66.2948L51.879 53.6353C52.0082 53.5527 52.116 53.4406 52.1935 53.3081C52.2708 53.1757 52.3155 53.0266 52.3239 52.8734V28.2669C52.3248 28.1113 52.2842 27.9582 52.2066 27.8234C52.1289 27.6885 52.0169 27.5767 51.8819 27.4991Z" fill="#000091"/>
<path d="M22.2887 28.2262L14.976 40.7723L8.34961 27.4308L16.1873 22.9042L22.7148 27.4991L22.2887 28.2262ZM52.3248 52.917V28.2582C52.3248 28.1033 52.2835 27.9514 52.2054 27.8177C52.1272 27.6841 52.0148 27.5736 51.8798 27.4977L30.0784 14.8818" fill="#FCC63A"/>
<path d="M7.83396 52.917L30.0818 14.8818V66.3021L8.27601 53.7894C8.14674 53.7069 8.03914 53.5946 7.96178 53.4621C7.88442 53.3297 7.83963 53.1808 7.83105 53.0275V28.3832L7.83396 52.917ZM43.7054 22.766L51.6419 27.3537L45.1144 40.6588L37.2811 27.2287L43.7054 22.766Z" fill="#0063CB"/>
<path d="M58.5915 23.4356L30.6871 7.41136C30.4992 7.31776 30.2922 7.26904 30.0822 7.26904C29.8722 7.26904 29.6652 7.31776 29.4773 7.41136L1.57292 23.4356C1.40497 23.5474 1.26567 23.6972 1.16606 23.8727C1.0666 24.0482 1.00974 24.2447 1 24.4462V56.4366C1.00858 56.6395 1.06485 56.8374 1.16446 57.0142C1.26407 57.1912 1.40395 57.342 1.57292 57.4545L29.4758 73.4788C29.6637 73.5724 29.8708 73.6212 30.0807 73.6212C30.2907 73.6212 30.4978 73.5724 30.6857 73.4788L58.5915 57.4545C58.7604 57.342 58.9003 57.1912 58.9999 57.0142C59.0995 56.8374 59.1558 56.6395 59.1644 56.4366V24.4462C59.1546 24.2447 59.0978 24.0482 58.9983 23.8727C58.8987 23.6972 58.7594 23.5474 58.5915 23.4356ZM16.6884 49.2548H16.8033C16.7422 49.2548 16.6884 49.265 16.6884 49.3275C16.6884 49.4729 16.908 49.3275 16.9792 49.4729C16.6337 49.4823 16.3055 49.6265 16.0646 49.8742C16.0646 49.9484 16.21 49.9484 16.2841 49.9484C16.1751 50.0938 15.9555 50.0211 15.8814 50.168C15.9208 50.2074 15.9717 50.2328 16.0268 50.2407C15.9541 50.2407 15.8814 50.2407 15.8814 50.3148V50.5344C15.6981 50.5344 15.6254 50.6798 15.4786 50.754C15.7694 50.9735 15.9541 50.754 16.2463 50.754C15.4786 51.0448 14.8562 51.449 14.0884 51.6686C13.943 51.6686 14.0884 51.8882 13.943 51.8882C14.1626 52.0336 14.2731 51.8155 14.4912 51.8155C13.5402 52.3637 12.5529 52.8333 11.5292 53.4615C11.4504 53.54 11.3992 53.6421 11.3838 53.7523H11.093C10.9476 53.825 11.0203 54.0083 10.8734 54.1551C11.202 54.3747 11.6005 53.8643 11.8244 54.1551C11.8971 54.1551 11.679 54.2278 11.5336 54.2278C11.4609 54.2278 11.4609 54.3732 11.3882 54.3732H11.1642C11.0188 54.4823 10.8734 54.5565 10.8734 54.7746C10.8103 54.763 10.7453 54.7707 10.6866 54.7965C10.628 54.8226 10.5785 54.8656 10.5448 54.92C12.1065 54.9139 13.6547 54.6293 15.1165 54.0795C16.2503 53.5022 17.277 52.7356 18.1527 51.8126C18.1921 51.8518 18.2175 51.903 18.2254 51.958C18.0115 52.5927 17.601 53.1428 17.0534 53.5284C16.6506 53.748 16.3583 54.0766 16.0355 54.2235C15.8199 54.3442 15.6119 54.4781 15.4131 54.6248C14.4937 54.9108 13.5498 55.1115 12.5936 55.2239L12.1501 55.2879C11.8229 55.3359 11.4972 55.3882 11.1744 55.4449L8.27636 53.7901C8.17036 53.7234 8.07861 53.6362 8.00677 53.5335C7.93479 53.431 7.88419 53.3151 7.85758 53.1925C7.906 53.1666 7.95181 53.1359 7.99427 53.1009C7.94919 53.0531 7.89263 53.0176 7.82995 52.9977V52.0525C9.35372 51.7816 10.8378 51.3215 12.2475 50.6827C10.9137 49.7557 9.41464 49.0928 7.83141 48.7298V46.5269C8.63858 46.6592 9.435 46.8497 10.2147 47.0969C10.8149 47.3175 11.3909 47.5991 11.9334 47.9374C12.1466 48.1424 12.3794 48.326 12.6285 48.4856C12.804 48.5857 13 48.6443 13.2017 48.657C13.4034 48.6695 13.6052 48.6358 13.7918 48.5583H14.2717C15.3134 48.3861 16.2878 47.9308 17.0883 47.2423C17.0883 47.315 17.161 47.315 17.2337 47.315C17.1198 47.8947 16.9094 48.4511 16.6113 48.961C16.6157 49.0352 16.5415 49.1821 16.6884 49.2548ZM20.7846 54.4474C21.1496 54.302 21.3663 54.0446 21.6993 53.8992C21.6265 53.9719 21.6265 54.1188 21.5538 54.19C21.2811 54.3606 21.0241 54.5552 20.7861 54.7717C19.9635 55.4967 19.1932 56.279 18.4813 57.1128C18.1149 57.549 17.7135 57.9533 17.318 58.3561C17.1778 58.4871 17.0271 58.6063 16.8672 58.7123L13.1927 56.6039C13.7153 56.6481 14.2416 56.6222 14.7573 56.5268C15.1854 56.4068 15.6016 56.2476 16.0006 56.0513V56.1967C17.0185 55.7939 17.7921 54.8793 18.8172 54.5507C18.8536 54.5507 19.0004 54.6961 19.1458 54.6234C19.4092 54.2971 19.7441 54.0355 20.1245 53.8591C20.5048 53.6825 20.9209 53.5959 21.3401 53.6055C21.3401 53.6782 21.3401 53.7509 21.4128 53.7509H21.4491C21.2296 53.9341 20.9737 54.1159 20.7221 54.2991C20.6392 54.3747 20.7119 54.4474 20.7846 54.4474ZM7.83141 45.4843V45.2138C8.58478 45.0168 9.36186 44.9249 10.1405 44.9404C10.3707 44.9038 10.6054 44.9038 10.8356 44.9404C9.80958 44.9394 8.79185 45.1237 7.83141 45.4843ZM52.3272 52.8828C52.3187 53.036 52.2741 53.1851 52.1967 53.3176C52.1192 53.45 52.0115 53.5621 51.8822 53.6447L37.2262 62.1527C35.5435 61.6711 33.8891 61.0959 32.2706 60.4296C32.0361 59.9194 31.9086 59.3664 31.896 58.8049C31.8835 58.2435 31.9864 57.6854 32.1979 57.1651C32.3141 56.7174 32.486 56.286 32.7098 55.8812C32.7461 55.8448 32.7825 55.8085 32.7825 55.7706C32.7921 55.7706 32.8014 55.7669 32.8082 55.76C32.815 55.7532 32.8188 55.744 32.8188 55.7343C32.9804 55.4515 33.1636 55.1817 33.367 54.9273L33.3888 54.9055L33.4179 54.8749L33.4397 54.8531C33.4397 54.8168 33.4761 54.7804 33.5124 54.7426C33.5488 54.6684 33.6215 54.6321 33.6579 54.5594C33.9132 54.2892 34.1953 54.0455 34.4998 53.8323C34.8091 53.7204 35.1272 53.6343 35.4508 53.5749C36.6301 53.6618 37.8028 53.8211 38.9624 54.0519C39.1049 54.0734 39.2419 54.1227 39.3652 54.1973C39.8031 54.2827 40.2554 54.2576 40.6812 54.1246C40.9588 54.0738 41.2188 53.9529 41.4365 53.7731C41.6541 53.5934 41.8221 53.361 41.9245 53.098C42.0524 52.8636 42.1256 52.6032 42.1381 52.3365C42.1507 52.0696 42.1024 51.8035 41.9972 51.5581C41.7383 51.1568 41.9783 50.9226 42.2604 50.7002L42.3592 50.6202C42.4849 50.5312 42.5979 50.4256 42.6951 50.3061C42.8784 49.9397 42.5497 49.7245 42.4756 49.39C42.4029 49.2446 42.1469 49.3173 42.0001 49.0992C42.5119 48.8796 43.2433 48.4754 42.9147 47.853C42.6951 47.5229 42.3665 46.9369 42.7693 46.6068C43.2811 46.316 44.0126 46.3873 44.2321 45.9103C44.304 45.6332 44.3025 45.3421 44.2281 45.0655C44.1538 44.7889 44.0088 44.5365 43.8075 44.3326L43.6985 44.1756C43.5894 44.02 43.4818 43.8644 43.3917 43.7103C43.1606 43.3267 42.9041 42.9589 42.6239 42.6095C42.304 42.1567 42.0459 41.6633 41.8561 41.1423C41.6366 40.5926 41.9288 40.1157 41.9288 39.566C41.9503 38.5073 41.7895 37.4526 41.4533 36.4484C41.2701 35.9351 41.1974 35.3855 40.9778 34.9085C40.9502 34.602 40.8362 34.3096 40.6492 34.0651C40.613 33.9908 40.5942 33.9094 40.5942 33.8267C40.5942 33.7441 40.613 33.6625 40.6492 33.5882C40.9473 33.3781 41.2288 33.1453 41.4911 32.8917C41.5721 32.7138 41.5874 32.513 41.5342 32.325C41.481 32.137 41.3626 31.974 41.2003 31.8651C40.7248 31.6455 40.7641 32.342 40.4325 32.4889H40.213C40.1403 32.3057 40.2857 32.2315 40.4325 32.0861C40.4325 32.0134 40.4325 31.8665 40.3598 31.8665C40.069 31.8665 39.8116 31.7924 39.7375 31.647C39.0366 30.7736 38.0962 30.1238 37.0314 29.777C37.3048 29.861 37.5876 29.9099 37.8733 29.9224C38.3642 30.0262 38.8753 29.9755 39.3361 29.777C39.6662 29.6665 39.7389 29.0805 39.8843 28.7504C39.9139 28.5906 39.9095 28.4264 39.8717 28.2683C39.8339 28.1104 39.7634 27.962 39.6648 27.8328C39.3346 27.3528 38.8788 26.9726 38.3474 26.7335C38.0914 26.623 37.6886 26.4034 37.36 26.2202C37.2481 26.1416 37.125 26.0798 36.995 26.037C32.6836 23.8777 23.8077 25.7462 23.1315 26.037H23.1185C22.4954 26.2178 21.888 26.4488 21.3023 26.7277C20.4958 27.0271 19.7676 27.5051 19.172 28.1258C18.5766 28.7466 18.1291 29.494 17.8633 30.3121C17.033 30.8575 16.3638 31.6151 15.925 32.5063C15.3026 33.6696 14.3894 34.7006 14.5349 36.0166C14.6803 37.1508 14.9376 38.1745 15.1572 39.345C15.2196 39.7407 15.317 40.1299 15.448 40.5083C15.5934 40.9096 15.448 41.4229 15.6676 41.7516C15.7767 41.9711 15.704 42.2271 15.9977 42.3739V42.6648C16.0704 42.7375 16.0704 42.8102 16.2173 42.8102V43.101C16.8494 43.7168 17.3912 44.4188 17.827 45.1862C17.9724 45.5875 17.1319 45.4058 16.8091 45.2589C16.2049 44.8655 15.6519 44.3986 15.163 43.8688C15.123 43.9079 15.097 43.9589 15.0889 44.0142C15.3797 44.526 16.4063 45.1484 15.8566 45.477C15.5658 45.6224 15.2343 45.2574 14.942 45.5512C14.8693 45.6602 14.942 45.8071 14.942 45.9525C14.5392 45.6617 14.1015 45.8071 13.6987 45.6617C13.4079 45.589 13.3323 45.0408 13.0037 45.0408C12.1363 44.8292 11.2569 44.6704 10.3703 44.5653C9.53257 44.4396 8.68817 44.3624 7.84159 44.3341V28.3839C7.84217 28.2291 7.88376 28.0771 7.96184 27.9433C8.03993 27.8096 8.15189 27.6988 8.28654 27.622L30.0793 14.8825L51.8822 27.4998C52.0169 27.5765 52.129 27.6873 52.2071 27.8211C52.2853 27.9548 52.3267 28.1069 52.3272 28.2618V52.8828ZM40.7612 40.8704C40.7173 40.9387 40.6563 40.9946 40.5845 41.0325C40.5127 41.0705 40.4323 41.0892 40.3511 41.087C40.2054 41.2098 40.0684 41.3424 39.9411 41.484C40.0865 41.484 39.9411 41.7007 40.0865 41.7007C39.7884 42.0249 40.1984 42.7098 39.7884 42.8538C39.2517 42.9977 38.6863 42.9977 38.1496 42.8538C38.2294 42.8366 38.3109 42.8289 38.3924 42.8305H38.516C38.6072 42.8416 38.6997 42.8298 38.7852 42.7963C38.8707 42.7628 38.9466 42.7087 39.0061 42.6386V42.3478C39.0061 42.2751 38.9319 42.2751 38.8607 42.2751C38.8224 42.3159 38.7708 42.3418 38.7152 42.3478C38.7116 42.2823 38.6883 42.2195 38.6484 42.1676C38.6084 42.1157 38.5537 42.0771 38.4913 42.0569C38.2981 42.0828 38.1013 42.06 37.919 41.9906C37.7368 41.9214 37.5746 41.8077 37.4473 41.66C37.6444 41.5653 37.8678 41.5397 38.0813 41.5873C38.2674 41.5873 38.1932 41.263 38.4172 41.119H38.6411C39.0875 40.5781 39.9076 40.4341 40.0574 39.8932C40.0574 39.7478 39.6473 39.7478 39.3492 39.6766C38.9507 39.6277 38.5466 39.6524 38.1569 39.7493C37.6337 39.8215 37.1208 39.9547 36.6286 40.1462C37.0362 39.8471 37.4894 39.6159 37.9707 39.4613C38.3087 39.3312 38.6582 39.2338 39.0148 39.1705L39.2067 39.1327L39.4001 39.0935C39.6639 39.0146 39.9448 39.0146 40.2086 39.0935C40.5445 39.2389 41.1029 39.2389 41.1771 39.4541C41.3225 39.851 40.9531 40.2466 40.5445 40.5359C40.4616 40.6537 40.7612 40.7322 40.7612 40.8704Z" fill="white"/>
<path d="M41.0781 23.2385V10.3672H45.3256C46.7353 10.3672 47.8447 10.7104 48.6537 11.3969C49.475 12.0834 49.8858 13.0212 49.8858 14.2102C49.8858 15.3871 49.475 16.3187 48.6537 17.0052C47.8447 17.6916 46.7353 18.0349 45.3256 18.0349H43.6891V23.2385H41.0781ZM45.4359 12.5921H43.6891V15.8099H45.4359C45.9876 15.8099 46.4166 15.669 46.7231 15.3871C47.0417 15.1051 47.2011 14.7006 47.2011 14.1735C47.2011 13.6831 47.0417 13.297 46.7231 13.015C46.4166 12.7331 45.9876 12.5921 45.4359 12.5921Z" fill="#161616"/>
<path d="M52.2285 23.2385V10.3672H56.1635C57.5732 10.3672 58.6888 10.7104 59.5101 11.3969C60.3314 12.0834 60.742 13.0212 60.742 14.2102C60.742 14.9825 60.5582 15.6567 60.1905 16.2329C59.835 16.7967 59.3324 17.2319 58.6827 17.5384L62.7279 23.2385H59.602L56.182 18.0349H54.8397V23.2385H52.2285ZM56.3106 12.5921H54.8397V15.8099H56.3106C56.8623 15.8099 57.2913 15.669 57.5978 15.3871C57.9042 15.1051 58.0575 14.7006 58.0575 14.1735C58.0575 13.6831 57.9042 13.297 57.5978 13.015C57.2913 12.7331 56.8623 12.5921 56.3106 12.5921Z" fill="#161616"/>
<path d="M70.142 10C71.1471 10 72.0665 10.1839 72.9002 10.5516C73.746 10.9194 74.4692 11.4097 75.0699 12.0226C75.6706 12.6356 76.1363 13.3588 76.4674 14.1924C76.7984 15.0136 76.9638 15.8841 76.9638 16.8035C76.9638 17.7228 76.7984 18.5993 76.4674 19.4328C76.1363 20.2543 75.6706 20.9713 75.0699 21.5842C74.4692 22.1971 73.746 22.6876 72.9002 23.0553C72.0665 23.423 71.1471 23.6068 70.142 23.6068C69.1368 23.6068 68.2113 23.423 67.3654 23.0553C66.5196 22.6876 65.7964 22.1971 65.1957 21.5842C64.595 20.9713 64.1291 20.2543 63.7982 19.4328C63.4672 18.5993 63.3018 17.7228 63.3018 16.8035C63.3018 15.8841 63.4672 15.0136 63.7982 14.1924C64.1291 13.3588 64.595 12.6356 65.1957 12.0226C65.7964 11.4097 66.5196 10.9194 67.3654 10.5516C68.2113 10.1839 69.1368 10 70.142 10ZM70.142 21.1613C70.7426 21.1613 71.2943 21.051 71.7968 20.8304C72.3117 20.5974 72.7469 20.291 73.1025 19.9109C73.4702 19.5186 73.7583 19.059 73.9666 18.5319C74.175 17.9925 74.2793 17.4164 74.2793 16.8035C74.2793 16.1905 74.175 15.6204 73.9666 15.0933C73.7583 14.554 73.4702 14.0943 73.1025 13.7143C72.7469 13.322 72.3117 13.0156 71.7968 12.7949C71.2943 12.562 70.7426 12.4456 70.142 12.4456C69.5413 12.4456 68.9835 12.562 68.4686 12.7949C67.9539 13.0156 67.5126 13.322 67.1448 13.7143C66.7893 14.0943 66.5073 14.554 66.299 15.0933C66.0906 15.6204 65.9863 16.1905 65.9863 16.8035C65.9863 17.4164 66.0906 17.9925 66.299 18.5319C66.5073 19.059 66.7893 19.5186 67.1448 19.9109C67.5126 20.291 67.9539 20.5974 68.4686 20.8304C68.9835 21.051 69.5413 21.1613 70.142 21.1613Z" fill="#161616"/>
<path d="M51.1012 28.3794L30.4899 16.4517L9.87865 28.4948C9.75135 28.5674 9.64551 28.6722 9.57169 28.7986C9.49787 28.9251 9.45856 29.0687 9.45801 29.2151V52.5124C9.46612 52.6573 9.50846 52.7981 9.58159 52.9233C9.65472 53.0485 9.75644 53.1546 9.87865 53.2327L30.4872 65.0546L51.0984 53.087C51.2206 53.0089 51.3225 52.903 51.3957 52.7777C51.4689 52.6525 51.5111 52.5116 51.519 52.3667V29.1052C51.5199 28.9581 51.4815 28.8133 51.4081 28.6859C51.3347 28.5583 51.2289 28.4526 51.1012 28.3794Z" fill="#000091"/>
<path d="M23.1245 29.0667L16.2115 40.927L9.94727 28.3147L17.3565 24.0355L23.5273 28.3794L23.1245 29.0667ZM51.5189 52.408V29.0969C51.5189 28.9505 51.4799 28.8069 51.4061 28.6805C51.3321 28.5542 51.2259 28.4497 51.0983 28.378L30.4884 16.4517" fill="#FCC63A"/>
<path d="M9.46076 52.4079L30.4927 16.4517V65.0615L9.87865 53.2327C9.75644 53.1546 9.65472 53.0485 9.58159 52.9233C9.50846 52.7981 9.46612 52.6573 9.45801 52.5124V29.2151L9.46076 52.4079ZM43.3716 23.9049L50.8743 28.2419L44.7036 40.8198L37.2985 28.1237L43.3716 23.9049Z" fill="#0063CB"/>
<path d="M57.4437 24.5373L31.0645 9.38893C30.8869 9.30044 30.6912 9.25439 30.4927 9.25439C30.2942 9.25439 30.0984 9.30044 29.9208 9.38893L3.54161 24.5373C3.38284 24.6431 3.25115 24.7846 3.15698 24.9506C3.06296 25.1165 3.00921 25.3022 3 25.4927V55.7347C3.00811 55.9264 3.06131 56.1135 3.15547 56.2807C3.24963 56.448 3.38187 56.5905 3.54161 56.6969L29.9194 71.8454C30.0971 71.9339 30.2928 71.9799 30.4913 71.9799C30.6898 71.9799 30.8855 71.9339 31.0631 71.8454L57.4437 56.6969C57.6035 56.5905 57.7357 56.448 57.8299 56.2807C57.924 56.1135 57.9772 55.9264 57.9853 55.7347V25.4927C57.9761 25.3022 57.9224 25.1165 57.8284 24.9506C57.7342 24.7846 57.6025 24.6431 57.4437 24.5373ZM17.8309 48.9453H17.9395C17.8818 48.9453 17.8309 48.955 17.8309 49.0141C17.8309 49.1515 18.0385 49.0141 18.1058 49.1515C17.7792 49.1605 17.469 49.2967 17.2412 49.5309C17.2412 49.601 17.3787 49.601 17.4488 49.601C17.3457 49.7385 17.1381 49.6698 17.068 49.8086C17.1053 49.8459 17.1534 49.8699 17.2055 49.8773C17.1367 49.8773 17.068 49.8773 17.068 49.9474V50.155C16.8948 50.155 16.8261 50.2925 16.6872 50.3626C16.9622 50.5702 17.1367 50.3626 17.413 50.3626C16.6872 50.6375 16.0989 51.0197 15.3731 51.2272C15.2356 51.2272 15.3731 51.4348 15.2356 51.4348C15.4432 51.5723 15.5477 51.3661 15.7538 51.3661C14.8548 51.8843 13.9215 52.3283 12.9537 52.9222C12.8792 52.9964 12.8308 53.0929 12.8163 53.1971H12.5413C12.4039 53.2658 12.4726 53.439 12.3338 53.5779C12.6444 53.7854 13.0211 53.3029 13.2328 53.5779C13.3015 53.5779 13.0953 53.6466 12.9578 53.6466C12.8891 53.6466 12.8891 53.7841 12.8204 53.7841H12.6087C12.4712 53.8872 12.3338 53.9573 12.3338 54.1635C12.2741 54.1525 12.2127 54.1597 12.1571 54.1842C12.1017 54.2088 12.055 54.2495 12.0231 54.3009C13.4994 54.2951 14.963 54.0261 16.3449 53.5064C17.4167 52.9607 18.3874 52.2359 19.2152 51.3633C19.2524 51.4004 19.2765 51.4488 19.2839 51.5008C19.0817 52.1008 18.6936 52.6208 18.176 52.9854C17.7952 53.193 17.5189 53.5036 17.2137 53.6425C17.0099 53.7566 16.8133 53.8832 16.6254 54.0219C15.7562 54.2923 14.8639 54.482 13.96 54.5882L13.5407 54.6487C13.2314 54.6941 12.9235 54.7435 12.6183 54.7972L9.87867 53.2328C9.77846 53.1697 9.69172 53.0872 9.62381 52.9902C9.55576 52.8933 9.50793 52.7837 9.48277 52.6679C9.52855 52.6434 9.57185 52.6144 9.61199 52.5812C9.56937 52.536 9.5159 52.5025 9.45665 52.4837V51.5901C10.8971 51.334 12.3001 50.8991 13.6328 50.2952C12.3718 49.4189 10.9547 48.7922 9.45803 48.4491V46.3665C10.2211 46.4916 10.974 46.6717 11.7111 46.9054C12.2785 47.1139 12.823 47.3802 13.3359 47.6999C13.5374 47.8937 13.7575 48.0674 13.9929 48.2182C14.1589 48.3129 14.3442 48.3683 14.5348 48.3802C14.7255 48.3921 14.9163 48.3602 15.0927 48.2869H15.5463C16.5311 48.1241 17.4522 47.6937 18.2089 47.0429C18.2089 47.1116 18.2777 47.1116 18.3464 47.1116C18.2388 47.6596 18.0399 48.1856 17.7581 48.6677C17.7622 48.7378 17.6921 48.8766 17.8309 48.9453ZM21.7033 53.8542C22.0483 53.7167 22.2531 53.4734 22.5679 53.3359C22.4992 53.4047 22.4992 53.5435 22.4304 53.6109C22.1726 53.7721 21.9297 53.956 21.7046 54.1607C20.927 54.8461 20.1989 55.5856 19.5258 56.3739C19.1794 56.7863 18.8 57.1684 18.4261 57.5492C18.2936 57.673 18.1511 57.7858 18 57.886L14.5263 55.8927C15.0203 55.9345 15.5178 55.9101 16.0054 55.8199C16.4101 55.7065 16.8035 55.556 17.1807 55.3704V55.5078C18.143 55.1271 18.8743 54.2624 19.8434 53.9518C19.8778 53.9518 20.0166 54.0892 20.1541 54.0205C20.403 53.712 20.7196 53.4647 21.0792 53.298C21.4388 53.1311 21.8321 53.0492 22.2284 53.0582C22.2284 53.127 22.2284 53.1957 22.2971 53.1957H22.3315C22.1239 53.3689 21.882 53.5407 21.6442 53.714C21.5658 53.7854 21.6345 53.8542 21.7033 53.8542ZM9.45803 45.3809V45.1252C10.1702 44.939 10.9048 44.8521 11.6409 44.8668C11.8586 44.8322 12.0804 44.8322 12.298 44.8668C11.3281 44.8658 10.366 45.04 9.45803 45.3809ZM51.5218 52.3751C51.5138 52.5199 51.4716 52.6608 51.3985 52.7861C51.3252 52.9113 51.2234 53.0173 51.1012 53.0954L37.2462 61.1383C35.6555 60.6831 34.0915 60.1393 32.5615 59.5094C32.3398 59.027 32.2192 58.5043 32.2074 57.9735C32.1956 57.4428 32.2928 56.9152 32.4928 56.4234C32.6026 56.0001 32.7651 55.5922 32.9766 55.2095C33.011 55.1752 33.0454 55.1408 33.0454 55.1051C33.0544 55.1051 33.0632 55.1015 33.0697 55.095C33.0762 55.0886 33.0797 55.0799 33.0797 55.0707C33.2325 54.8033 33.4057 54.5484 33.598 54.3078L33.6186 54.2872L33.6461 54.2583L33.6667 54.2377C33.6667 54.2033 33.7011 54.169 33.7354 54.1332C33.7698 54.0631 33.8385 54.0287 33.8729 53.96C34.1143 53.7046 34.381 53.4742 34.6688 53.2727C34.9612 53.1668 35.262 53.0855 35.5678 53.0294C36.6826 53.1114 37.7913 53.2621 38.8876 53.4803C39.0223 53.5006 39.1518 53.5472 39.2683 53.6177C39.6822 53.6984 40.1099 53.6748 40.5124 53.549C40.7748 53.501 41.0206 53.3866 41.2264 53.2167C41.4321 53.0468 41.5909 52.8272 41.6877 52.5785C41.8087 52.3569 41.8778 52.1107 41.8896 51.8586C41.9016 51.6064 41.8559 51.3548 41.7564 51.1228C41.5117 50.7434 41.7385 50.522 42.0052 50.3117L42.0987 50.2361C42.2175 50.152 42.3243 50.0522 42.4162 49.9392C42.5894 49.5928 42.2788 49.3894 42.2087 49.0732C42.1399 48.9357 41.898 49.0045 41.7592 48.7983C42.243 48.5907 42.9345 48.2085 42.6238 47.6202C42.4162 47.3082 42.1056 46.7542 42.4863 46.4421C42.9702 46.1672 43.6617 46.2346 43.8692 45.7837C43.9371 45.5217 43.9358 45.2465 43.8654 44.985C43.7951 44.7236 43.6581 44.4849 43.4678 44.2922L43.3647 44.1437C43.2616 43.9967 43.1599 43.8496 43.0747 43.7039C42.8563 43.3412 42.6138 42.9936 42.3489 42.6633C42.0465 42.2352 41.8025 41.7688 41.6231 41.2763C41.4155 40.7567 41.6918 40.3058 41.6918 39.7862C41.7122 38.7853 41.5601 37.7883 41.2423 36.8389C41.0691 36.3537 41.0004 35.8341 40.7928 35.3832C40.7667 35.0934 40.6589 34.817 40.4821 34.5859C40.4479 34.5157 40.4302 34.4387 40.4302 34.3605C40.4302 34.2824 40.4479 34.2053 40.4821 34.135C40.7639 33.9364 41.0301 33.7163 41.278 33.4766C41.3546 33.3085 41.369 33.1186 41.3187 32.9409C41.2684 32.7632 41.1565 32.6091 41.0031 32.5061C40.5536 32.2985 40.5907 32.957 40.2773 33.0958H40.0697C40.001 32.9226 40.1385 32.8525 40.2773 32.715C40.2773 32.6463 40.2773 32.5075 40.2086 32.5075C39.9337 32.5075 39.6903 32.4374 39.6202 32.2999C38.9577 31.4743 38.0687 30.86 37.062 30.5321C37.3205 30.6116 37.5878 30.6578 37.858 30.6696C38.322 30.7677 38.8052 30.7198 39.2408 30.5321C39.5529 30.4277 39.6216 29.8737 39.7591 29.5616C39.787 29.4106 39.7829 29.2554 39.7471 29.1059C39.7114 28.9567 39.6447 28.8163 39.5515 28.6942C39.2393 28.2405 38.8085 27.881 38.3061 27.655C38.0642 27.5505 37.6834 27.343 37.3727 27.1698C37.2669 27.0954 37.1506 27.037 37.0277 26.9966C32.9519 24.9552 24.5611 26.7216 23.9219 26.9966H23.9096C23.3205 27.1674 22.7463 27.3859 22.1926 27.6495C21.4303 27.9326 20.7418 28.3844 20.1788 28.9712C19.6159 29.5581 19.1929 30.2646 18.9416 31.038C18.1567 31.5536 17.5241 32.2698 17.1092 33.1123C16.5209 34.212 15.6576 35.1866 15.7951 36.4307C15.9326 37.5029 16.1759 38.4706 16.3834 39.5772C16.4424 39.9513 16.5345 40.3192 16.6584 40.6769C16.7958 41.0563 16.6584 41.5416 16.8659 41.8522C16.969 42.0598 16.9003 42.3017 17.178 42.4406V42.7155C17.2467 42.7842 17.2467 42.853 17.3855 42.853V43.1279C17.9831 43.7101 18.4953 44.3737 18.9073 45.0991C19.0447 45.4785 18.2502 45.3067 17.945 45.1679C17.3739 44.796 16.8511 44.3546 16.3889 43.8537C16.3511 43.8907 16.3265 43.9389 16.3188 43.9912C16.5938 44.475 17.5642 45.0634 17.0446 45.374C16.7697 45.5115 16.4563 45.1665 16.18 45.4442C16.1113 45.5472 16.18 45.6861 16.18 45.8236C15.7992 45.5486 15.3854 45.6861 15.0047 45.5486C14.7297 45.4799 14.6583 44.9617 14.3476 44.9617C13.5276 44.7616 12.6963 44.6115 11.8581 44.5121C11.0662 44.3934 10.268 44.3204 9.46765 44.2936V29.2152C9.4682 29.0688 9.50752 28.9252 9.58133 28.7987C9.65515 28.6722 9.761 28.5675 9.88829 28.4949L30.4899 16.4518L51.1012 28.3795C51.2285 28.4519 51.3345 28.5566 51.4083 28.6831C51.4822 28.8096 51.5214 28.9534 51.5218 29.0998V52.3751ZM40.588 41.0192C40.5465 41.0838 40.4889 41.1366 40.421 41.1725C40.3531 41.2084 40.277 41.2261 40.2003 41.224C40.0626 41.34 39.9331 41.4654 39.8127 41.5993C39.9501 41.5993 39.8127 41.8041 39.9501 41.8041C39.6684 42.1107 40.056 42.7581 39.6684 42.8942C39.161 43.0303 38.6265 43.0303 38.1191 42.8942C38.1946 42.878 38.2716 42.8707 38.3487 42.8722H38.4655C38.5517 42.8827 38.6392 42.8715 38.72 42.8399C38.8008 42.8082 38.8726 42.757 38.9288 42.6908V42.4158C38.9288 42.3471 38.8587 42.3471 38.7913 42.3471C38.7552 42.3857 38.7064 42.4102 38.6539 42.4158C38.6504 42.354 38.6284 42.2946 38.5906 42.2455C38.5528 42.1964 38.5011 42.16 38.4422 42.1409C38.2595 42.1654 38.0735 42.1438 37.9011 42.0782C37.7289 42.0128 37.5756 41.9053 37.4552 41.7656C37.6416 41.6761 37.8527 41.652 38.0545 41.6969C38.2305 41.6969 38.1604 41.3904 38.3721 41.2543H38.5838C39.0058 40.7429 39.7811 40.6068 39.9227 40.0955C39.9227 39.958 39.535 39.958 39.2532 39.8906C38.8764 39.8444 38.4944 39.8678 38.126 39.9594C37.6314 40.0277 37.1466 40.1536 36.6813 40.3346C37.0666 40.0519 37.4951 39.8333 37.9501 39.6872C38.2695 39.5642 38.6 39.4721 38.937 39.4123L39.1185 39.3765L39.3013 39.3394C39.5507 39.2649 39.8163 39.2649 40.0656 39.3394C40.3832 39.4769 40.911 39.4769 40.9811 39.6803C41.1186 40.0556 40.7694 40.4295 40.3832 40.703C40.3048 40.8144 40.588 40.8886 40.588 41.0192Z" fill="white"/>
<path fill-rule="evenodd" clip-rule="evenodd" d="M27.9127 10.762C29.3931 9.91786 31.2129 9.91786 32.6933 10.762C40.343 15.1111 47.9871 19.4922 55.6046 23.8894C57.085 24.7442 57.9949 26.3046 58.0002 27.9982C58.0272 36.7498 58.0272 45.5067 58.0002 54.2584C57.9949 55.952 57.085 57.5175 55.6046 58.367C47.9871 62.7695 40.343 67.1454 32.6933 71.4998C31.2129 72.3386 29.3931 72.3386 27.9127 71.4998C20.263 67.1454 12.6186 62.7695 5.00118 58.367C3.52614 57.5175 2.61639 55.952 2.61101 54.2584C2.58409 45.5067 2.58409 36.7498 2.61101 27.9982C2.61639 26.3046 3.52614 24.7442 5.00118 23.8894C12.6186 19.4922 20.263 15.1111 27.9127 10.762Z" stroke="#000091" stroke-width="2" stroke-miterlimit="1.5" stroke-linecap="round" stroke-linejoin="round"/>
<path d="M75.2511 9H40.1155C38.5971 9 37.3662 10.2309 37.3662 11.7493V24.5361C37.3662 26.0545 38.5971 27.2854 40.1155 27.2854H75.2511C76.7695 27.2854 78.0004 26.0545 78.0004 24.5361V11.7493C78.0004 10.2309 76.7695 9 75.2511 9Z" fill="#FCC63A"/>
<path d="M40.8877 24.3515V12.1836H44.903C46.2357 12.1836 47.2844 12.5081 48.0493 13.157C48.8257 13.806 49.214 14.6925 49.214 15.8166C49.214 16.9291 48.8257 17.8098 48.0493 18.4588C47.2844 19.1076 46.2357 19.4322 44.903 19.4322H43.356V24.3515H40.8877ZM45.0073 14.2869H43.356V17.3289H45.0073C45.5289 17.3289 45.9344 17.1957 46.2242 16.9291C46.5253 16.6626 46.676 16.2802 46.676 15.7818C46.676 15.3183 46.5253 14.9532 46.2242 14.6867C45.9344 14.4202 45.5289 14.2869 45.0073 14.2869Z" fill="#161616"/>
<path d="M51.4287 24.3515V12.1836H55.1486C56.4813 12.1836 57.5359 12.5081 58.3123 13.157C59.0887 13.806 59.4769 14.6925 59.4769 15.8166C59.4769 16.5467 59.3032 17.184 58.9555 17.7287C58.6194 18.2617 58.1443 18.6731 57.5302 18.9629L61.3543 24.3515H58.3992L55.1661 19.4322H53.8971V24.3515H51.4287ZM55.2877 14.2869H53.8971V17.3289H55.2877C55.8093 17.3289 56.2148 17.1957 56.5045 16.9291C56.7942 16.6626 56.9391 16.2802 56.9391 15.7818C56.9391 15.3183 56.7942 14.9532 56.5045 14.6867C56.2148 14.4202 55.8093 14.2869 55.2877 14.2869Z" fill="#161616"/>
<path d="M68.3629 11.8359C69.313 11.8359 70.1822 12.0098 70.9703 12.3574C71.7699 12.7051 72.4535 13.1686 73.0214 13.748C73.5893 14.3274 74.0295 15.0112 74.3426 15.7992C74.6554 16.5756 74.8118 17.3984 74.8118 18.2676C74.8118 19.1366 74.6554 19.9653 74.3426 20.7532C74.0295 21.5297 73.5893 22.2076 73.0214 22.787C72.4535 23.3664 71.7699 23.83 70.9703 24.1777C70.1822 24.5253 69.313 24.6991 68.3629 24.6991C67.4126 24.6991 66.5377 24.5253 65.738 24.1777C64.9384 23.83 64.2548 23.3664 63.6869 22.787C63.1191 22.2076 62.6787 21.5297 62.3658 20.7532C62.0529 19.9653 61.8965 19.1366 61.8965 18.2676C61.8965 17.3984 62.0529 16.5756 62.3658 15.7992C62.6787 15.0112 63.1191 14.3274 63.6869 13.748C64.2548 13.1686 64.9384 12.7051 65.738 12.3574C66.5377 12.0098 67.4126 11.8359 68.3629 11.8359ZM68.3629 22.3872C68.9306 22.3872 69.4522 22.2829 69.9272 22.0744C70.414 21.8541 70.8254 21.5645 71.1615 21.2052C71.5092 20.8343 71.7815 20.3998 71.9785 19.9015C72.1754 19.3916 72.274 18.847 72.274 18.2676C72.274 17.688 72.1754 17.1492 71.9785 16.6509C71.7815 16.141 71.5092 15.7065 71.1615 15.3472C70.8254 14.9764 70.414 14.6867 69.9272 14.4781C69.4522 14.2579 68.9306 14.1478 68.3629 14.1478C67.795 14.1478 67.2677 14.2579 66.781 14.4781C66.2943 14.6867 65.8771 14.9764 65.5295 15.3472C65.1934 15.7065 64.9269 16.141 64.7299 16.6509C64.5329 17.1492 64.4343 17.688 64.4343 18.2676C64.4343 18.847 64.5329 19.3916 64.7299 19.9015C64.9269 20.3998 65.1934 20.8343 65.5295 21.2052C65.8771 21.5645 66.2943 21.8541 66.781 22.0744C67.2677 22.2829 67.795 22.3872 68.3629 22.3872Z" fill="#161616"/>
</svg>
