<svg width="208" height="89" viewBox="0 0 208 89" fill="none" xmlns="http://www.w3.org/2000/svg">
<path d="M27.2926 37.2663C29.637 37.2663 31.4606 36.15 32.5774 34.3635V31.1254L27.5157 31.9815C25.1709 32.391 24.2034 33.3956 24.2034 34.8101C24.2034 36.2617 25.3573 37.2663 27.2926 37.2663ZM20.3327 34.959C20.3327 32.1304 22.5287 30.0833 26.5107 29.4135L32.5774 28.4086V27.4411C32.5774 25.1338 30.8652 23.7193 28.4461 23.7193C26.399 23.7193 24.7989 24.6496 23.7197 26.1759L20.854 23.9799C22.5287 21.7468 25.2084 20.3327 28.5578 20.3327C33.6191 20.3327 36.4106 23.3102 36.4106 27.4411V39.8342H32.5774V37.7129C31.2375 39.3505 28.8927 40.3922 26.5854 40.3922C22.8635 40.3922 20.3327 38.2709 20.3327 34.959Z" fill="#2B3E88"/>
<path d="M38.4949 21.0771H42.328V22.9007C43.7421 21.4119 45.6032 20.3327 48.283 20.3327C52.4139 20.3327 55.5773 23.1238 55.5773 28.5574V39.8342H51.7066V28.7063C51.7066 25.7292 50.069 23.9428 47.3897 23.9428C44.8218 23.9428 43.2959 25.5428 42.328 27.1804V39.8342H38.4949V21.0771Z" fill="#2B3E88"/>
<path d="M35.848 58.3212L38.936 60.6848C37.1825 63.048 34.3614 64.573 30.8164 64.573C24.374 64.573 20.3327 59.8078 20.3327 54.204C20.3327 48.6002 24.374 43.835 30.8164 43.835C34.3234 43.835 37.1825 45.3601 38.936 47.7237L35.848 50.0869C34.7809 48.6002 33.0274 47.5331 30.8164 47.5331C27.1183 47.5331 24.4499 50.4301 24.4499 54.204C24.4499 58.0163 27.1183 60.8754 30.8543 60.8754C33.0274 60.8754 34.7809 59.8078 35.848 58.3212Z" fill="#2B3E88"/>
<path d="M44.9947 48.5323H40.8305V45.0716H44.9947V40.3818H48.8654V45.0716H55.5772V48.5323H48.8654V57.3158C48.8654 59.8462 50.2053 60.6653 52.2891 60.6653C53.5547 60.6653 54.9075 60.5164 55.5772 60.2558V63.6427C54.684 64.0147 53.1452 64.2007 51.694 64.2007C47.3021 64.2007 44.9947 61.8934 44.9947 57.3158V48.5323Z" fill="#2B3E88"/>
<path d="M58.1807 17.7565V20.3328H61.9101V16.7185C61.9101 15.4141 60.7504 14.0843 59.4489 14H55.5773V17.5968L58.1807 17.7565Z" fill="#2B3E88"/>
<path d="M61.6034 70.5763V55H65.3327V71.6143C65.3327 72.9187 64.173 74.2485 62.8715 74.3328H46V70.736L61.6034 70.5763Z" fill="#62AA9C"/>
<path d="M17.7293 67.2436V64.6673H14V68.2815C14 69.5859 15.1597 70.9158 16.4612 71H20.3327V67.4033L17.7293 67.2436Z" fill="#5C6ABC"/>
<path d="M17.7293 17.7565V20.3328H14V16.7185C14 15.4141 15.1597 14.0843 16.4612 14H20.3327V17.5968L17.7293 17.7565Z" fill="#298472"/>
<path d="M74.9607 33.1044C75.9147 33.1044 76.7427 32.2584 76.7427 31.2864C76.7427 30.3144 75.9147 29.4864 74.9607 29.4864C73.9707 29.4864 73.1427 30.3144 73.1427 31.2864C73.1427 32.2584 73.9707 33.1044 74.9607 33.1044ZM73.5027 43.1664H76.3647V34.0944H73.5027V43.1664ZM78.5259 43.1664H81.3879V37.5144C81.5679 37.2084 82.0179 36.4164 83.0259 36.4164C83.9439 36.4164 84.4299 37.0464 84.4299 37.9644V43.1664H87.3099V37.8384C87.3099 35.0844 85.7259 33.7344 83.7999 33.7344C82.7379 33.7344 81.9819 34.0944 81.3879 34.5984V34.0944H78.5259V43.1664ZM93.9029 40.8444C92.6789 40.8444 91.8149 39.9804 91.8149 38.6304C91.8149 37.2984 92.6789 36.4164 93.8489 36.4164C94.6409 36.4164 95.1989 36.7764 95.5229 37.2444L97.7549 35.5524C96.9089 34.4364 95.5589 33.7344 93.8849 33.7344C90.6809 33.7344 88.8449 35.9844 88.8449 38.6304C88.8449 41.2764 90.6809 43.5264 93.8849 43.5264C95.5589 43.5264 96.9089 42.8244 97.7549 41.7084L95.5229 40.0164C95.1989 40.4844 94.6229 40.8444 93.9029 40.8444ZM104.72 39.2244C104.72 40.1784 104.234 40.8444 103.208 40.8444C102.146 40.8444 101.678 40.1784 101.678 39.2244V34.0944H98.7984V39.0624C98.7984 41.7804 100.364 43.5264 103.19 43.5264C105.98 43.5264 107.6 41.7804 107.6 39.0624V34.0944H104.72V39.2244ZM119.528 38.6304C119.528 35.9844 117.854 33.7344 114.956 33.7344C113.84 33.7344 113.048 34.0404 112.436 34.5984V29.6664H109.574V43.1664H112.436V42.6624C113.048 43.2204 113.84 43.5264 114.956 43.5264C117.854 43.5264 119.528 41.2764 119.528 38.6304ZM114.542 36.4164C115.802 36.4164 116.576 37.2984 116.576 38.6304C116.576 39.9624 115.802 40.8444 114.542 40.8444C113.66 40.8444 112.976 40.4664 112.436 39.7824V37.4784C112.922 36.8124 113.624 36.4164 114.542 36.4164ZM123.764 43.4364C124.718 43.4364 125.744 43.0404 126.248 42.4824V43.1664H129.092V37.4424C129.092 35.4624 127.76 33.7344 124.88 33.7344C123.188 33.7344 121.802 34.4184 120.974 35.5704L123.062 37.1544C123.476 36.5604 124.034 36.2004 124.79 36.2004C125.636 36.2004 126.23 36.7224 126.248 37.4064L123.692 37.8384C121.712 38.1624 120.65 39.2244 120.65 40.6104C120.65 42.3744 121.928 43.4364 123.764 43.4364ZM123.476 40.4664C123.476 40.0524 123.728 39.7824 124.466 39.6564L126.248 39.3504V40.2504C125.888 40.7904 125.312 41.2224 124.394 41.2224C123.836 41.2224 123.476 40.9344 123.476 40.4664ZM131.799 39.6384C131.799 41.8704 132.825 43.3464 135.291 43.3464C136.137 43.3464 136.695 43.2384 137.181 43.0224V40.5564C136.911 40.6644 136.479 40.7544 135.813 40.7544C135.057 40.7544 134.679 40.3584 134.679 39.6384V36.6504H137.163V34.0944H134.679V31.8264H131.799V34.0944H130.107V36.6504H131.799V39.6384ZM147.204 41.7084L145.188 40.1064C144.774 40.6284 144.018 40.9704 143.154 40.9704C142.074 40.9704 141.282 40.6464 141.012 39.4224H146.88C146.97 39.0984 147.06 38.5224 147.06 37.9104C147.06 35.4444 145.368 33.7344 142.794 33.7344C139.716 33.7344 138.078 36.0024 138.078 38.6304C138.078 41.2764 139.842 43.5264 143.172 43.5264C144.918 43.5264 146.34 42.8424 147.204 41.7084ZM142.722 36.0384C143.784 36.0384 144.252 36.7944 144.288 37.4064H141.03C141.246 36.4884 141.804 36.0384 142.722 36.0384ZM154.481 39.2244C154.481 40.1784 153.995 40.8444 152.969 40.8444C151.907 40.8444 151.439 40.1784 151.439 39.2244V34.0944H148.559V39.0624C148.559 41.7804 150.125 43.5264 152.951 43.5264C155.741 43.5264 157.361 41.7804 157.361 39.0624V34.0944H154.481V39.2244ZM159.334 43.1664H162.196V37.6584C162.376 37.3524 163.06 36.7404 164.104 36.7404C164.572 36.7404 164.914 36.7944 165.22 36.8664V34.0404C165.004 33.9684 164.716 33.9144 164.392 33.9144C163.456 33.9144 162.754 34.3104 162.196 34.8324V34.0944H159.334V43.1664ZM72.9627 55.6304C72.9627 58.2764 74.6547 60.5264 77.5347 60.5264C78.6507 60.5264 79.4247 60.2204 80.0367 59.6804V60.1664H82.9167V46.6664H80.0367V51.5804C79.4247 51.0404 78.6507 50.7344 77.5347 50.7344C74.6547 50.7344 72.9627 52.9844 72.9627 55.6304ZM75.9327 55.6304C75.9327 54.2984 76.6887 53.4164 77.9487 53.4164C78.8307 53.4164 79.5147 53.7764 80.0367 54.4604V56.8004C79.5147 57.4844 78.8307 57.8444 77.9487 57.8444C76.6887 57.8444 75.9327 56.9624 75.9327 55.6304ZM93.6685 58.7084L91.6525 57.1064C91.2385 57.6284 90.4825 57.9704 89.6185 57.9704C88.5385 57.9704 87.7465 57.6464 87.4765 56.4224H93.3445C93.4345 56.0984 93.5245 55.5224 93.5245 54.9104C93.5245 52.4444 91.8325 50.7344 89.2585 50.7344C86.1805 50.7344 84.5425 53.0024 84.5425 55.6304C84.5425 58.2764 86.3065 60.5264 89.6365 60.5264C91.3825 60.5264 92.8045 59.8424 93.6685 58.7084ZM89.1865 53.0384C90.2485 53.0384 90.7165 53.7944 90.7525 54.4064H87.4945C87.7105 53.4884 88.2685 53.0384 89.1865 53.0384ZM94.4494 58.7984C95.3674 59.8424 96.5194 60.5264 98.2654 60.5264C100.011 60.5264 101.685 59.4824 101.721 57.4304C101.721 54.2624 97.5274 54.7304 97.5274 53.5604C97.5274 53.2544 97.7614 53.0024 98.2654 53.0024C98.9134 53.0024 99.4534 53.4884 99.8854 53.9924L101.757 52.3184C101.073 51.4364 99.7054 50.7344 98.2654 50.7344C96.2674 50.7344 94.8094 51.9764 94.8094 53.7044C94.8094 56.8904 99.0034 56.3864 99.0034 57.6284C99.0034 57.9884 98.7514 58.2584 98.2294 58.2584C97.4194 58.2584 96.8074 57.7184 96.3214 57.0884L94.4494 58.7984ZM108.639 56.6384C108.639 58.8704 109.665 60.3464 112.131 60.3464C112.977 60.3464 113.535 60.2384 114.021 60.0224V57.5564C113.751 57.6644 113.319 57.7544 112.653 57.7544C111.897 57.7544 111.519 57.3584 111.519 56.6384V53.6504H114.003V51.0944H111.519V48.8264H108.639V51.0944H106.947V53.6504H108.639V56.6384ZM124.044 58.7084L122.028 57.1064C121.614 57.6284 120.858 57.9704 119.994 57.9704C118.914 57.9704 118.122 57.6464 117.852 56.4224H123.72C123.81 56.0984 123.9 55.5224 123.9 54.9104C123.9 52.4444 122.208 50.7344 119.634 50.7344C116.556 50.7344 114.918 53.0024 114.918 55.6304C114.918 58.2764 116.682 60.5264 120.012 60.5264C121.758 60.5264 123.18 59.8424 124.044 58.7084ZM119.562 53.0384C120.624 53.0384 121.092 53.7944 121.128 54.4064H117.87C118.086 53.4884 118.644 53.0384 119.562 53.0384ZM125.667 60.1664H128.529V54.6584C128.709 54.3524 129.393 53.7404 130.437 53.7404C130.905 53.7404 131.247 53.7944 131.553 53.8664V51.0404C131.337 50.9684 131.049 50.9144 130.725 50.9144C129.789 50.9144 129.087 51.3104 128.529 51.8324V51.0944H125.667V60.1664ZM132.905 60.1664H135.767V54.6584C135.947 54.3524 136.631 53.7404 137.675 53.7404C138.143 53.7404 138.485 53.7944 138.791 53.8664V51.0404C138.575 50.9684 138.287 50.9144 137.963 50.9144C137.027 50.9144 136.325 51.3104 135.767 51.8324V51.0944H132.905V60.1664ZM141.601 50.1044C142.555 50.1044 143.383 49.2584 143.383 48.2864C143.383 47.3144 142.555 46.4864 141.601 46.4864C140.611 46.4864 139.783 47.3144 139.783 48.2864C139.783 49.2584 140.611 50.1044 141.601 50.1044ZM140.143 60.1664H143.005V51.0944H140.143V60.1664ZM145.796 56.6384C145.796 58.8704 146.822 60.3464 149.288 60.3464C150.134 60.3464 150.692 60.2384 151.178 60.0224V57.5564C150.908 57.6644 150.476 57.7544 149.81 57.7544C149.054 57.7544 148.676 57.3584 148.676 56.6384V53.6504H151.16V51.0944H148.676V48.8264H145.796V51.0944H144.104V53.6504H145.796V56.6384ZM157.097 50.7344C154.109 50.7344 152.075 52.8584 152.075 55.6304C152.075 58.4024 154.109 60.5264 157.097 60.5264C160.067 60.5264 162.101 58.4024 162.101 55.6304C162.101 52.8584 160.067 50.7344 157.097 50.7344ZM157.115 57.8444C155.927 57.8444 155.045 56.9804 155.045 55.6304C155.045 54.2804 155.927 53.4164 157.115 53.4164C158.267 53.4164 159.149 54.2624 159.149 55.6304C159.149 56.9624 158.267 57.8444 157.115 57.8444ZM165.178 50.1044C166.132 50.1044 166.96 49.2584 166.96 48.2864C166.96 47.3144 166.132 46.4864 165.178 46.4864C164.188 46.4864 163.36 47.3144 163.36 48.2864C163.36 49.2584 164.188 50.1044 165.178 50.1044ZM163.72 60.1664H166.582V51.0944H163.72V60.1664ZM168.743 60.1664H171.605V54.6584C171.785 54.3524 172.469 53.7404 173.513 53.7404C173.981 53.7404 174.323 53.7944 174.629 53.8664V51.0404C174.413 50.9684 174.125 50.9144 173.801 50.9144C172.865 50.9144 172.163 51.3104 171.605 51.8324V51.0944H168.743V60.1664ZM184.303 58.7084L182.287 57.1064C181.873 57.6284 181.117 57.9704 180.253 57.9704C179.173 57.9704 178.381 57.6464 178.111 56.4224H183.979C184.069 56.0984 184.159 55.5224 184.159 54.9104C184.159 52.4444 182.467 50.7344 179.893 50.7344C176.815 50.7344 175.177 53.0024 175.177 55.6304C175.177 58.2764 176.941 60.5264 180.271 60.5264C182.017 60.5264 183.439 59.8424 184.303 58.7084ZM179.821 53.0384C180.883 53.0384 181.351 53.7944 181.387 54.4064H178.129C178.345 53.4884 178.903 53.0384 179.821 53.0384ZM185.084 58.7984C186.002 59.8424 187.154 60.5264 188.9 60.5264C190.646 60.5264 192.32 59.4824 192.356 57.4304C192.356 54.2624 188.162 54.7304 188.162 53.5604C188.162 53.2544 188.396 53.0024 188.9 53.0024C189.548 53.0024 190.088 53.4884 190.52 53.9924L192.392 52.3184C191.708 51.4364 190.34 50.7344 188.9 50.7344C186.902 50.7344 185.444 51.9764 185.444 53.7044C185.444 56.8904 189.638 56.3864 189.638 57.6284C189.638 57.9884 189.386 58.2584 188.864 58.2584C188.054 58.2584 187.442 57.7184 186.956 57.0884L185.084 58.7984Z" fill="#62AA9C"/>
</svg>
