<svg width="126" height="50" viewBox="0 0 126 50" fill="none" xmlns="http://www.w3.org/2000/svg">
<path d="M82.6508 0.303223H89.9786V7.6068H82.6508V0.303223Z" fill="#E1000F"/>
<path d="M82.6508 0.303223H89.9786V7.6068H82.6508V0.303223Z" fill="url(#paint0_linear_1466_98330)" fill-opacity="0.44"/>
<path d="M43.1488 16.4851C45.062 16.4851 46.6485 17.1778 48.3183 18.114L51.4536 13.6357C49.4179 12.2927 46.7301 10.9905 42.8628 10.9905C42.2486 10.9905 41.6488 11.0248 41.069 11.0934V17.186C41.2487 16.6828 42.1308 16.4851 43.1488 16.4851Z" fill="#E1000F"/>
<path d="M43.1488 16.4851C45.062 16.4851 46.6485 17.1778 48.3183 18.114L51.4536 13.6357C49.4179 12.2927 46.7301 10.9905 42.8628 10.9905C42.2486 10.9905 41.6488 11.0248 41.069 11.0934V17.186C41.2487 16.6828 42.1308 16.4851 43.1488 16.4851Z" fill="url(#paint1_linear_1466_98330)" fill-opacity="0.44"/>
<path d="M77.7008 12.3665H70.373V33.1278H77.7008V12.3665Z" fill="#E1000F"/>
<path d="M77.7008 12.3665H70.373V33.1278H77.7008V12.3665Z" fill="url(#paint2_linear_1466_98330)" fill-opacity="0.44"/>
<path d="M43.8206 19.3394C42.2568 19.0421 41.1147 18.7741 40.9287 18.1712V25.262C41.0953 25.298 41.2603 25.3323 41.4204 25.365C42.9479 25.677 44.0541 25.9335 44.3482 26.4809C44.3988 26.5756 44.4316 26.6754 44.4316 26.7898C44.4316 27.4808 43.4546 27.8484 41.948 27.8484C41.597 27.8484 41.2603 27.8206 40.9287 27.7831V33.2892C41.3501 33.3236 41.783 33.343 42.234 33.343C47.526 33.343 51.6368 30.8596 51.6368 26.097C51.6368 20.9684 46.9966 19.9505 43.8206 19.3394Z" fill="#E1000F"/>
<path d="M43.8206 19.3394C42.2568 19.0421 41.1147 18.7741 40.9287 18.1712V25.262C41.0953 25.298 41.2603 25.3323 41.4204 25.365C42.9479 25.677 44.0541 25.9335 44.3482 26.4809C44.3988 26.5756 44.4316 26.6754 44.4316 26.7898C44.4316 27.4808 43.4546 27.8484 41.948 27.8484C41.597 27.8484 41.2603 27.8206 40.9287 27.7831V33.2892C41.3501 33.3236 41.783 33.343 42.234 33.343C47.526 33.343 51.6368 30.8596 51.6368 26.097C51.6368 20.9684 46.9966 19.9505 43.8206 19.3394Z" fill="url(#paint3_linear_1466_98330)" fill-opacity="0.44"/>
<path d="M115.63 27.1543C114.184 27.1543 113.019 26.5954 112.253 25.6201V32.9527C113.256 33.1996 114.315 33.3415 115.426 33.3415C119.13 33.3415 122.387 31.9168 124.626 29.597L119.823 25.3636C119.05 26.1772 117.543 27.1543 115.63 27.1543Z" fill="#E1000F"/>
<path d="M115.63 27.1543C114.184 27.1543 113.019 26.5954 112.253 25.6201V32.9527C113.256 33.1996 114.315 33.3415 115.426 33.3415C119.13 33.3415 122.387 31.9168 124.626 29.597L119.823 25.3636C119.05 26.1772 117.543 27.1543 115.63 27.1543Z" fill="url(#paint4_linear_1466_98330)" fill-opacity="0.44"/>
<path d="M112.253 12.2945C113.097 12.1098 113.978 12.002 114.897 12.002C121.165 12.002 125.889 16.6437 125.889 23.0337C125.889 23.6039 125.848 24.4192 125.726 24.9469H112.253V20.7545H118.073C117.543 19.1255 116.28 18.1893 114.815 18.1893C113.771 18.1893 112.89 18.6681 112.253 19.485V12.2945Z" fill="#E1000F"/>
<path d="M112.253 12.2945C113.097 12.1098 113.978 12.002 114.897 12.002C121.165 12.002 125.889 16.6437 125.889 23.0337C125.889 23.6039 125.848 24.4192 125.726 24.9469H112.253V20.7545H118.073C117.543 19.1255 116.28 18.1893 114.815 18.1893C113.771 18.1893 112.89 18.6681 112.253 19.485V12.2945Z" fill="url(#paint5_linear_1466_98330)" fill-opacity="0.44"/>
<path d="M89.9786 12.3665H82.6508V33.1278H89.9786V12.3665Z" fill="#E1000F"/>
<path d="M89.9786 12.3665H82.6508V33.1278H89.9786V12.3665Z" fill="url(#paint6_linear_1466_98330)" fill-opacity="0.44"/>
<path d="M102.381 7.60662H95.0536V12.4918H95.0111V19.1677H95.0536V25.8027C95.0536 30.3218 97.4146 33.7415 103.033 33.7415C104.662 33.7415 105.964 33.4556 107.226 32.8036V25.9661C106.492 26.332 105.598 26.6573 104.62 26.6573C103.074 26.6573 102.381 25.8027 102.381 24.5806V19.1677H107.226V12.4918H102.381V7.60662Z" fill="#E1000F"/>
<path d="M102.381 7.60662H95.0536V12.4918H95.0111V19.1677H95.0536V25.8027C95.0536 30.3218 97.4146 33.7415 103.033 33.7415C104.662 33.7415 105.964 33.4556 107.226 32.8036V25.9661C106.492 26.332 105.598 26.6573 104.62 26.6573C103.074 26.6573 102.381 25.8027 102.381 24.5806V19.1677H107.226V12.4918H102.381V7.60662Z" fill="url(#paint7_linear_1466_98330)" fill-opacity="0.44"/>
<path d="M63.2078 23.4916C63.2078 25.1597 64.3071 26.2593 65.9346 26.2593C66.7972 26.2593 67.5046 25.9439 67.985 25.4064V33.1967C67.3314 33.2896 66.6485 33.3436 65.9346 33.3436C59.8696 33.3436 55.8797 29.8423 55.8797 24.5094V12.0939H63.2078V23.4916Z" fill="#E1000F"/>
<path d="M63.2078 23.4916C63.2078 25.1597 64.3071 26.2593 65.9346 26.2593C66.7972 26.2593 67.5046 25.9439 67.985 25.4064V33.1967C67.3314 33.2896 66.6485 33.3436 65.9346 33.3436C59.8696 33.3436 55.8797 29.8423 55.8797 24.5094V12.0939H63.2078V23.4916Z" fill="url(#paint8_linear_1466_98330)" fill-opacity="0.44"/>
<path d="M7.3278 32.8558L7.30817 3.54639H0V32.8558H7.3278Z" fill="#000091"/>
<path d="M7.3278 32.8558L7.30817 3.54639H0V32.8558H7.3278Z" fill="url(#paint9_linear_1466_98330)" fill-opacity="0.44"/>
<path d="M10.922 22.4761C10.922 28.6634 15.1144 33.3443 20.7332 33.3443C20.9865 33.3443 21.2364 33.3346 21.4815 33.3149V26.1964C19.699 25.8778 18.4524 24.386 18.4524 22.4761C18.4524 20.5661 19.699 19.0728 21.4815 18.7542V11.6372C21.2364 11.616 20.9865 11.6062 20.7332 11.6062C15.1144 11.6062 10.922 16.2887 10.922 22.4761Z" fill="#000091"/>
<path d="M10.922 22.4761C10.922 28.6634 15.1144 33.3443 20.7332 33.3443C20.9865 33.3443 21.2364 33.3346 21.4815 33.3149V26.1964C19.699 25.8778 18.4524 24.386 18.4524 22.4761C18.4524 20.5661 19.699 19.0728 21.4815 18.7542V11.6372C21.2364 11.616 20.9865 11.6062 20.7332 11.6062C15.1144 11.6062 10.922 16.2887 10.922 22.4761Z" fill="url(#paint10_linear_1466_98330)" fill-opacity="0.44"/>
<path d="M31.3614 11.6062H24.0335V33.1281H31.3614V11.6062Z" fill="#000091"/>
<path d="M31.3614 11.6062H24.0335V33.1281H31.3614V11.6062Z" fill="url(#paint11_linear_1466_98330)" fill-opacity="0.44"/>
<path d="M84.3598 48.0249C83.5895 49.0573 82.3277 49.6964 80.7873 49.6964C77.9359 49.6964 76.248 47.648 76.248 45.2391C76.248 42.7646 77.8212 40.7817 80.4432 40.7817C82.721 40.7817 84.1959 42.3385 84.1959 44.4361C84.1959 44.813 84.1467 45.1899 84.0812 45.4357H77.9851C78.0998 47.2383 79.1978 48.1724 80.7873 48.1724C81.7869 48.1724 82.6227 47.7299 83.1307 47.0417L84.3598 48.0249ZM80.4104 42.191C79.1814 42.191 78.3292 42.8957 78.067 44.1739H82.508C82.4752 43.1415 81.7378 42.191 80.4104 42.191Z" fill="#000091"/>
<path d="M72.4561 49.3686V37.0781H74.1439V49.3686H72.4561Z" fill="#000091"/>
<path d="M65.4835 49.6145C63.8448 49.6145 62.7305 48.6804 62.7305 47.2219C62.7305 45.9765 63.6973 45.0752 65.4508 44.7802L68.1219 44.3378V43.9117C68.1219 42.8957 67.3681 42.273 66.3029 42.273C65.4016 42.273 64.6969 42.6827 64.2217 43.3545L62.9599 42.3877C63.6973 41.4045 64.8772 40.7817 66.3521 40.7817C68.5807 40.7817 69.8098 42.0927 69.8098 43.9117V49.3687H68.1219V48.4346C67.5319 49.1556 66.4995 49.6145 65.4835 49.6145ZM64.4347 47.1564C64.4347 47.7955 64.9428 48.238 65.7949 48.238C66.8273 48.238 67.6303 47.7463 68.1219 46.9597V45.5341L65.8932 45.911C64.8608 46.0912 64.4347 46.5337 64.4347 47.1564Z" fill="#000091"/>
<path d="M59.61 39.2737C58.9873 39.2737 58.4629 38.7493 58.4629 38.1266C58.4629 37.5039 58.9873 36.9795 59.61 36.9795C60.2327 36.9795 60.7571 37.5039 60.7571 38.1266C60.7571 38.7493 60.2327 39.2737 59.61 39.2737ZM58.7579 49.3683V41.1091H60.4458V49.3683H58.7579Z" fill="#000091"/>
<path d="M52.1797 49.3689V41.1097H53.8676V42.0437C54.4411 41.4046 55.1622 40.9458 56.1782 40.9458C56.4404 40.9458 56.6862 40.995 56.8992 41.0605V42.7156C56.637 42.6501 56.3748 42.6009 56.0307 42.6009C54.9819 42.6009 54.2936 43.1581 53.8676 43.8627V49.3689H52.1797Z" fill="#000091"/>
<path d="M45.58 40.7817C48.2675 40.7817 50.0701 42.7974 50.0701 45.2391C50.0701 47.6808 48.2675 49.6964 45.58 49.6964C42.9088 49.6964 41.0898 47.6808 41.0898 45.2391C41.0898 42.7974 42.9088 40.7817 45.58 40.7817ZM45.5963 48.1069C47.1531 48.1069 48.3003 46.8123 48.3003 45.2391C48.3003 43.6331 47.1531 42.3713 45.5963 42.3713C44.0068 42.3713 42.8597 43.6495 42.8597 45.2391C42.8597 46.8286 44.0068 48.1069 45.5963 48.1069Z" fill="#000091"/>
<path d="M35.4513 46.5006V42.6333H33.8945V41.1092H35.4513V39.0444H37.1556V41.1092H39.8923V42.6333H37.1556V46.5006C37.1556 47.615 37.7455 47.9755 38.6632 47.9755C39.2204 47.9755 39.5973 47.91 39.8923 47.7952V49.2865C39.499 49.4504 39.0401 49.5323 38.401 49.5323C36.4673 49.5323 35.4513 48.5163 35.4513 46.5006Z" fill="#000091"/>
<path d="M31.3639 39.2737C30.7412 39.2737 30.2168 38.7493 30.2168 38.1266C30.2168 37.5039 30.7412 36.9795 31.3639 36.9795C31.9866 36.9795 32.511 37.5039 32.511 38.1266C32.511 38.7493 31.9866 39.2737 31.3639 39.2737ZM30.5118 49.3683V41.1091H32.1997V49.3683H30.5118Z" fill="#000091"/>
<path d="M23.9346 49.3689V41.1097H25.6225V42.0437C26.196 41.4046 26.9171 40.9458 27.9331 40.9458C28.1953 40.9458 28.4411 40.995 28.6541 41.0605V42.7156C28.3919 42.6501 28.1297 42.6009 27.7856 42.6009C26.7368 42.6009 26.0485 43.1581 25.6225 43.8627V49.3689H23.9346Z" fill="#000091"/>
<path d="M17.3564 49.3689V41.1097H19.0443V42.0437C19.6179 41.4046 20.3389 40.9458 21.3549 40.9458C21.6171 40.9458 21.8629 40.995 22.076 41.0605V42.7156C21.8138 42.6501 21.5516 42.6009 21.2075 42.6009C20.1587 42.6009 19.4704 43.1581 19.0443 43.8627V49.3689H17.3564Z" fill="#000091"/>
<path d="M15.308 48.0249C14.5378 49.0573 13.276 49.6964 11.7356 49.6964C8.88418 49.6964 7.19629 47.648 7.19629 45.2391C7.19629 42.7646 8.76947 40.7817 11.3914 40.7817C13.6693 40.7817 15.1441 42.3385 15.1441 44.4361C15.1441 44.813 15.095 45.1899 15.0294 45.4357H8.93334C9.04805 47.2383 10.146 48.1724 11.7356 48.1724C12.7352 48.1724 13.5709 47.7299 14.0789 47.0417L15.308 48.0249ZM11.3587 42.191C10.1296 42.191 9.27747 42.8957 9.01528 44.1739H13.4562C13.4235 43.1415 12.686 42.191 11.3587 42.191Z" fill="#000091"/>
<path d="M1.55679 46.5006V42.6333H0V41.1092H1.55679V39.0444H3.26107V41.1092H5.99775V42.6333H3.26107V46.5006C3.26107 47.615 3.85101 47.9755 4.7687 47.9755C5.32587 47.9755 5.70278 47.91 5.99775 47.7952V49.2865C5.60445 49.4504 5.14561 49.5323 4.5065 49.5323C2.5728 49.5323 1.55679 48.5163 1.55679 46.5006Z" fill="#000091"/>
<defs>
<linearGradient id="paint0_linear_1466_98330" x1="90.0888" y1="100.595" x2="35.8181" y2="10.8798" gradientUnits="userSpaceOnUse">
<stop stop-color="#2C2C38"/>
<stop offset="1" stop-color="#9B9AF3" stop-opacity="0"/>
</linearGradient>
<linearGradient id="paint1_linear_1466_98330" x1="90.0888" y1="100.595" x2="35.8181" y2="10.8798" gradientUnits="userSpaceOnUse">
<stop stop-color="#2C2C38"/>
<stop offset="1" stop-color="#9B9AF3" stop-opacity="0"/>
</linearGradient>
<linearGradient id="paint2_linear_1466_98330" x1="90.0888" y1="100.595" x2="35.8181" y2="10.8798" gradientUnits="userSpaceOnUse">
<stop stop-color="#2C2C38"/>
<stop offset="1" stop-color="#9B9AF3" stop-opacity="0"/>
</linearGradient>
<linearGradient id="paint3_linear_1466_98330" x1="90.0888" y1="100.595" x2="35.8181" y2="10.8798" gradientUnits="userSpaceOnUse">
<stop stop-color="#2C2C38"/>
<stop offset="1" stop-color="#9B9AF3" stop-opacity="0"/>
</linearGradient>
<linearGradient id="paint4_linear_1466_98330" x1="90.0888" y1="100.595" x2="35.8181" y2="10.8798" gradientUnits="userSpaceOnUse">
<stop stop-color="#2C2C38"/>
<stop offset="1" stop-color="#9B9AF3" stop-opacity="0"/>
</linearGradient>
<linearGradient id="paint5_linear_1466_98330" x1="90.0888" y1="100.595" x2="35.8181" y2="10.8798" gradientUnits="userSpaceOnUse">
<stop stop-color="#2C2C38"/>
<stop offset="1" stop-color="#9B9AF3" stop-opacity="0"/>
</linearGradient>
<linearGradient id="paint6_linear_1466_98330" x1="90.0888" y1="100.595" x2="35.8181" y2="10.8798" gradientUnits="userSpaceOnUse">
<stop stop-color="#2C2C38"/>
<stop offset="1" stop-color="#9B9AF3" stop-opacity="0"/>
</linearGradient>
<linearGradient id="paint7_linear_1466_98330" x1="90.0888" y1="100.595" x2="35.8181" y2="10.8798" gradientUnits="userSpaceOnUse">
<stop stop-color="#2C2C38"/>
<stop offset="1" stop-color="#9B9AF3" stop-opacity="0"/>
</linearGradient>
<linearGradient id="paint8_linear_1466_98330" x1="90.0888" y1="100.595" x2="35.8181" y2="10.8798" gradientUnits="userSpaceOnUse">
<stop stop-color="#2C2C38"/>
<stop offset="1" stop-color="#9B9AF3" stop-opacity="0"/>
</linearGradient>
<linearGradient id="paint9_linear_1466_98330" x1="16.4778" y1="51.9074" x2="-30.4078" y2="19.3094" gradientUnits="userSpaceOnUse">
<stop stop-color="#9B9AF3" stop-opacity="0"/>
<stop offset="1" stop-color="#9B9AF3"/>
</linearGradient>
<linearGradient id="paint10_linear_1466_98330" x1="16.4778" y1="51.9074" x2="-30.4078" y2="19.3094" gradientUnits="userSpaceOnUse">
<stop stop-color="#9B9AF3" stop-opacity="0"/>
<stop offset="1" stop-color="#9B9AF3"/>
</linearGradient>
<linearGradient id="paint11_linear_1466_98330" x1="16.4778" y1="51.9074" x2="-30.4078" y2="19.3094" gradientUnits="userSpaceOnUse">
<stop stop-color="#9B9AF3" stop-opacity="0"/>
<stop offset="1" stop-color="#9B9AF3"/>
</linearGradient>
</defs>
</svg>
