<svg width="32" height="32" viewBox="0 0 32 32" fill="none" xmlns="http://www.w3.org/2000/svg">
<path d="M3.7777 26.9328C3.5322 27.1576 3.1451 27.0744 3.07604 26.7488C3.02535 26.5097 3 26.2308 3 25.9121V14.9151C3 14.5698 3.02535 14.2743 3.07604 14.0286C3.14388 13.7409 3.4603 13.6719 3.6902 13.8577L10.7827 19.59C11.0662 19.819 11.0793 20.2466 10.8106 20.4927L3.7777 26.9328ZM6.08514 29C5.68682 29 5.33196 28.9601 5.02055 28.8805C5.00036 28.8752 4.9804 28.8698 4.96066 28.8642C4.58651 28.7596 4.53839 28.3066 4.82475 28.044L12.147 21.3298C12.3651 21.1298 12.6971 21.1203 12.9264 21.3075L14.113 22.2763C14.4317 22.5287 14.7576 22.7212 15.0907 22.854C15.4238 22.9802 15.7606 23.0433 16.101 23.0433C16.4413 23.0433 16.7781 22.9802 17.1112 22.854C17.4516 22.7212 17.7811 22.5287 18.0998 22.2763L19.2864 21.3075C19.5157 21.1203 19.8477 21.1298 20.0658 21.3298L27.388 28.044C27.6744 28.3066 27.6257 28.7585 27.2512 28.8619C27.2282 28.8682 27.205 28.8744 27.1814 28.8805C26.8772 28.9601 26.526 29 26.1277 29H6.08514ZM29.1259 26.7488C29.0582 27.0681 28.6785 27.1557 28.4378 26.9353L21.4022 20.4927C21.1334 20.2466 21.1466 19.819 21.43 19.59L28.5259 13.8551C28.75 13.674 29.0598 13.7482 29.1259 14.0286C29.1838 14.2743 29.2128 14.5698 29.2128 14.9151V25.9121C29.2128 26.2308 29.1838 26.5097 29.1259 26.7488Z" fill="#2845C1"/>
<path d="M7.76595 14.9183L4.4963 12.2497C3.73691 11.6299 3.73691 10.4695 4.4963 9.84969L14.786 1.4515C15.5236 0.849498 16.583 0.849499 17.3206 1.45151L27.6103 9.84969C28.3697 10.4695 28.3697 11.6299 27.6103 12.2497L24.4468 14.8316V11.3446C24.4468 10.2377 23.5495 9.34044 22.4426 9.34044H9.77015C8.66326 9.34044 7.76595 10.2377 7.76595 11.3446V14.9183Z" fill="#FBC63A"/>
</svg>
