<svg width="76" height="67" viewBox="0 -10 76 67" fill="none" xmlns="http://www.w3.org/2000/svg">
<path d="M2.44019 0H66.9012C67.5059 0 68.0858 0.240218 68.5134 0.667807C68.941 1.0954 69.1812 1.67533 69.1812 2.28004V52.5541C69.1812 53.0985 68.965 53.6206 68.5801 54.0055C68.1951 54.3904 67.6731 54.6067 67.1287 54.6067H2.44019C1.83549 54.6067 1.25555 54.3665 0.827962 53.9389C0.400373 53.5113 0.160156 52.9313 0.160156 52.3266V2.28087C0.160156 1.67617 0.400373 1.09624 0.827962 0.668647C1.25555 0.241057 1.83549 0 2.44019 0Z" fill="white"/>
<path fill-rule="evenodd" clip-rule="evenodd" d="M66.9012 2.02247H2.44019C2.37379 2.02247 2.30772 2.0491 2.25806 2.09875C2.20976 2.14705 2.18263 2.21256 2.18263 2.28087V52.3266C2.18263 52.395 2.20976 52.4605 2.25806 52.5088C2.30636 52.5571 2.37187 52.5842 2.44019 52.5842H67.1287C67.1367 52.5842 67.1443 52.581 67.15 52.5754C67.1556 52.5698 67.1588 52.5621 67.1588 52.5541V2.28004C67.1588 2.21172 67.1316 2.14621 67.0833 2.09791C67.035 2.0496 66.9695 2.02247 66.9012 2.02247ZM66.9012 0H2.44019C1.83549 0 1.25555 0.241057 0.827962 0.668647C0.400373 1.09624 0.160156 1.67617 0.160156 2.28087V52.3266C0.160156 52.9313 0.400373 53.5113 0.827962 53.9389C1.25555 54.3665 1.83549 54.6067 2.44019 54.6067H67.1287C67.6731 54.6067 68.1951 54.3904 68.5801 54.0055C68.965 53.6206 69.1812 53.0985 69.1812 52.5541V2.28004C69.1812 1.67533 68.941 1.0954 68.5134 0.667807C68.0858 0.240218 67.5059 0 66.9012 0Z" fill="#000091"/>
<path d="M0.160997 8.09082H69.1812V52.3264C69.1812 52.9311 68.941 53.5111 68.5134 53.9387C68.0858 54.3662 67.5059 54.6065 66.9012 54.6065H2.44019C1.83549 54.6065 1.25555 54.3662 0.827962 53.9387C0.400373 53.5111 0.160156 52.9311 0.160156 52.3264L0.160997 8.09082Z" fill="#000091"/>
<path d="M5.17706 5.99084C5.71441 5.99084 6.15002 5.55523 6.15002 5.01788C6.15002 4.48053 5.71441 4.04492 5.17706 4.04492C4.63971 4.04492 4.2041 4.48053 4.2041 5.01788C4.2041 5.55523 4.63971 5.99084 5.17706 5.99084Z" fill="#000091"/>
<path d="M8.81281 5.99084C9.35016 5.99084 9.78577 5.55523 9.78577 5.01788C9.78577 4.48053 9.35016 4.04492 8.81281 4.04492C8.27546 4.04492 7.83984 4.48053 7.83984 5.01788C7.83984 5.55523 8.27546 5.99084 8.81281 5.99084Z" fill="#000091"/>
<path d="M12.4612 5.99084C12.9986 5.99084 13.4342 5.55523 13.4342 5.01788C13.4342 4.48053 12.9986 4.04492 12.4612 4.04492C11.9239 4.04492 11.4883 4.48053 11.4883 5.01788C11.4883 5.55523 11.9239 5.99084 12.4612 5.99084Z" fill="#000091"/>
<path d="M64.0964 5.60142H25.3538C25.2523 5.60495 25.1511 5.58744 25.0563 5.54993C24.9615 5.51242 24.875 5.45568 24.802 5.38308C24.729 5.31049 24.6709 5.22352 24.6312 5.12737C24.5916 5.03122 24.5711 4.92784 24.5711 4.82339C24.5711 4.71895 24.5916 4.61557 24.6312 4.51942C24.6709 4.42326 24.729 4.3363 24.802 4.26371C24.875 4.19111 24.9615 4.13437 25.0563 4.09686C25.1511 4.05935 25.2523 4.04184 25.3538 4.04537H64.0964C64.1979 4.04184 64.2991 4.05935 64.3939 4.09686C64.4887 4.13437 64.5752 4.19111 64.6482 4.26371C64.7212 4.3363 64.7793 4.42326 64.819 4.51942C64.8586 4.61557 64.8791 4.71895 64.8791 4.82339C64.8791 4.92784 64.8586 5.03122 64.819 5.12737C64.7793 5.22352 64.7212 5.31049 64.6482 5.38308C64.5752 5.45568 64.4887 5.51242 64.3939 5.54993C64.2991 5.58744 64.1979 5.60495 64.0964 5.60142Z" fill="#000091"/>
<path d="M73.8185 42.857C73.8185 54.5777 64.3169 64.0792 52.5962 64.0792C40.8755 64.0792 31.374 54.5777 31.374 42.857C31.374 31.1363 40.8755 21.6348 52.5962 21.6348C64.3169 21.6348 73.8185 31.1363 73.8185 42.857Z" fill="white"/>
<path fill-rule="evenodd" clip-rule="evenodd" d="M52.5962 23.6572C41.9925 23.6572 33.3965 32.2533 33.3965 42.857C33.3965 53.4607 41.9925 62.0567 52.5962 62.0567C63.2 62.0567 71.796 53.4607 71.796 42.857C71.796 32.2533 63.2 23.6572 52.5962 23.6572ZM29.3516 42.857C29.3516 30.0193 39.7586 19.6123 52.5962 19.6123C65.4339 19.6123 75.8409 30.0193 75.8409 42.857C75.8409 55.6947 65.4339 66.1017 52.5962 66.1017C39.7586 66.1017 29.3516 55.6947 29.3516 42.857Z" fill="white"/>
<path fill-rule="evenodd" clip-rule="evenodd" d="M52.5977 24.4639C42.4397 24.4639 34.2051 32.6985 34.2051 42.8564C34.2051 42.9254 34.2055 42.9942 34.2062 43.0629C34.1652 46.6475 35.216 50.2601 37.4026 53.396C40.7269 58.1635 46.0576 60.9421 51.6512 61.2251C51.8947 61.2374 52.1395 61.245 52.3855 61.2478C54.805 61.2754 57.2591 60.8352 59.6083 59.8867C59.6771 59.8589 59.7421 59.8245 59.8025 59.7843C62.4488 58.6565 64.7768 56.9263 66.6142 54.766C66.7447 54.7004 66.8675 54.6037 66.9747 54.4724C69.6437 51.2 71.0345 47.1581 70.9892 43.0559C70.9899 42.9895 70.9902 42.923 70.9902 42.8564C70.9902 32.6985 62.7556 24.4639 52.5977 24.4639ZM57.8147 27.4845C56.1774 26.929 54.4227 26.6277 52.5977 26.6277C48.2069 26.6277 44.2233 28.3714 41.3018 31.2042C41.4927 31.4469 41.6526 31.7111 41.7764 31.9893C41.8875 32.2323 41.9789 32.4823 42.0528 32.7401C42.1991 33.2511 42.2671 33.684 42.2962 34.2666L42.3113 34.7351C42.3144 34.903 42.3156 35.0839 42.3156 35.2812L42.3162 35.4976L42.3225 35.863L42.3364 36.146L42.3591 36.3605C42.3774 36.4837 42.4023 36.5705 42.4354 36.6394C42.4408 36.6505 42.4665 36.6671 42.5129 36.6883L42.633 36.7368L42.8084 36.7966L43.0393 36.8665L43.4907 36.9872L44.0692 37.1234L45.387 37.4055L45.8488 37.5207C46.661 37.7402 47.2615 38.1077 47.9576 38.7719L48.1034 38.9139L48.0918 38.8897C47.4467 37.3926 47.3586 35.4325 47.7652 34.1241L47.8421 33.9002C48.4018 32.4147 49.6587 31.8383 51.3814 31.7985C51.4342 31.7973 51.4861 31.7965 51.5378 31.7961L51.8524 31.799C51.9066 31.8004 51.9621 31.8022 52.0199 31.8044L53.1911 31.8692L53.5289 31.8794L53.6915 31.8765L53.8218 31.8659C54.0046 31.8435 54.2251 31.6253 54.4721 31.1416L54.839 30.319L54.9753 30.0314C55.0405 29.8996 55.0991 29.7919 55.1416 29.7352C55.4995 29.2562 56.0663 28.7491 56.8986 28.1336L57.3792 27.7867L57.8147 27.4845ZM60.3022 57.1433C62.17 56.1339 63.8175 54.7689 65.1538 53.139C65.2275 52.6589 65.2663 52.1472 65.2663 51.6037L65.2662 51.1449L65.2634 50.7152L65.2546 50.3485L65.2374 50.038C65.1746 49.2315 64.9821 49.0195 64.416 48.7031L64.149 48.5589C63.8065 48.378 63.5064 48.2363 63.1053 48.0582L62.8702 47.9523C61.8139 47.466 61.3163 47.0766 60.6232 46.0857L60.254 45.5479L60.0522 45.2625C59.5761 44.6161 59.285 44.4606 58.5743 44.5236L58.2662 44.5598L57.8072 44.6302L57.044 44.7572L56.4109 44.8763L56.0548 44.9537L55.747 45.0309C54.8927 45.2635 54.6405 45.5117 54.5318 45.9352L54.5002 46.083L54.4247 46.5814L54.3465 47.132L54.3131 47.4197L54.2951 47.654L54.293 47.8436C54.3001 48.0422 54.3404 48.1675 54.4171 48.2819L54.4918 48.3787C54.5197 48.4111 54.5507 48.444 54.5848 48.479L54.9064 48.8102L55.5195 49.4511L56.0923 50.0636L56.6249 50.6479L57.1174 51.2041L57.5696 51.7325L57.9817 52.2332L58.3536 52.7065C58.9986 53.5491 59.4413 54.2542 59.6822 54.8269C59.9792 55.5368 60.2058 56.3215 60.3022 57.1433Z" fill="#C9191E"/>
<path fill-rule="evenodd" clip-rule="evenodd" d="M52.5977 24.4639C42.4397 24.4639 34.2051 32.6985 34.2051 42.8564C34.2051 42.9254 34.2055 42.9942 34.2062 43.0629C34.1652 46.6475 35.216 50.2601 37.4026 53.396C40.7269 58.1635 46.0576 60.9421 51.6512 61.2251C51.8947 61.2374 52.1395 61.245 52.3855 61.2478C54.805 61.2754 57.2591 60.8352 59.6083 59.8867C59.6771 59.8589 59.7421 59.8245 59.8025 59.7843C62.4488 58.6565 64.7768 56.9263 66.6142 54.766C66.7448 54.7004 66.8675 54.6037 66.9747 54.4724C69.6437 51.2 71.0345 47.1581 70.9892 43.0559C70.9899 42.9895 70.9902 42.923 70.9902 42.8564C70.9902 32.6985 62.7556 24.4639 52.5977 24.4639ZM57.8147 27.4845C56.1774 26.929 54.4227 26.6277 52.5977 26.6277C48.2069 26.6277 44.2233 28.3714 41.3018 31.2042C41.4927 31.4469 41.6526 31.7111 41.7764 31.9893C41.8875 32.2323 41.9789 32.4823 42.0528 32.7401C42.1991 33.2511 42.2671 33.684 42.2962 34.2666L42.3113 34.7351C42.3144 34.903 42.3156 35.0839 42.3156 35.2812L42.3162 35.4976L42.3225 35.863L42.3364 36.146L42.3591 36.3605C42.3774 36.4837 42.4023 36.5705 42.4354 36.6394C42.4408 36.6505 42.4665 36.6671 42.5129 36.6883L42.633 36.7368L42.8084 36.7966L43.0393 36.8664L43.4907 36.9872L44.0692 37.1234L45.387 37.4055L45.8488 37.5207C46.661 37.7402 47.2615 38.1077 47.9576 38.7719L48.1034 38.9139L48.0918 38.8897C47.4467 37.3926 47.3586 35.4325 47.7652 34.1241L47.8421 33.9002C48.4018 32.4147 49.6587 31.8383 51.3814 31.7985C51.4342 31.7973 51.4861 31.7965 51.5378 31.7961L51.8524 31.799C51.9066 31.8004 51.9621 31.8022 52.0199 31.8044L53.1911 31.8692L53.5289 31.8794L53.6915 31.8765L53.8218 31.8659C54.0046 31.8435 54.2251 31.6253 54.4721 31.1416L54.839 30.319L54.9753 30.0314C55.0405 29.8996 55.0991 29.7919 55.1416 29.7352C55.4995 29.2562 56.0663 28.7491 56.8986 28.1336L57.3792 27.7867L57.8147 27.4845ZM53.1292 59.0766C52.9528 59.0823 52.7755 59.0852 52.5977 59.0852C43.7043 59.0852 36.4817 51.9316 36.3702 43.0647C36.4145 39.6301 37.6017 36.2258 39.8825 33.4253L39.9674 33.3215L39.9725 33.3358C40.0524 33.6148 40.0985 33.8744 40.1238 34.2131L40.1428 34.5817L40.1509 35.0248L40.155 35.7701C40.1694 36.6324 40.2377 37.0613 40.4855 37.5774C40.8727 38.381 41.4427 38.7176 42.821 39.0598L43.2839 39.1686L43.8048 39.2811L44.7318 39.4759L45.0288 39.5442L45.2837 39.6094C45.8618 39.7656 46.353 40.1664 47.1886 41.0993L47.7628 41.7404C48.0893 42.0927 48.3099 42.3017 48.5568 42.4424C48.9178 42.6481 49.3647 42.629 49.7067 42.3931C50.1191 42.1088 50.5576 41.4724 50.7646 40.7469C50.9689 40.0301 50.9269 39.3158 50.5493 38.781L50.4379 38.6398C49.6925 37.7799 49.4979 35.6386 49.8665 34.6646C50.0458 34.1885 50.493 33.9834 51.4314 33.9617L51.6823 33.9602L52.1138 33.9746L52.9918 34.0261L53.3342 34.0408C53.3853 34.0423 53.4336 34.0433 53.4799 34.0439L53.7363 34.0413L53.968 34.0262C54.006 34.0227 54.0441 34.0186 54.0827 34.0139C55.0813 33.8918 55.7626 33.2755 56.2888 32.3327L56.443 32.0374L56.5402 31.8293L56.7775 31.2817L56.8746 31.0368C56.8766 31.0302 56.875 31.0303 56.875 31.0303C57.0261 30.8281 57.299 30.5711 57.6855 30.2611L58.0445 29.9825L58.4581 29.6781C58.5315 29.6252 58.6071 29.5713 58.685 29.5163L59.1782 29.1738L59.5252 28.9387L59.7453 29.0409C64.0202 31.0858 67.1713 34.8681 68.3373 39.395L68.4344 39.7941C68.6826 40.8752 68.8116 41.9688 68.8252 43.0578C68.7968 45.3934 68.275 47.6102 67.3593 49.6088C67.1971 48.2159 66.7117 47.5073 65.4657 46.8109C65.0384 46.5757 64.7001 46.4065 64.2978 46.2222L63.9817 46.0798C63.0885 45.6851 62.8783 45.5345 62.4001 44.8509L62.153 44.4929C60.9352 42.6825 59.9943 42.102 57.7617 42.4471C53.8023 43.061 52.6534 43.8213 52.347 45.8436L52.2419 46.567C52.2307 46.6497 52.2203 46.73 52.2108 46.8081L52.1637 47.2512C52.0479 48.5759 52.2566 49.1904 53.0356 49.9898L53.6051 50.5787L54.1394 51.1424L54.6385 51.6803L55.102 52.1921L55.5298 52.6773L55.9215 53.1354L56.277 53.5661L56.5959 53.9687L56.8781 54.343C56.922 54.403 56.9645 54.4618 57.0053 54.5194L57.2319 54.8502C57.4399 55.1664 57.5919 55.4383 57.6867 55.6639L57.7864 55.9164C58.0095 56.5164 58.1629 57.1889 58.1844 57.8598L58.1847 58.0979C56.6006 58.6787 54.9008 59.0196 53.1292 59.0766ZM60.3022 57.1433C62.17 56.1339 63.8175 54.7689 65.1538 53.139C65.2275 52.6589 65.2663 52.1472 65.2663 51.6037L65.2662 51.1449L65.2634 50.7152L65.2546 50.3485L65.2374 50.038C65.1746 49.2315 64.9821 49.0195 64.416 48.7031L64.149 48.5589C63.8065 48.378 63.5064 48.2363 63.1053 48.0582L62.8702 47.9523C61.8139 47.466 61.3163 47.0766 60.6232 46.0857L60.254 45.5479L60.0522 45.2625C59.5761 44.6161 59.2849 44.4606 58.5743 44.5236L58.2662 44.5598L57.8072 44.6302L57.044 44.7572L56.4109 44.8763L56.0548 44.9537L55.747 45.0309C54.8927 45.2635 54.6405 45.5117 54.5318 45.9352L54.5002 46.083L54.4247 46.5814L54.3465 47.132L54.3131 47.4197L54.2951 47.654L54.293 47.8436C54.3001 48.0422 54.3404 48.1675 54.4171 48.2819L54.4918 48.3787C54.5197 48.4111 54.5507 48.444 54.5848 48.479L54.9064 48.8102L55.5195 49.4511L56.0923 50.0636L56.6249 50.6479L57.1174 51.2041L57.5696 51.7325L57.9817 52.2332L58.3536 52.7065C58.9986 53.5491 59.4413 54.2542 59.6822 54.8269C59.9792 55.5368 60.2058 56.3215 60.3022 57.1433Z" fill="white"/>
<path fill-rule="evenodd" clip-rule="evenodd" d="M52.5947 59.0243C61.524 59.0243 68.7626 51.7857 68.7626 42.8565C68.7626 33.9272 61.524 26.6886 52.5947 26.6886C43.6655 26.6886 36.4269 33.9272 36.4269 42.8565C36.4269 51.7857 43.6655 59.0243 52.5947 59.0243ZM52.5947 61.249C62.7527 61.249 70.9873 53.0144 70.9873 42.8565C70.9873 32.6985 62.7527 24.4639 52.5947 24.4639C42.4368 24.4639 34.2021 32.6985 34.2021 42.8565C34.2021 53.0144 42.4368 61.249 52.5947 61.249Z" fill="#C9191E"/>
<path fill-rule="evenodd" clip-rule="evenodd" d="M39.0994 32.6456C39.6483 32.7485 40.0099 33.2769 39.907 33.8258C39.861 34.0714 39.726 34.5253 39.5774 35.0027C39.4201 35.5081 39.2218 36.1193 39.0232 36.7248C38.9024 37.0929 38.7829 37.455 38.6723 37.7903C38.4115 38.5806 38.1998 39.2221 38.1367 39.443C37.8975 40.2818 37.7623 41.1797 37.7685 42.0303C37.7726 42.5887 37.3232 43.0448 36.7647 43.0489C36.2062 43.053 35.7502 42.6035 35.7461 42.0451C35.7383 40.9802 35.906 39.8901 36.1918 38.8882C36.267 38.6248 36.505 37.9037 36.7773 37.0786C36.8827 36.7593 36.9932 36.4244 37.1014 36.0945C37.2994 35.4908 37.4938 34.8916 37.6463 34.4016C37.8076 33.8836 37.8997 33.557 37.9192 33.4532C38.0221 32.9043 38.5505 32.5427 39.0994 32.6456Z" fill="#C9191E"/>
<path fill-rule="evenodd" clip-rule="evenodd" d="M66.8079 42.4233L66.8332 41.4124C66.8441 40.9768 66.7189 40.2834 66.4624 39.3934C66.213 38.5278 65.8651 37.5615 65.4914 36.6156C64.7447 34.7254 63.9196 32.9786 63.6404 32.3876C63.432 31.9462 63.0781 31.7013 62.3504 31.4144C62.2073 31.358 62.0447 31.2991 61.8678 31.235C61.215 30.9984 60.3674 30.6912 59.5861 30.1796L58.7401 29.6256L59.848 27.9336L60.694 28.4876C61.2591 28.8576 61.8055 29.0568 62.4204 29.281C62.6347 29.3592 62.8574 29.4403 63.092 29.5328C63.9434 29.8684 64.9194 30.3599 65.4692 31.5238L65.471 31.5276C65.7538 32.1264 66.6013 33.9207 67.3724 35.8725C67.7585 36.8498 68.1317 37.882 68.4058 38.8333C68.6729 39.7603 68.874 40.7021 68.855 41.4629L68.8298 42.4738L66.8079 42.4233Z" fill="#C9191E"/>
</svg>
