<svg width="63" height="68" viewBox="0 0 63 68" fill="none" xmlns="http://www.w3.org/2000/svg">
<path d="M1.86921 62.9443C1.27914 63.4846 0.348741 63.2848 0.182768 62.5021C0.0609227 61.9275 0 61.2571 0 60.491V34.0596C0 33.2297 0.0609227 32.5194 0.182768 31.9289C0.345826 31.2373 1.10633 31.0716 1.65891 31.5182L18.7059 45.2957C19.3871 45.8462 19.4188 46.8738 18.7729 47.4653L1.86921 62.9443ZM7.41517 67.9128C6.45781 67.9128 5.60489 67.8171 4.85641 67.6255C4.8079 67.6128 4.75992 67.5998 4.71249 67.5866C3.81319 67.335 3.69753 66.2462 4.38581 65.615L21.9849 49.4775C22.5092 48.9967 23.3071 48.9738 23.8582 49.4237L26.7103 51.7524C27.4762 52.3589 28.2595 52.8217 29.0602 53.141C29.8609 53.4442 30.6703 53.5959 31.4884 53.5959C32.3065 53.5959 33.1159 53.4442 33.9166 53.141C34.7347 52.8217 35.5267 52.3589 36.2926 51.7524L39.1447 49.4237C39.6957 48.9738 40.4936 48.9967 41.018 49.4775L58.617 65.615C59.3053 66.2462 59.1883 67.3324 58.2881 67.5809C58.2329 67.5962 58.177 67.611 58.1203 67.6255C57.3892 67.8171 56.545 67.9128 55.5877 67.9128H7.41517ZM62.794 62.5021C62.6312 63.2695 61.7187 63.4801 61.1401 62.9502L44.2299 47.4653C43.584 46.8738 43.6157 45.8462 44.2969 45.2957L61.3519 31.5118C61.8904 31.0765 62.635 31.2549 62.794 31.9289C62.9332 32.5194 63.0028 33.2297 63.0028 34.0596V60.491C63.0028 61.2571 62.9332 61.9275 62.794 62.5021Z" fill="#000091"/>
<path d="M11.4512 34.0671L3.59253 27.653C1.76733 26.1634 1.76734 23.3743 3.59253 21.8846L28.3241 1.69946C30.0969 0.252524 32.643 0.252526 34.4158 1.69946L59.1474 21.8846C60.9726 23.3743 60.9726 26.1634 59.1474 27.653L51.5439 33.8588V25.4777C51.5439 22.8173 49.3872 20.6606 46.7268 20.6606H16.2683C13.6079 20.6606 11.4512 22.8173 11.4512 25.4777V34.0671Z" fill="#C9191E"/>
</svg>
