<svg width="32" height="32" viewBox="-2 -4 36 36" fill="none" xmlns="http://www.w3.org/2000/svg">
<rect width="32" height="32" fill="white"/>
<path d="M18.4316 23.5001L16.3816 19.5601C16.1116 19.1501 15.8516 18.6201 15.5516 18.0001C15.4016 17.6901 15.2416 17.3601 15.0616 17.0101L14.9416 16.7701C13.7116 14.4601 11.9616 12.0901 8.30157 12.0901H8.28157C3.64157 12.1101 1.34157 14.8501 1.01157 20.7201C0.841571 23.7301 2.57157 27.7601 4.44157 28.7101C5.91157 29.4601 12.5916 31.6301 25.4016 29.2401L23.6316 28.3101C19.7816 26.4801 18.4816 23.6201 18.4316 23.5001Z" fill="#2845C1"/>
<path d="M8.25154 10.1C10.7644 10.1 12.8015 8.0629 12.8015 5.55C12.8015 3.0371 10.7644 1 8.25154 1C5.73864 1 3.70154 3.0371 3.70154 5.55C3.70154 8.0629 5.73864 10.1 8.25154 10.1Z" fill="#2845C1"/>
<path d="M24.8815 10.1C27.3944 10.1 29.4315 8.0629 29.4315 5.55C29.4315 3.0371 27.3944 1 24.8815 1C22.3686 1 20.3315 3.0371 20.3315 5.55C20.3315 8.0629 22.3686 10.1 24.8815 10.1Z" fill="#FBC63A"/>
<path d="M18.9416 21.0999C18.7416 20.7199 18.7016 20.2899 18.8116 19.8799C18.8116 19.8799 19.5016 16.8199 19.9016 15.7599C20.2416 14.8499 21.5416 12.1599 24.6516 12.1199C28.5716 12.0699 30.3416 15.3799 30.6916 18.4499C31.0416 21.5199 30.2816 23.9799 27.6416 26.4099C25.7616 28.1399 22.1416 25.3999 20.7416 24.0099C20.0216 23.3099 18.9416 21.0999 18.9416 21.0999Z" fill="#FBC63A"/>
</svg>
