<svg width="32" height="32" viewBox="0 0 32 32" fill="none" xmlns="http://www.w3.org/2000/svg">
<path d="M3.02606 12.4563C3 12.5324 3 12.6269 3 12.8158V24.0329C3 24.9776 3 25.45 3.13028 25.8305C3.37217 26.537 3.92714 27.092 4.63365 27.3339C5.01416 27.4641 5.48651 27.4641 6.43122 27.4641L16.0646 27.4273C16.1825 27.4273 12.0378 27.4112 16.2892 27.4112C16.3779 27.3812 16.448 27.3124 16.4796 27.2243C16.4967 27.1768 16.4978 27.1179 16.5 27C16.5 27 16.173 26.0519 15.9805 25.4263C15.7517 24.6829 15.6373 23.7678 15.6373 23.7678C15.4086 18.9067 18.8556 16.6431 20.0566 16.0426C21.1027 15.5196 24.8607 14.1554 28.5031 17.2312C28.5814 17.2973 28.6864 17.4168 28.736 17.4319C28.829 17.4602 28.9291 17.4191 28.9753 17.3336C29 17.2881 29 17.2011 29 17.0271V12.6604C29 12.4714 29 12.3769 28.9739 12.3009C28.9256 12.1596 28.8146 12.0486 28.6733 12.0002C28.5972 11.9741 28.5027 11.9741 28.3138 11.9741L3.68624 12.1296C3.4973 12.1296 3.40283 12.1296 3.32673 12.1557C3.18543 12.204 3.07443 12.315 3.02606 12.4563Z" fill="#2845C1"/>
<path fill-rule="evenodd" clip-rule="evenodd" d="M3 7.43122C3 6.48651 3 6.01416 3.13028 5.63365C3.37217 4.92714 3.92714 4.37217 4.63365 4.13028C5.01416 4 5.48651 4 6.43122 4H25.5762C26.5209 4 26.9932 4 27.3738 4.13028C28.0803 4.37217 28.6352 4.92714 28.8771 5.63365C29.0074 6.01416 29.0074 6.48651 29.0074 7.43122V9.44757C29.0074 9.63651 29.0074 9.73099 28.9814 9.80709C28.933 9.94839 28.822 10.0594 28.6807 10.1078C28.6046 10.1338 28.5101 10.1338 28.3212 10.1338H3.68624C3.4973 10.1338 3.40283 10.1338 3.32673 10.1078C3.18543 10.0594 3.07443 9.94839 3.02606 9.80709C3 9.73099 3 9.63652 3 9.44757V7.43122ZM7.60036 7.11801C7.60036 7.82376 7.02824 8.39589 6.32248 8.39589C5.61673 8.39589 5.04461 7.82376 5.04461 7.11801C5.04461 6.41226 5.61673 5.84013 6.32248 5.84013C7.02824 5.84013 7.60036 6.41226 7.60036 7.11801ZM10.4117 8.39589C11.1174 8.39589 11.6896 7.82376 11.6896 7.11801C11.6896 6.41226 11.1174 5.84013 10.4117 5.84013C9.70594 5.84013 9.13382 6.41226 9.13382 7.11801C9.13382 7.82376 9.70594 8.39589 10.4117 8.39589ZM15.7788 7.11801C15.7788 7.82376 15.2067 8.39589 14.5009 8.39589C13.7952 8.39589 13.223 7.82376 13.223 7.11801C13.223 6.41226 13.7952 5.84013 14.5009 5.84013C15.2067 5.84013 15.7788 6.41226 15.7788 7.11801Z" fill="#FBC63A"/>
<path d="M23.7957 17.0309C23.6779 17.2379 24.0508 17.501 24.3424 17.7046C24.7897 18.018 24.9464 18.2274 24.8926 18.5499C24.8926 18.5499 24.8926 18.5499 24.8926 18.5522L24.856 18.6437L24.768 18.8485L24.7314 18.9262L24.6742 19.0361C24.4774 19.3884 24.3745 19.5988 24.0016 19.6434C23.9867 19.6457 23.973 19.6469 23.9593 19.648L23.8723 19.6537H23.7762C23.7591 19.6537 23.7408 19.6537 23.7225 19.6537L23.5944 19.648L23.2672 19.6286L23.106 19.6228H23.0122C22.6622 19.632 22.4952 19.7075 22.4277 19.8859C22.2904 20.2497 22.3625 21.0481 22.6404 21.3695L22.6816 21.4221C22.8223 21.6211 22.8383 21.8876 22.7617 22.1553C22.6839 22.4264 22.5203 22.6632 22.367 22.7695C22.2389 22.8576 22.0731 22.8645 21.9381 22.7878C21.8455 22.7352 21.7631 22.6574 21.6419 22.5259L21.428 22.2868C21.1157 21.9391 20.9327 21.7893 20.7176 21.7309L20.6227 21.7069L20.5117 21.6817L20.1663 21.6097L19.9719 21.5674L19.7991 21.5262C19.2844 21.3981 19.0717 21.2734 18.9275 20.9726C18.8349 20.7804 18.8097 20.6203 18.804 20.2977V20.0197L18.8086 19.7567C18.8086 19.7258 18.8109 19.6949 18.8154 19.664C18.8337 19.5176 18.8555 19.3598 18.7319 19.3838C18.3739 19.4604 17.4097 20.4338 17.3914 23.0223C17.4325 26.3314 20.1274 29 23.4468 29C23.5132 29 23.5795 29 23.6447 28.9966C24.2166 28.9783 24.7691 28.8799 25.2907 28.714C25.4314 28.6694 25.5195 28.531 25.4989 28.3858C25.4714 28.197 25.4302 27.9465 25.3822 27.8184L25.3444 27.7246C25.309 27.64 25.2518 27.5393 25.1752 27.4215L25.0905 27.298C25.0756 27.2762 25.0596 27.2545 25.0425 27.2316L24.9372 27.0921L24.8183 26.9422L24.6856 26.7821L24.5392 26.6105L24.379 26.4298L24.2063 26.2388L24.0199 26.0386L23.8209 25.8281L23.6081 25.6085C23.3176 25.31 23.2398 25.0812 23.2833 24.5871L23.3004 24.4224C23.3038 24.3938 23.3073 24.3629 23.3119 24.332L23.3507 24.0621C23.4651 23.3071 23.8941 23.0235 25.3708 22.7947C26.2035 22.6654 26.5546 22.8828 27.0099 23.5576L27.1025 23.6915C27.281 23.9465 27.3599 24.0026 27.6927 24.1501L27.8106 24.2028C27.9604 24.2714 28.0874 24.3343 28.2464 24.4224C28.4557 24.539 28.6067 24.6569 28.7165 24.7987C28.8652 24.9909 29.1683 24.9462 29.2392 24.714C29.4028 24.1776 29.4931 23.6102 29.5 23.0223C29.4943 22.6163 29.4462 22.2079 29.3536 21.8041L29.317 21.6554C28.8823 19.966 27.8311 18.4504 26.4208 17.7252L26.3373 17.6818C26.1543 17.5857 25.4348 17.095 23.9455 16.9325C23.9455 16.9325 23.8552 16.9245 23.7923 17.0343L23.7957 17.0309Z" fill="#2845C1"/>
</svg>
