<svg width="186" height="67" viewBox="0 0 186 67" fill="none" xmlns="http://www.w3.org/2000/svg">
<path fill-rule="evenodd" clip-rule="evenodd" d="M90.2615 1.64969C91.8014 0.783435 93.6944 0.783435 95.2343 1.64969C103.191 6.11257 111.143 10.6082 119.066 15.1205C120.606 15.9977 121.553 17.5989 121.558 19.3368C121.586 28.3174 121.586 37.3034 121.558 46.284C121.553 48.022 120.606 49.6284 119.066 50.5001C111.143 55.0178 103.191 59.5082 95.2343 63.9765C93.6944 64.8373 91.8014 64.8373 90.2615 63.9765C82.3043 59.5082 74.3527 55.0178 66.4291 50.5001C64.8948 49.6284 63.9485 48.022 63.9429 46.284C63.9149 37.3034 63.9149 28.3174 63.9429 19.3368C63.9485 17.5989 64.8948 15.9977 66.4291 15.1205C74.3527 10.6082 82.3043 6.11257 90.2615 1.64969Z" fill="white" stroke="#000091" stroke-width="2" stroke-miterlimit="1.5" stroke-linecap="round" stroke-linejoin="round"/>
<path d="M78.2237 43.7982C77.9292 44.0678 77.465 43.968 77.3822 43.5775C77.3214 43.2908 77.291 42.9563 77.291 42.5741V29.3863C77.291 28.9721 77.3214 28.6178 77.3822 28.3231C77.4636 27.9781 77.843 27.8954 78.1187 28.1182L86.6243 34.9924C86.9642 35.2671 86.98 35.7799 86.6577 36.075L78.2237 43.7982ZM80.9908 46.2772C80.5131 46.2772 80.0876 46.2294 79.7141 46.1339C79.6899 46.1275 79.666 46.121 79.6423 46.1144C79.1936 45.9889 79.1359 45.4456 79.4793 45.1307L88.2603 37.0789C88.5219 36.839 88.92 36.8276 89.195 37.0521L90.618 38.214C91.0002 38.5166 91.391 38.7475 91.7905 38.9068C92.19 39.0581 92.5938 39.1338 93.002 39.1338C93.4102 39.1338 93.8141 39.0581 94.2136 38.9068C94.6218 38.7475 95.0169 38.5166 95.3991 38.214L96.8221 37.0521C97.0971 36.8276 97.4952 36.839 97.7568 37.0789L106.538 45.1307C106.881 45.4456 106.823 45.9876 106.374 46.1116C106.346 46.1192 106.318 46.1266 106.29 46.1339C105.925 46.2294 105.504 46.2772 105.026 46.2772H80.9908ZM108.622 43.5775C108.541 43.9604 108.085 44.0655 107.797 43.8011L99.3594 36.075C99.0371 35.7799 99.0529 35.2671 99.3928 34.9924L107.902 28.115C108.171 27.8978 108.543 27.9868 108.622 28.3231C108.691 28.6178 108.726 28.9721 108.726 29.3863V42.5741C108.726 42.9563 108.691 43.2908 108.622 43.5775Z" fill="#000091"/>
<path d="M83.0045 29.3899L79.0834 26.1896C78.1727 25.4464 78.1727 24.0548 79.0834 23.3115L91.4231 13.2402C92.3077 12.5182 93.578 12.5182 94.4626 13.2402L106.802 23.3115C107.713 24.0548 107.713 25.4464 106.802 26.1896L103.009 29.286V25.1043C103.009 23.7769 101.933 22.7008 100.605 22.7008H85.4079C84.0805 22.7008 83.0045 23.7769 83.0045 25.1043V29.3899Z" fill="#C9191E"/>
<path fill-rule="evenodd" clip-rule="evenodd" d="M152.931 1.64969C154.471 0.783435 156.364 0.783435 157.904 1.64969C165.861 6.11257 173.813 10.6082 181.736 15.1205C183.276 15.9977 184.223 17.5989 184.228 19.3368C184.256 28.3174 184.256 37.3034 184.228 46.284C184.223 48.022 183.276 49.6284 181.736 50.5001C173.813 55.0178 165.861 59.5082 157.904 63.9765C156.364 64.8373 154.471 64.8373 152.931 63.9765C144.974 59.5082 137.023 55.0178 129.099 50.5001C127.565 49.6284 126.618 48.022 126.613 46.284C126.585 37.3034 126.585 28.3174 126.613 19.3368C126.618 17.5989 127.565 15.9977 129.099 15.1205C137.023 10.6082 144.974 6.11257 152.931 1.64969Z" fill="white" stroke="#000091" stroke-width="2" stroke-miterlimit="1.5" stroke-linecap="round" stroke-linejoin="round"/>
<path d="M170.743 25.7128H147.659C145.037 25.7128 142.4 27.8663 141.77 30.5227L139.963 38.1352V23.3636C139.963 21.7735 140.312 20.5758 141.011 19.7707C141.718 18.9555 142.699 18.5479 143.953 18.5479H147.756C148.221 18.5479 148.624 18.5831 148.965 18.6535C149.305 18.724 149.619 18.8448 149.905 19.0158C150.192 19.1769 150.492 19.4033 150.806 19.6952L151.571 20.4047C151.948 20.7368 152.301 20.9734 152.633 21.1143C152.964 21.2552 153.372 21.3256 153.855 21.3256H166.351C167.793 21.3256 168.886 21.7433 169.629 22.5786C170.296 23.319 170.667 24.3637 170.743 25.7128Z" fill="#C9191E"/>
<path d="M143.523 46.5296C142.026 46.5296 141 46.1232 140.445 45.3105C139.888 44.5077 139.814 43.3229 140.223 41.7563L143.091 30.7784C143.442 29.4324 144.913 28.3413 146.375 28.3413H172.853C174.315 28.3413 175.216 29.4324 174.864 30.7784L171.996 41.7563C171.587 43.3229 170.908 44.5077 169.959 45.3105C169.007 46.1232 167.871 46.5296 166.549 46.5296H143.523Z" fill="#000091"/>
<path fill-rule="evenodd" clip-rule="evenodd" d="M27.3396 2.47782C28.8796 1.61156 30.7725 1.61156 32.3124 2.47782C40.2696 6.94069 48.2209 11.4364 56.1445 15.9486C57.6845 16.8258 58.6309 18.427 58.6365 20.165C58.6645 29.1455 58.6645 38.1315 58.6365 47.1121C58.6309 48.8501 57.6845 50.4565 56.1445 51.3282C48.2209 55.8459 40.2696 60.3363 32.3124 64.8046C30.7725 65.6654 28.8796 65.6654 27.3396 64.8046C19.3825 60.3363 11.4308 55.8459 3.50724 51.3282C1.97292 50.4565 1.0266 48.8501 1.021 47.1121C0.993 38.1315 0.993 29.1455 1.021 20.165C1.0266 18.427 1.97292 16.8258 3.50724 15.9486C11.4308 11.4364 19.3825 6.94069 27.3396 2.47782Z" fill="white" stroke="#000091" stroke-width="2" stroke-miterlimit="1.5" stroke-linecap="round" stroke-linejoin="round"/>
<path d="M12.7524 18.5005H44.6248C44.7912 18.5005 44.9507 18.5666 45.0684 18.6842C45.186 18.8019 45.2521 18.9615 45.2521 19.1278V43.9856C45.2521 44.1222 45.1979 44.2531 45.1013 44.3497C45.0048 44.4462 44.8738 44.5005 44.7373 44.5005H12.7524C12.586 44.5005 12.4264 44.4344 12.3087 44.3167C12.1911 44.1991 12.125 44.0395 12.125 43.8731V19.1283C12.125 18.9619 12.1911 18.8023 12.3087 18.6847C12.4267 18.5667 12.5864 18.5005 12.7524 18.5005Z" fill="white" stroke="#000091"/>
<path d="M11.6254 22.0005H45.7521V43.8726C45.7521 44.1716 45.6334 44.4583 45.4219 44.6697C45.2105 44.8811 44.9238 44.9999 44.6248 44.9999H12.7524C12.4534 44.9999 12.1666 44.8811 11.9552 44.6697C11.7438 44.4583 11.625 44.1716 11.625 43.8726L11.6254 22.0005Z" fill="#000091"/>
<path d="M14.1061 20.9626C14.3718 20.9626 14.5872 20.7473 14.5872 20.4816C14.5872 20.2159 14.3718 20.0005 14.1061 20.0005C13.8404 20.0005 13.625 20.2159 13.625 20.4816C13.625 20.7473 13.8404 20.9626 14.1061 20.9626Z" fill="#000091"/>
<path d="M15.9049 20.9626C16.1706 20.9626 16.386 20.7473 16.386 20.4816C16.386 20.2159 16.1706 20.0005 15.9049 20.0005C15.6392 20.0005 15.4238 20.2159 15.4238 20.4816C15.4238 20.7473 15.6392 20.9626 15.9049 20.9626Z" fill="#000091"/>
<path d="M17.7057 20.9626C17.9714 20.9626 18.1868 20.7473 18.1868 20.4816C18.1868 20.2159 17.9714 20.0005 17.7057 20.0005C17.44 20.0005 17.2246 20.2159 17.2246 20.4816C17.2246 20.7473 17.44 20.9626 17.7057 20.9626Z" fill="#000091"/>
<path d="M43.238 20.7701H24.0819C24.0317 20.7718 23.9817 20.7632 23.9348 20.7446C23.888 20.7261 23.8452 20.698 23.8091 20.6621C23.773 20.6262 23.7443 20.5832 23.7246 20.5357C23.705 20.4882 23.6949 20.437 23.6949 20.3854C23.6949 20.3338 23.705 20.2826 23.7246 20.2351C23.7443 20.1876 23.773 20.1446 23.8091 20.1087C23.8452 20.0728 23.888 20.0447 23.9348 20.0262C23.9817 20.0076 24.0317 19.999 24.0819 20.0007H43.238C43.2882 19.999 43.3382 20.0076 43.3851 20.0262C43.432 20.0447 43.4747 20.0728 43.5108 20.1087C43.547 20.1446 43.5757 20.1876 43.5953 20.2351C43.6149 20.2826 43.625 20.3338 43.625 20.3854C43.625 20.437 43.6149 20.4882 43.5953 20.5357C43.5757 20.5832 43.547 20.6262 43.5108 20.6621C43.4747 20.698 43.432 20.7261 43.3851 20.7446C43.3382 20.7632 43.2882 20.7718 43.238 20.7701Z" fill="#000091"/>
<circle cx="37.5518" cy="39.1905" r="10.4932" fill="white" stroke="white" stroke-width="2"/>
<path fill-rule="evenodd" clip-rule="evenodd" d="M37.5492 30.0962C32.5267 30.0962 28.4551 34.1678 28.4551 39.1903C28.4551 39.2244 28.4553 39.2584 28.4557 39.2924C28.4353 41.0648 28.9549 42.851 30.0361 44.4015C31.6797 46.7588 34.3155 48.1327 37.0812 48.2726C37.2016 48.2787 37.3227 48.2825 37.4443 48.2838C38.6406 48.2975 39.854 48.0798 41.0156 47.6108C41.0496 47.5971 41.0817 47.5801 41.1116 47.5602C42.4201 47.0026 43.5711 46.1471 44.4796 45.0789C44.5442 45.0465 44.6049 44.9987 44.6578 44.9337C45.9776 43.3157 46.6652 41.3173 46.6428 39.2889C46.6431 39.2561 46.6433 39.2232 46.6433 39.1903C46.6433 34.1678 42.5717 30.0962 37.5492 30.0962ZM40.1288 31.5897C39.3192 31.315 38.4516 31.1661 37.5492 31.1661C35.3782 31.1661 33.4086 32.0283 31.964 33.4289C32.0584 33.5489 32.1375 33.6796 32.1987 33.8171C32.2536 33.9373 32.2988 34.0609 32.3353 34.1883C32.4077 34.441 32.4413 34.655 32.4557 34.9431L32.4632 35.1748C32.4647 35.2578 32.4653 35.3472 32.4653 35.4448L32.4656 35.5518L32.4687 35.7325L32.4756 35.8724L32.4868 35.9784C32.4958 36.0393 32.5082 36.0823 32.5245 36.1163C32.5272 36.1218 32.5399 36.13 32.5628 36.1405L32.6222 36.1645L32.7089 36.1941L32.8231 36.2286L33.0463 36.2883L33.3323 36.3556L33.9839 36.4951L34.2123 36.5521C34.6138 36.6606 34.9108 36.8423 35.255 37.1707L35.327 37.241L35.3213 37.229C35.0023 36.4888 34.9588 35.5196 35.1598 34.8726L35.1978 34.7619C35.4746 34.0274 36.096 33.7425 36.9478 33.7228C36.9739 33.7222 36.9996 33.7218 37.0252 33.7216L37.1807 33.723C37.2075 33.7237 37.235 33.7246 37.2635 33.7257L37.8426 33.7577L38.0096 33.7628L38.0901 33.7613L38.1545 33.7561C38.2448 33.745 38.3539 33.6371 38.476 33.398L38.6574 32.9912L38.7248 32.849C38.757 32.7839 38.786 32.7306 38.807 32.7026C38.984 32.4658 39.2643 32.215 39.6758 31.9107L39.9134 31.7391L40.1288 31.5897ZM41.3587 46.2544C42.2822 45.7553 43.0968 45.0804 43.7575 44.2745C43.794 44.0371 43.8132 43.7841 43.8132 43.5154L43.8131 43.2885L43.8117 43.076L43.8074 42.8947L43.7989 42.7412C43.7678 42.3424 43.6726 42.2376 43.3927 42.0812L43.2607 42.0099C43.0913 41.9204 42.943 41.8504 42.7447 41.7623L42.6284 41.7099C42.1061 41.4695 41.8601 41.2769 41.5174 40.787L41.3348 40.5211L41.2351 40.38C40.9997 40.0604 40.8557 39.9835 40.5043 40.0146L40.352 40.0325L40.125 40.0674L39.7477 40.1301L39.4346 40.189L39.2585 40.2273L39.1064 40.2654C38.684 40.3805 38.5593 40.5032 38.5055 40.7126L38.4899 40.7857L38.4526 41.0321L38.4139 41.3044L38.3974 41.4466L38.3885 41.5624L38.3875 41.6562C38.3909 41.7544 38.4109 41.8163 38.4488 41.8729L38.4858 41.9208C38.4996 41.9368 38.5149 41.9531 38.5317 41.9704L38.6907 42.1341L38.9939 42.451L39.2771 42.7538L39.5405 43.0427L39.7839 43.3178L40.0075 43.579L40.2113 43.8266L40.3952 44.0606C40.7141 44.4772 40.933 44.8259 41.0521 45.1091C41.1989 45.46 41.311 45.8481 41.3587 46.2544Z" fill="#C9191E"/>
<path fill-rule="evenodd" clip-rule="evenodd" d="M37.5492 30.0962C32.5267 30.0962 28.4551 34.1678 28.4551 39.1903C28.4551 39.2244 28.4553 39.2584 28.4557 39.2924C28.4353 41.0648 28.9549 42.851 30.0361 44.4015C31.6797 46.7588 34.3155 48.1327 37.0812 48.2726C37.2016 48.2787 37.3227 48.2825 37.4443 48.2838C38.6406 48.2975 39.854 48.0798 41.0156 47.6108C41.0496 47.5971 41.0817 47.5801 41.1116 47.5602C42.4201 47.0026 43.5711 46.1471 44.4796 45.0789C44.5442 45.0465 44.6049 44.9987 44.6578 44.9337C45.9776 43.3157 46.6652 41.3173 46.6428 39.2889C46.6431 39.2561 46.6433 39.2232 46.6433 39.1903C46.6433 34.1678 42.5717 30.0962 37.5492 30.0962ZM40.1288 31.5897C39.3192 31.315 38.4516 31.1661 37.5492 31.1661C35.3782 31.1661 33.4086 32.0283 31.964 33.4289C32.0584 33.5489 32.1375 33.6796 32.1987 33.8171C32.2536 33.9373 32.2988 34.0609 32.3353 34.1883C32.4077 34.441 32.4413 34.655 32.4557 34.9431L32.4632 35.1748C32.4647 35.2578 32.4653 35.3472 32.4653 35.4448L32.4656 35.5518L32.4687 35.7325L32.4756 35.8724L32.4868 35.9784C32.4958 36.0393 32.5082 36.0823 32.5245 36.1163C32.5272 36.1218 32.5399 36.13 32.5628 36.1405L32.6222 36.1645L32.7089 36.1941L32.8231 36.2286L33.0463 36.2883L33.3323 36.3556L33.9839 36.4951L34.2123 36.5521C34.6138 36.6606 34.9108 36.8423 35.255 37.1707L35.327 37.241L35.3213 37.229C35.0023 36.4888 34.9588 35.5196 35.1598 34.8726L35.1978 34.7619C35.4746 34.0274 36.096 33.7425 36.9478 33.7228C36.9739 33.7222 36.9996 33.7218 37.0252 33.7216L37.1807 33.723C37.2075 33.7237 37.235 33.7246 37.2635 33.7257L37.8426 33.7577L38.0096 33.7628L38.0901 33.7613L38.1545 33.7561C38.2448 33.745 38.3539 33.6371 38.476 33.398L38.6574 32.9912L38.7248 32.849C38.757 32.7839 38.786 32.7306 38.807 32.7026C38.984 32.4658 39.2643 32.215 39.6758 31.9107L39.9134 31.7391L40.1288 31.5897ZM37.812 47.2103C37.7248 47.2131 37.6372 47.2145 37.5492 47.2145C33.1519 47.2145 29.5808 43.6775 29.5256 39.2933C29.5475 37.5951 30.1345 35.9118 31.2622 34.5271L31.3042 34.4758L31.3068 34.4829C31.3463 34.6208 31.369 34.7492 31.3816 34.9166L31.3909 35.0989L31.3949 35.318L31.397 35.6865C31.4041 36.1129 31.4379 36.3249 31.5604 36.5801C31.7519 36.9775 32.0337 37.1439 32.7152 37.3131L32.944 37.3669L33.2016 37.4225L33.66 37.5188L33.8068 37.5526L33.9329 37.5848C34.2187 37.6621 34.4615 37.8602 34.8747 38.3215L35.1586 38.6385C35.32 38.8127 35.4292 38.916 35.5512 38.9856C35.7297 39.0873 35.9507 39.0778 36.1198 38.9612C36.3237 38.8206 36.5405 38.506 36.6428 38.1473C36.7439 37.7928 36.7231 37.4397 36.5364 37.1752L36.4813 37.1054C36.1127 36.6803 36.0165 35.6215 36.1988 35.1399C36.2875 34.9045 36.5086 34.8031 36.9725 34.7924L37.0966 34.7916L37.31 34.7987L37.7441 34.8242L37.9134 34.8314C37.9386 34.8322 37.9625 34.8327 37.9854 34.833L38.1122 34.8317L38.2268 34.8243C38.2456 34.8225 38.2644 34.8205 38.2835 34.8182C38.7772 34.7578 39.1141 34.4531 39.3743 33.9869L39.4505 33.8409L39.4986 33.738L39.6159 33.4672L39.6639 33.3461C39.6649 33.3429 39.6641 33.3429 39.6641 33.3429C39.7388 33.2429 39.8737 33.1159 40.0649 32.9626L40.2424 32.8248L40.4468 32.6743C40.4831 32.6482 40.5205 32.6215 40.559 32.5944L40.8029 32.425L40.9745 32.3087L41.0833 32.3593C43.197 33.3704 44.7551 35.2405 45.3316 37.4788L45.3796 37.6761C45.5023 38.2107 45.5661 38.7514 45.5728 39.2899C45.5588 40.4447 45.3008 41.5408 44.848 42.529C44.7678 41.8403 44.5278 41.4899 43.9117 41.1456C43.7005 41.0293 43.5332 40.9456 43.3343 40.8545L43.178 40.7841C42.7363 40.5889 42.6324 40.5145 42.396 40.1764L42.2738 39.9994C41.6717 39.1043 41.2064 38.8173 40.1025 38.9879C38.1448 39.2914 37.5768 39.6674 37.4253 40.6673L37.3733 41.025C37.3678 41.0659 37.3626 41.1056 37.3579 41.1442L37.3346 41.3633C37.2774 42.0183 37.3806 42.3221 37.7658 42.7173L38.0473 43.0085L38.3115 43.2872L38.5583 43.5532L38.7875 43.8063L38.999 44.0462L39.1927 44.2727L39.3684 44.4856L39.5261 44.6847L39.6656 44.8698C39.6874 44.8995 39.7083 44.9285 39.7285 44.957L39.8406 45.1206C39.9434 45.2769 40.0186 45.4113 40.0655 45.5229L40.1148 45.6477C40.2251 45.9444 40.3009 46.2769 40.3115 46.6087L40.3117 46.7264C39.5284 47.0135 38.688 47.1821 37.812 47.2103ZM41.3587 46.2544C42.2822 45.7553 43.0968 45.0804 43.7575 44.2745C43.794 44.0371 43.8132 43.7841 43.8132 43.5154L43.8131 43.2885L43.8117 43.076L43.8074 42.8947L43.7989 42.7412C43.7678 42.3424 43.6726 42.2376 43.3927 42.0812L43.2607 42.0099C43.0914 41.9204 42.943 41.8504 42.7447 41.7623L42.6284 41.7099C42.1061 41.4695 41.8601 41.2769 41.5174 40.787L41.3348 40.5211L41.2351 40.38C40.9997 40.0604 40.8557 39.9835 40.5043 40.0146L40.352 40.0325L40.125 40.0674L39.7477 40.1301L39.4346 40.189L39.2585 40.2273L39.1064 40.2654C38.684 40.3805 38.5593 40.5032 38.5055 40.7126L38.4899 40.7857L38.4526 41.0321L38.4139 41.3044L38.3974 41.4466L38.3885 41.5624L38.3875 41.6562C38.3909 41.7544 38.4109 41.8163 38.4488 41.8729L38.4858 41.9208C38.4996 41.9368 38.5149 41.9531 38.5317 41.9704L38.6907 42.1341L38.9939 42.451L39.2771 42.7538L39.5405 43.0427L39.7839 43.3178L40.0075 43.579L40.2113 43.8266L40.3952 44.0606C40.7141 44.4772 40.933 44.8259 41.0521 45.1091C41.1989 45.46 41.311 45.8481 41.3587 46.2544Z" fill="white"/>
<circle cx="37.5512" cy="39.1903" r="8.54413" stroke="#C9191E" stroke-width="1.1"/>
<path d="M29.7179 38.7849C29.7144 38.3113 29.7893 37.8199 29.9191 37.3648C30.015 37.0286 30.719 34.978 30.7838 34.6325" stroke="#C9191E" stroke-linecap="round"/>
<path d="M41.2806 32.504C42.1484 33.0723 43.0886 33.0068 43.4635 33.8005C43.7405 34.3869 45.1194 37.3057 45.0899 38.4888" stroke="#C9191E" stroke-linecap="square"/>
</svg>
