<svg width="256" height="165" viewBox="0 0 256 165" fill="none" xmlns="http://www.w3.org/2000/svg">
<path fill-rule="evenodd" clip-rule="evenodd" d="M99.4612 164.594H0V93.7565C0 78.4403 12.3484 66.0156 27.5708 66.0156H99.4612V164.594Z" fill="url(#paint0_linear_123_8837)"/>
<path fill-rule="evenodd" clip-rule="evenodd" d="M107.369 163.957C107.369 163.957 105.982 112.085 106.259 100.159C106.557 86.5771 103.098 80.1898 100.184 77.7766C100.184 77.8397 86.1599 76.0662 71.8787 77.3808C73.2661 81.9879 73.4358 82.3094 79.6398 91.0847C80.829 92.4807 81.9984 94.0561 83.1084 95.7912C88.2617 103.908 92.1467 115.933 91.5719 133.703C93.5342 153.009 91.9089 163.717 91.9089 163.717L107.369 163.957Z" fill="white"/>
<path fill-rule="evenodd" clip-rule="evenodd" d="M134.271 160.564L165.662 154.85C165.662 154.85 138.701 140.829 136.342 137.408C133.983 133.988 132.65 111.939 128.918 100.731C125.364 90.0557 116.812 76.9961 79.6994 76.9961C62.619 76.9961 51.2167 82.4035 51.2167 82.4035C48.4219 82.8422 41.6235 86.6912 27.2731 107.093C16.6259 127.815 5.60584 164.592 46.9654 164.592C53.7242 164.712 126.814 164.448 126.814 164.448L125.482 158.264C125.815 158.264 134.271 160.564 134.271 160.564ZM91.909 163.81C91.909 163.81 93.5343 153.101 91.5721 133.797C91.7108 129.19 91.5721 124.982 91.1756 121.133C91.1756 121.093 91.1756 121.053 91.1558 120.993C91.1161 120.634 91.0765 120.275 91.0368 119.916C91.0368 119.856 91.017 119.777 91.017 119.717C90.9774 119.378 90.9377 119.039 90.8981 118.72C90.8783 118.64 90.8783 118.56 90.8585 118.48C90.8188 118.161 90.7594 117.842 90.7197 117.523C90.6999 117.423 90.6999 117.344 90.6801 117.244C90.6404 116.945 90.581 116.626 90.5414 116.326C90.5215 116.227 90.5017 116.147 90.5017 116.047C90.4423 115.748 90.4026 115.449 90.3432 115.17C90.3234 115.07 90.3035 114.97 90.2837 114.891C90.2243 114.611 90.1648 114.312 90.1252 114.033C90.1053 113.933 90.0855 113.834 90.0657 113.754C90.0063 113.475 89.9468 113.195 89.8873 112.916C89.8675 112.817 89.8477 112.737 89.8279 112.637C89.7684 112.358 89.7088 112.079 89.6295 111.819C89.6097 111.72 89.5899 111.64 89.5701 111.54C89.5106 111.261 89.4314 111.002 89.3719 110.742C89.3521 110.663 89.3323 110.563 89.3124 110.483C89.2332 110.224 89.1737 109.945 89.0944 109.685C89.0746 109.606 89.0548 109.526 89.035 109.446C88.9557 109.187 88.8764 108.928 88.817 108.668C88.7971 108.589 88.7773 108.509 88.7575 108.449C88.6782 108.19 88.599 107.931 88.5197 107.671C88.4999 107.591 88.48 107.532 88.4602 107.472C88.3809 107.213 88.3017 106.953 88.2024 106.694C88.1826 106.634 88.1628 106.574 88.143 106.515C88.0439 106.255 87.9646 105.996 87.8655 105.737C87.8457 105.677 87.8259 105.637 87.806 105.597C87.707 105.338 87.6079 105.059 87.5088 104.799C87.4889 104.76 87.489 104.72 87.4691 104.7C87.37 104.421 87.2709 104.161 87.152 103.882C87.152 103.862 87.1322 103.842 87.1322 103.822C85.9429 100.851 84.5951 98.2582 83.1482 95.9647C83.0094 95.7653 82.8905 95.5459 82.7518 95.3464C82.7518 95.3265 82.7319 95.3065 82.7319 95.3065C82.613 95.1271 82.4743 94.9277 82.3554 94.7481C82.3356 94.7282 82.3158 94.6884 82.2959 94.6684C82.1769 94.4889 82.058 94.3093 81.9192 94.1299C81.8994 94.0901 81.8796 94.07 81.8598 94.0302C81.7409 93.8508 81.6021 93.6712 81.4832 93.5117C81.4634 93.4917 81.4436 93.4718 81.4238 93.4319C81.285 93.2524 81.1661 93.073 81.0274 92.9133C81.0274 92.8934 81.0076 92.8934 81.0076 92.8735C80.5714 92.3151 80.1354 91.7566 79.6994 91.2382C73.4954 82.4433 73.2245 81.9679 71.8172 77.381C76.4751 76.9024 94.3024 77.0676 100.189 77.7579C100.221 77.7616 100.749 78.8935 100.749 78.8935C100.749 78.8935 100.928 79.2326 101.027 79.412V79.4319C101.383 80.1498 101.74 80.8878 102.097 81.6655C102.097 81.6655 102.097 81.6655 102.097 81.6855C102.176 81.8649 102.256 82.0445 102.335 82.2438C102.355 82.2639 102.355 82.2838 102.374 82.3236C102.454 82.5032 102.513 82.6627 102.592 82.8422C102.612 82.8622 102.612 82.902 102.632 82.9219C102.711 83.1015 102.791 83.2809 102.87 83.4803C102.87 83.5002 102.89 83.5002 102.89 83.5202C103.048 83.9191 103.227 84.338 103.385 84.7567C103.385 84.7567 103.385 84.7567 103.385 84.7766C103.465 84.9761 103.524 85.1755 103.603 85.3749C103.623 85.4149 103.623 85.4547 103.643 85.4945C103.702 85.6542 103.762 85.8136 103.821 85.9932C103.841 86.053 103.861 86.0929 103.881 86.1527C103.94 86.3123 104 86.4718 104.039 86.6313C104.059 86.6912 104.079 86.731 104.099 86.7909C104.158 86.9703 104.218 87.1499 104.277 87.3293C104.297 87.3693 104.297 87.3892 104.317 87.429C104.456 87.8678 104.575 88.2867 104.713 88.7253C104.733 88.7653 104.733 88.8251 104.753 88.865C104.793 89.0245 104.852 89.2039 104.892 89.3636C104.912 89.4233 104.931 89.5031 104.951 89.563C104.991 89.7225 105.03 89.8621 105.07 90.0217C105.09 90.1014 105.11 90.1613 105.13 90.241C105.169 90.4006 105.209 90.5402 105.248 90.6997C105.268 90.7596 105.288 90.8394 105.308 90.8991C105.348 91.0787 105.387 91.2581 105.427 91.4177C105.447 91.4576 105.447 91.5173 105.466 91.5573C105.506 91.7767 105.566 92.016 105.605 92.2354C105.605 92.2752 105.625 92.2951 105.625 92.335C105.665 92.5145 105.704 92.714 105.724 92.8934C105.744 92.9732 105.744 93.0331 105.764 93.1128C105.784 93.2724 105.823 93.412 105.843 93.5715C105.863 93.6513 105.863 93.731 105.883 93.8108C105.903 93.9504 105.922 94.11 105.942 94.2496C105.962 94.3294 105.962 94.4091 105.982 94.5088C106.002 94.6684 106.021 94.808 106.041 94.9675C106.061 95.0473 106.061 95.1271 106.081 95.2068C106.101 95.3864 106.121 95.5857 106.14 95.7652C106.14 95.8051 106.14 95.8451 106.16 95.8849C106.18 96.1043 106.2 96.3436 106.22 96.5829C106.22 96.6428 106.24 96.7026 106.24 96.7824C106.259 96.9419 106.259 97.1214 106.279 97.2809C106.279 97.3607 106.299 97.4405 106.299 97.5401C106.299 97.6798 106.319 97.8393 106.319 97.9789C106.319 98.0587 106.319 98.1585 106.339 98.2381C106.339 98.3779 106.358 98.5373 106.358 98.6769C106.358 98.7567 106.358 98.8565 106.358 98.9361C106.358 99.0958 106.358 99.2553 106.358 99.4149C106.358 99.4946 106.358 99.5744 106.358 99.6341C106.358 99.8734 106.358 100.093 106.358 100.332C106.358 100.452 106.358 100.592 106.358 100.731C106.358 100.771 106.358 100.791 106.358 100.831C106.358 100.97 106.358 101.11 106.358 101.25C106.358 101.27 106.358 101.269 106.358 101.29C106.358 101.429 106.358 101.569 106.358 101.708C106.358 101.748 106.358 101.788 106.358 101.808C106.358 101.967 106.358 102.127 106.358 102.287C106.358 102.306 106.358 102.327 106.358 102.346C106.358 102.506 106.358 102.646 106.358 102.805C106.358 102.845 106.358 102.885 106.358 102.925C106.358 103.104 106.358 103.284 106.358 103.463C106.358 103.483 106.358 103.523 106.358 103.543C106.358 103.702 106.358 103.862 106.358 104.042C106.358 104.082 106.358 104.121 106.358 104.161C106.358 104.361 106.358 104.54 106.358 104.74C106.358 104.78 106.358 104.799 106.358 104.839C106.358 105.019 106.358 105.198 106.358 105.378C106.358 105.418 106.358 105.458 106.358 105.497C106.358 105.697 106.358 105.896 106.358 106.116C106.358 106.156 106.358 106.215 106.358 106.255C106.358 106.455 106.358 106.634 106.358 106.834C106.358 106.874 106.358 106.893 106.358 106.933C106.358 107.153 106.358 107.372 106.358 107.611C106.358 107.671 106.358 107.711 106.358 107.771C106.358 107.97 106.358 108.19 106.358 108.409C106.358 108.429 106.358 108.469 106.358 108.489C106.358 108.728 106.358 108.968 106.358 109.207C106.358 109.267 106.358 109.307 106.358 109.366C106.358 109.606 106.358 109.845 106.358 110.104C106.358 110.344 106.358 110.603 106.358 110.862C106.358 110.922 106.358 110.982 106.358 111.042C106.358 111.56 106.378 112.079 106.378 112.597C106.378 112.657 106.378 112.717 106.378 112.777C106.378 113.036 106.378 113.295 106.378 113.554C106.378 113.594 106.378 113.634 106.378 113.654C106.378 113.893 106.378 114.153 106.378 114.392C106.378 114.452 106.378 114.492 106.378 114.552C106.378 114.831 106.378 115.11 106.398 115.409C106.398 115.429 106.398 115.449 106.398 115.449C106.398 115.708 106.398 115.987 106.418 116.247C106.418 116.306 106.418 116.366 106.418 116.426C106.418 116.705 106.418 116.985 106.438 117.264C106.438 117.324 106.438 117.363 106.438 117.423C106.438 117.663 106.438 117.922 106.458 118.161C106.458 118.221 106.458 118.281 106.458 118.341C106.458 118.64 106.458 118.919 106.477 119.218C106.477 119.258 106.477 119.298 106.477 119.358C106.477 119.617 106.477 119.896 106.497 120.155C106.497 120.215 106.497 120.255 106.497 120.315C106.497 120.614 106.497 120.893 106.517 121.193C106.517 121.252 106.517 121.312 106.517 121.372C106.517 121.651 106.517 121.931 106.537 122.21C106.537 122.249 106.537 122.27 106.537 122.309C106.537 122.608 106.557 122.928 106.557 123.227C106.557 123.287 106.557 123.346 106.557 123.406C106.557 123.666 106.557 123.945 106.576 124.204C106.576 124.244 106.576 124.304 106.576 124.343C106.576 124.663 106.596 124.982 106.596 125.281C106.596 125.321 106.596 125.361 106.596 125.401C106.933 143.589 107.488 164.09 107.488 164.09L91.909 163.81Z" fill="#E4794A"/>
<path fill-rule="evenodd" clip-rule="evenodd" d="M119.559 128.317L105.05 131.309L104.158 116.551" fill="#EAC7B2"/>
<path fill-rule="evenodd" clip-rule="evenodd" d="M104.122 115.954C104.438 115.935 104.712 116.168 104.749 116.48L104.752 116.515L105.602 130.585L119.44 127.732C119.75 127.668 120.053 127.86 120.133 128.164L120.142 128.198C120.205 128.51 120.015 128.815 119.712 128.896L119.678 128.904L105.169 131.895C104.827 131.966 104.5 131.725 104.46 131.38L104.457 131.346L103.565 116.588C103.545 116.258 103.794 115.974 104.122 115.954Z" fill="#CB9989"/>
<path fill-rule="evenodd" clip-rule="evenodd" d="M114.743 127.062C114.545 129.096 113.355 133.384 114.902 136.216C115.655 137.592 116.031 140.384 116.031 140.384L125.169 142.697C125.942 145.689 127.646 151.452 128.934 151.373C130.758 151.253 129.787 139.766 129.529 136.236C129.41 134.421 128.141 128.618 127.111 125.666C125.763 121.817 119.639 110.091 107.152 114.378L98.1331 116.592" fill="#EAC7B2"/>
<path fill-rule="evenodd" clip-rule="evenodd" d="M107.133 113.753C112.857 111.844 117.738 113.024 121.7 116.52C124.5 118.991 126.626 122.479 127.671 125.467L127.737 125.659C128.712 128.537 129.966 134.119 130.117 136.124L130.246 137.852C130.279 138.319 130.309 138.743 130.339 139.173L130.375 139.721C130.457 140.984 130.518 142.155 130.56 143.272L130.572 143.631C130.643 145.763 130.625 147.528 130.5 148.864L130.482 149.047C130.29 150.899 129.904 151.908 128.972 151.968C127.969 152.031 127.209 150.791 126.302 148.399C125.768 146.988 125.232 145.244 124.76 143.482L124.682 143.191L115.886 140.963C115.663 140.907 115.493 140.726 115.448 140.502L115.442 140.464L115.412 140.264L115.386 140.094C115.367 139.977 115.345 139.853 115.322 139.722C115.221 139.161 115.1 138.601 114.96 138.082C114.792 137.458 114.607 136.939 114.414 136.567L114.38 136.503C113.769 135.383 113.512 134.027 113.525 132.427C113.533 131.434 113.634 130.46 113.834 129.153L114.032 127.892L114.078 127.589C114.111 127.357 114.135 127.169 114.151 127.003C114.183 126.674 114.474 126.434 114.801 126.466C115.128 126.498 115.367 126.791 115.335 127.12L115.323 127.233C115.306 127.388 115.284 127.557 115.255 127.755L115.184 128.224C115.139 128.509 115.055 129.035 115.032 129.185L114.988 129.475C114.81 130.659 114.721 131.549 114.714 132.437C114.703 133.805 114.909 134.939 115.376 135.84L115.422 135.926C115.681 136.4 115.907 137.024 116.108 137.768C116.258 138.324 116.386 138.917 116.492 139.508C116.511 139.612 116.528 139.712 116.544 139.807L116.559 139.9L125.314 142.116C125.512 142.167 125.67 142.316 125.733 142.509L125.744 142.546C126.244 144.481 126.834 146.441 127.415 147.973L127.502 148.203C127.825 149.03 128.134 149.693 128.418 150.156C128.56 150.388 128.692 150.564 128.805 150.674L128.844 150.71L128.874 150.736L128.888 150.712C128.921 150.658 128.957 150.583 128.991 150.49L129.009 150.442C129.141 150.066 129.246 149.493 129.315 148.752C129.442 147.405 129.454 145.562 129.371 143.316L129.353 142.839C129.312 141.878 129.257 140.872 129.188 139.797L129.152 139.254C129.131 138.933 129.108 138.616 129.084 138.281L128.927 136.145C128.755 134.146 127.49 128.553 126.55 125.864C125.566 123.056 123.547 119.741 120.916 117.42C117.223 114.161 112.724 113.096 107.343 114.944L107.318 114.952L107.292 114.959L98.2739 117.172C97.9548 117.251 97.6331 117.054 97.5552 116.733C97.4801 116.423 97.6594 116.111 97.9583 116.019L97.9919 116.01L106.986 113.802L107.133 113.753Z" fill="#EAC7B2"/>
<path fill-rule="evenodd" clip-rule="evenodd" d="M126.834 136.035C126.834 136.035 125.862 144.371 123.088 145.01C120.313 145.648 120.154 143.294 120.154 143.294" fill="#EAC7B2"/>
<path fill-rule="evenodd" clip-rule="evenodd" d="M126.903 135.438C127.218 135.475 127.446 135.753 127.427 136.067L127.422 136.116L127.41 136.209C127.4 136.294 127.386 136.393 127.371 136.503L127.337 136.745C127.299 136.994 127.257 137.261 127.208 137.543C127.023 138.618 126.789 139.695 126.5 140.703L126.437 140.923C125.657 143.567 124.652 145.26 123.22 145.59C121.637 145.954 120.535 145.501 119.946 144.511C119.794 144.256 119.691 143.987 119.626 143.719C119.586 143.554 119.567 143.421 119.561 143.332C119.538 143.002 119.786 142.717 120.114 142.694C120.43 142.673 120.705 142.904 120.744 143.216L120.747 143.251C120.748 143.275 120.759 143.342 120.781 143.434C120.819 143.593 120.88 143.752 120.966 143.897C121.286 144.435 121.867 144.673 122.955 144.423C123.828 144.222 124.687 142.726 125.358 140.374C125.633 139.411 125.858 138.375 126.036 137.338L126.081 137.07C126.117 136.852 126.149 136.645 126.178 136.45L126.211 136.215L126.244 135.962C126.281 135.634 126.577 135.399 126.903 135.438Z" fill="#CB9989"/>
<path fill-rule="evenodd" clip-rule="evenodd" d="M123.503 135.738C123.503 135.738 122.017 143.077 119.203 143.516C116.388 143.955 116.388 141.601 116.388 141.601" fill="#EAC7B2"/>
<path fill-rule="evenodd" clip-rule="evenodd" d="M123.622 135.153C123.945 135.219 124.152 135.535 124.086 135.858L124.066 135.953C124.05 136.027 124.032 136.113 124.009 136.209C123.946 136.482 123.871 136.786 123.784 137.112C123.535 138.047 123.239 138.982 122.894 139.859L122.808 140.07C121.861 142.401 120.736 143.883 119.294 144.108C117.732 144.351 116.674 143.858 116.136 142.875C115.985 142.599 115.89 142.308 115.837 142.018C115.805 141.841 115.793 141.698 115.793 141.602C115.793 141.272 116.06 141.004 116.388 141.004C116.705 141.004 116.964 141.253 116.982 141.567L116.984 141.627C116.986 141.663 116.992 141.724 117.007 141.802C117.038 141.973 117.094 142.144 117.178 142.298C117.469 142.83 118.033 143.094 119.112 142.925C120.023 142.783 120.971 141.492 121.787 139.418C122.115 138.588 122.398 137.696 122.636 136.803L122.696 136.572C122.745 136.384 122.789 136.205 122.828 136.038L122.874 135.836L122.921 135.619C122.987 135.296 123.301 135.087 123.622 135.153Z" fill="#CB9989"/>
<path fill-rule="evenodd" clip-rule="evenodd" d="M119.401 135.297C119.401 135.297 117.458 144.092 114.347 140.761C111.235 137.431 111.552 135.716 111.552 135.716C111.552 135.716 113.058 133.303 115.457 137.152" fill="#EAC7B2"/>
<path fill-rule="evenodd" clip-rule="evenodd" d="M111.505 134.885C112.748 133.829 114.364 134.272 115.96 136.834C116.135 137.114 116.051 137.483 115.772 137.658C115.494 137.834 115.127 137.749 114.953 137.469C114.237 136.321 113.603 135.744 113.081 135.601C112.77 135.515 112.512 135.596 112.272 135.8C112.227 135.838 112.188 135.875 112.155 135.91L112.139 135.928L112.14 135.951C112.143 135.987 112.147 136.029 112.154 136.076L112.161 136.124C112.199 136.365 112.281 136.651 112.419 136.983C112.809 137.927 113.565 139.051 114.78 140.351C115.407 141.023 115.854 141.064 116.363 140.647C116.883 140.221 117.404 139.35 117.878 138.18C118.144 137.522 118.379 136.814 118.579 136.105L118.636 135.897C118.673 135.761 118.707 135.631 118.738 135.509L118.785 135.318L118.82 135.167C118.892 134.845 119.209 134.641 119.53 134.713C119.839 134.782 120.038 135.082 119.988 135.392L119.979 135.437L119.941 135.599C119.933 135.633 119.924 135.67 119.915 135.708L119.866 135.902C119.823 136.067 119.775 136.245 119.723 136.432C119.512 137.18 119.264 137.929 118.979 138.631C118.436 139.973 117.827 140.991 117.114 141.575C116.11 142.397 114.959 142.29 113.913 141.171C112.606 139.771 111.77 138.528 111.321 137.443C111.022 136.721 110.924 136.151 110.952 135.743L110.955 135.697C110.959 135.66 110.963 135.63 110.967 135.606C110.981 135.532 111.009 135.461 111.048 135.397C111.137 135.256 111.287 135.07 111.505 134.885Z" fill="#CB9989"/>
<path fill-rule="evenodd" clip-rule="evenodd" d="M60.6918 118.285C70.3447 116.35 88.4164 112.93 90.002 113.01C97.349 111.894 100.512 113.378 101.939 113.538C105.249 113.917 106.676 114.017 106.676 114.017C104.318 121.316 110.72 131.327 110.72 131.327C110.72 131.327 109.768 131.826 106.795 133.142C103.822 134.458 105.447 140.262 101.285 141.498C99.6201 141.997 67.7085 158.649 59.4629 160.345" fill="#E4794A"/>
<path fill-rule="evenodd" clip-rule="evenodd" d="M94.1487 67.9496C94.1487 67.9496 97.3795 67.2916 98.7075 68.6078L94.1487 67.9496Z" fill="white"/>
<path fill-rule="evenodd" clip-rule="evenodd" d="M231.409 108.695H154.346C153.334 108.695 152.462 109.393 152.225 110.391L141.501 156.02H113.574C113.574 156.02 112.028 164.058 121.046 164.058H219.438C220.448 164.058 221.321 163.36 221.558 162.362L233.53 111.388C233.847 110.012 232.817 108.695 231.409 108.695Z" fill="url(#paint1_linear_123_8837)"/>
<path fill-rule="evenodd" clip-rule="evenodd" d="M225.047 128.276C220.17 128.276 216.344 124.088 216.741 119.202C217.038 115.592 217.079 113.359 217.454 111.684C217.97 109.37 222.391 106.199 227.563 102.37C230.279 100.376 232.162 98.5014 233.213 96.7663C234.263 95.0313 234.799 92.8974 234.799 90.3447C234.799 87.1938 233.808 84.7008 231.805 82.8861C229.823 81.0712 227.406 80.1737 224.571 80.1737C218.942 80.1737 215.175 83.1652 213.233 89.1681C211.945 93.1567 207.96 95.5897 203.838 95.0114C198.347 94.2335 195.077 88.49 197.119 83.3048C198.962 78.6183 201.597 74.7892 205.027 71.7977C210.716 66.8518 217.693 64.3789 225.898 64.3789C234.282 64.3789 241.319 66.812 246.987 71.6581C252.657 76.5242 255.511 82.6866 255.511 90.1453C255.511 99.3989 250.793 107.137 241.339 113.359C237.235 116.091 234.739 118.225 233.866 119.761C233.569 120.279 233.332 120.937 233.133 121.755C232.261 125.564 228.931 128.276 225.047 128.276ZM226.176 153.265H225.422C220.131 153.265 215.829 148.937 215.829 143.612C215.829 138.288 220.131 133.96 225.422 133.96H226.176C231.468 133.96 235.77 138.288 235.77 143.612C235.77 148.957 231.488 153.265 226.176 153.265Z" fill="#CACAFB"/>
<path fill-rule="evenodd" clip-rule="evenodd" d="M29.2948 46.6124C28.2046 47.091 26.956 46.5326 26.5793 45.3958C26.3018 44.5583 26.1037 44.0597 26.0244 43.6608C25.9253 43.1025 26.5991 41.9657 27.3722 40.6095C27.7884 39.9115 28.0263 39.3133 28.0857 38.8147C28.165 38.3361 28.0659 37.7976 27.8281 37.2392C27.5308 36.5412 27.0749 36.0825 26.4604 35.883C25.846 35.6638 25.2315 35.7036 24.5973 35.9828C23.3485 36.5213 22.7936 37.5583 22.9323 39.074C23.0314 40.0911 22.3774 41.0085 21.4061 41.2876C20.1177 41.6466 18.8294 40.6894 18.7897 39.3332C18.7501 38.1167 18.9681 36.9999 19.4439 36.0027C20.2367 34.3474 21.5449 33.131 23.3684 32.3332C25.2315 31.5156 27.0155 31.376 28.7597 31.9144C30.4841 32.4529 31.713 33.5298 32.4265 35.185C33.3185 37.2392 33.0014 39.413 31.495 41.7065C30.8408 42.7036 30.5039 43.4215 30.4445 43.8403C30.4246 43.9799 30.4445 44.1595 30.4643 44.3588C30.6426 45.3162 30.167 46.2336 29.2948 46.6124ZM31.931 52.0569L31.7527 52.1367C30.5832 52.6551 29.2155 52.0967 28.7002 50.9201C28.1848 49.7435 28.7399 48.3674 29.9093 47.8489L30.0877 47.7691C31.2572 47.2505 32.6247 47.809 33.1401 48.9856C33.6554 50.1623 33.1203 51.5383 31.931 52.0569Z" fill="#CACAFB"/>
<path fill-rule="evenodd" clip-rule="evenodd" d="M39.8397 21.0821C38.2343 21.0024 37.045 19.5465 37.2631 17.951C37.4217 16.7744 37.4811 16.0365 37.6397 15.4781C37.8577 14.7204 39.3641 13.763 41.1479 12.5864C42.0796 11.9682 42.7336 11.3898 43.1102 10.8513C43.4869 10.2929 43.7049 9.61489 43.7445 8.75734C43.804 7.72029 43.5265 6.88269 42.8922 6.24451C42.2778 5.60634 41.4849 5.26731 40.5534 5.20748C38.6901 5.10776 37.4019 6.02514 36.6486 7.95962C36.1531 9.25591 34.7855 9.97385 33.4376 9.7146C31.6538 9.35562 30.6627 7.40121 31.4358 5.72599C32.1294 4.21033 33.0611 2.99381 34.2504 2.07643C36.2126 0.560755 38.5514 -0.137249 41.2669 0.022294C44.022 0.181839 46.3015 1.09921 48.0853 2.81431C49.8692 4.52941 50.7016 6.60349 50.5628 9.05647C50.4043 12.1078 48.6997 14.5607 45.4689 16.4554C44.0616 17.2731 43.2094 17.9311 42.8922 18.4298C42.7931 18.5892 42.694 18.8086 42.6147 19.0679C42.2778 20.3243 41.1281 21.142 39.8397 21.0821ZM39.7605 29.3386L39.5028 29.3185C37.7586 29.2189 36.4108 27.7232 36.5099 25.9682C36.609 24.2131 38.0955 22.8571 39.8397 22.9568L40.0974 22.9767C41.8418 23.0765 43.1894 24.5721 43.0903 26.3272C43.0111 28.0821 41.5047 29.4382 39.7605 29.3386Z" fill="#CACAFB"/>
<path fill-rule="evenodd" clip-rule="evenodd" d="M94.0366 74.863C94.0366 74.863 87.5213 75.8051 84.5596 74.6055L94.1861 79.202L94.0366 74.863Z" fill="#CF3E83"/>
<path d="M82.5284 8.22386C96.4042 6.14737 109.653 11.0526 117.67 20.615L117.705 20.5718C118.845 22.3671 124.96 28.3077 126.329 30.4626C127.574 32.4229 125.459 31.9258 124.012 32.4179C124.495 34.0449 124.867 35.7353 125.11 37.4859C126.958 50.7592 107.167 50.2655 109.033 62.6395C111.434 78.5546 76.0592 58.2425 78.029 71.3028C73.5202 67.7278 74.0141 72.0181 70.0374 68.638C67.1042 66.1447 68.4719 63.9584 64.4653 60.3259C55.3479 50.1192 60.2939 51.5221 58.8358 41.8526C56.8951 28.9845 65.6284 10.7534 82.5284 8.22386Z" fill="#2D2420"/>
<path d="M115.561 47.4881C115.458 55.1718 114.151 66.1315 108.357 71.0171C105.283 73.6085 99.2492 74.5748 94.0444 74.8685L94.1122 76.9232C94.1122 76.9232 94.7366 77.4021 97.0339 77.4836C97.1861 77.489 99.5655 80.6808 98.7584 82.5215C97.8251 84.6499 95.4062 86.5194 95.4062 86.5194L93.4312 92.5429L88.6944 87.5915C88.6944 87.5915 82.5712 85.6142 79.2942 82.0195C77.6731 80.2412 76.6465 77.1269 76.6465 77.1269C76.6465 77.1269 76.6349 68.2951 76.6197 62.0125C72.8731 59.3321 66.931 58.5699 66.3173 53.3579C66.1081 51.5512 66.8027 48.3066 70.7032 47.8501C75.9387 47.2461 75.9164 53.5995 75.9164 53.5995C76.5944 53.7768 77.2432 53.6879 77.865 53.3826C83.0246 52.5745 97.1943 48.7569 105.062 30.9065C106.858 36.4067 110.049 43.1535 115.561 47.4881Z" fill="#EAC7B2"/>
<path opacity="0.402786" fill-rule="evenodd" clip-rule="evenodd" d="M94.0257 74.8635C94.0257 74.8635 87.5109 75.8056 84.5486 74.6055L94.1751 79.202L94.0257 74.8635Z" fill="#9E564D"/>
<path fill-rule="evenodd" clip-rule="evenodd" d="M104.594 136.001C100.951 119.133 100.009 117.474 98.1724 112.728C98.2913 111.731 99.8885 112.261 101.256 112.421C104.566 112.8 110.021 112.423 110.021 112.423L110.508 131.749C110.508 131.749 107.361 133.52 104.594 136.001Z" fill="white"/>
<path opacity="0.3" d="M95.9727 112.756C96.5409 112.763 97.0255 112.796 97.3965 112.864C97.581 112.898 97.7564 112.944 97.9072 113.01C98.0489 113.071 98.2283 113.175 98.3438 113.359C98.5903 113.754 98.8639 114.405 99.1504 115.2C99.4412 116.007 99.7592 117.003 100.09 118.112C100.751 120.331 101.47 123.025 102.134 125.628C102.798 128.232 103.407 130.75 103.851 132.616C104.072 133.549 104.253 134.32 104.378 134.857C104.44 135.126 104.489 135.336 104.522 135.479C104.539 135.55 104.551 135.605 104.56 135.642C104.564 135.661 104.567 135.675 104.569 135.684C104.57 135.689 104.572 135.693 104.572 135.695C104.572 135.696 104.572 135.697 104.572 135.698L104.573 135.699L104.59 135.772L104.584 135.847C104.477 137.283 104.12 140.175 100.793 141.64C99.3217 142.288 96.0203 144.03 91.6709 146.28C87.3346 148.524 81.9831 151.258 76.4463 153.873C70.9111 156.487 65.1799 158.985 60.085 160.753C55.0152 162.512 50.4917 163.579 47.4092 163.256L47.4609 162.758L47.5127 162.261C50.3517 162.559 54.6861 161.568 59.7568 159.808C64.8028 158.058 70.4977 155.576 76.0195 152.969C81.5395 150.362 86.8783 147.634 91.2119 145.391C95.5314 143.157 98.8815 141.389 100.391 140.724C103.126 139.52 103.473 137.218 103.58 135.845C103.572 135.809 103.561 135.762 103.548 135.704C103.515 135.561 103.467 135.351 103.404 135.084C103.28 134.548 103.099 133.779 102.878 132.847C102.435 130.985 101.827 128.472 101.165 125.875C100.503 123.277 99.7878 120.597 99.1318 118.397C98.8038 117.297 98.4909 116.322 98.209 115.539C97.9355 114.779 97.6996 114.236 97.5186 113.931C97.5161 113.93 97.5136 113.929 97.5107 113.928C97.4558 113.904 97.3611 113.875 97.2158 113.848C96.9261 113.795 96.5068 113.763 95.96 113.756C94.8704 113.741 93.3482 113.824 91.502 113.99C87.8135 114.321 82.8792 114.973 77.6182 115.778C67.0916 117.39 55.3019 119.613 49.6143 121.109L49.4863 120.626L49.3594 120.141C52.2105 119.391 56.5649 118.464 61.5166 117.522C60.8651 117.083 60.0459 116.579 59.1475 116.111C57.7313 115.373 56.1559 114.744 54.7461 114.567L54.8711 113.575C56.453 113.773 58.1506 114.464 59.6094 115.224C60.9587 115.928 62.1375 116.708 62.8809 117.265C67.5413 116.396 72.6401 115.528 77.4668 114.789C82.7364 113.982 87.6944 113.327 91.4131 112.994C93.2699 112.827 94.8314 112.74 95.9727 112.756Z" fill="black"/>
<defs>
<linearGradient id="paint0_linear_123_8837" x1="49.7306" y1="66.0156" x2="49.7306" y2="164.594" gradientUnits="userSpaceOnUse">
<stop stop-color="#3E5DE7"/>
<stop offset="1" stop-color="#3652C6"/>
</linearGradient>
<linearGradient id="paint1_linear_123_8837" x1="173.531" y1="108.695" x2="173.531" y2="164.058" gradientUnits="userSpaceOnUse">
<stop stop-color="#3E5DE7"/>
<stop offset="1" stop-color="#3652C6"/>
</linearGradient>
</defs>
</svg>
