<svg width="19" height="15" viewBox="0 0 19 15" fill="none" xmlns="http://www.w3.org/2000/svg">
<path d="M14.3428 1.46289L14.3408 1.46973V5.19434H17.6074C18.0083 5.19434 18.3338 5.52008 18.334 5.9209C18.334 5.93326 18.3308 5.9458 18.3301 5.95801C18.3318 5.97979 18.334 6.00219 18.334 6.02441V14.7656H17.5469C17.5326 14.7664 17.5183 14.7676 17.5039 14.7676C17.4895 14.7676 17.4751 14.7663 17.4609 14.7656H0L0.0136719 6.07129C0.0136824 6.04906 0.0148793 6.02667 0.0166016 6.00488C0.0159509 5.99266 0.0136799 5.98015 0.0136719 5.96777C0.0138324 5.56691 0.33933 5.24121 0.740234 5.24121H4.00488L3.99121 1.4375H4.00488L4.00293 1.42871L9.10742 0L14.3428 1.46289ZM1.68457 13.1055H3.99121V6.99609H1.68457V13.1055ZM14.3408 13.1055H16.6475V6.94824H14.3408V13.1055ZM8.32324 9.86914V13.0947H10.0107V9.86914H8.32324ZM8.32324 5.06641V6.82324H10.0107V5.06641H8.32324Z" fill="#000091"/>
</svg>
