<svg xmlns="http://www.w3.org/2000/svg" viewBox="0 0 20.34 20.279" width="20" height="20">
  <path d="m10.3.474-.682 2.041-1.839.891-.21 1h-1.84l-.263-.786-.946-.1.841 2.515-2.155.366-1-.786L0 6.55l.788.524-.526.943 2.575.314 1.419 1.31-.315.786 2 1.309-.528 5.188-.736 1.363.42.576 2.734.891 1-.629 1.786 1.154h1.734v-1.257l1.471-1.148 3.994.891 1.945-2.306-1.1-.419-.473-1.886.736-.314-.788-1 .526-.314-.315-1-.947-.152 1.156-2.305 1.209-.366V7.074l.579-1.782-1.892-.524-1.1-.734h-1.059l-.684-.577-.367-.683h-1l-.052-.524-1.419-1.149h-.578l-.473-1.1Z" fill="#000091"></path>
</svg>