<svg xmlns="http://www.w3.org/2000/svg" viewBox="0 0 23.714 18.577" width="24" height="19">
  <g fill="#000091">
    <path d="M9.586.712a2.242 2.242 0 0 1-.343.537 4.293 4.293 0 0 1-.77.873c-.327.27-.71.263-.652.595s.439.777.507 1.244.204.424.147 1.067a5.302 5.302 0 0 1-.383 1.44c-.197.616-.145.793-.616 1.057s-.837.422-.95.295a1.067 1.067 0 0 0-.799-.484c-.488-.033-.12.245-1.19-.154s-1.74-.487-1.993-.672-.458-.57-.863-.412a.907.907 0 0 0-.588.51 1.706 1.706 0 0 0-.482 1.01c-.154.75.059.836.103 1.472s-.273.656.019 1.545a16.28 16.28 0 0 0 .797 2.504 13.591 13.591 0 0 1 .77 2c.214.557.413.914.62 1.371a2.801 2.801 0 0 0 .561 1.04c.337.347.823.818.823.818s.676-.248.98-.335.447.44.9-.028a2.575 2.575 0 0 0 .696-.922c.275-.52.588-.51.882-1.238s.588-.982.37-1.607-.17-.426-.398-1.184a9.68 9.68 0 0 1-.522-1.547 4.308 4.308 0 0 1-.141-1.472c.067-.476.351-.899.748-.69s.32.58.852.715a5.68 5.68 0 0 0 1.411.38 2.474 2.474 0 0 0 1.19-.35 10.971 10.971 0 0 0 1.82-.729c.697-.45 1.47-.335 2.211-.621s.831-.51 1.63-.506 1.671.084 1.671.084.75.285.903.006.465-.3-.03-.436-.208.015-.981-.131-.839-.078-1.099-.324-.414-.444-.747-.723-.27-.382-1.112-.497-2.926.334-3.149-.358-.384-.511-.348-1.457.246-.925.106-1.353a1.467 1.467 0 0 0-.406-.814c-.342-.414-.393-.158-.67-.635s-.173-.451-.466-.67-.323-.145-.503-.234a.856.856 0 0 0-.516.02Z"></path>
    <path d="M15.698 14.557a1.388 1.388 0 0 0-.706.842c-.172.414-.087.375-.256.783s-.44.597-.129 1.029 1.04 1.087 1.35 1.065.273.264.837-.172 1.06-.612 1.26-1.023.363-.535.162-.914-.25-.322-.53-.699-.121-.533-.646-.75a1.818 1.818 0 0 0-.804-.2 1.469 1.469 0 0 0-.538.039Z"></path>
    <path d="M23.136 4.449a3.277 3.277 0 0 0-1.256.683 2.218 2.218 0 0 0-.51.72c-.095.26-.435.66.031.454a3.323 3.323 0 0 0 .788-.37c.606-.354.63-.422.9-.592s.48-.015.487-.327.075-.543-.042-.592a.891.891 0 0 0-.398.024Z"></path>
  </g>
</svg>