<svg xmlns="http://www.w3.org/2000/svg" viewBox="0 0 17.101 18.825" width="17" height="19">
  <path d="M7.112 1.027a2.644 2.644 0 0 1-1.1-.178C5.337.598 5.518.42 4.912.272S4.171-.157 3.825.109s-.313.222-.362.562a2.128 2.128 0 0 1-.445 1.006 5.012 5.012 0 0 1-.873.813 2.268 2.268 0 0 0-.84.9c-.247.444-.56.532-.511 1.227s.231 1.139.231 1.449a1.972 1.972 0 0 0 .033.813c.115.37.346 1.139.412 1.39a7.231 7.231 0 0 0 .675 1.36 7.972 7.972 0 0 0 .659.843c.2.163.642.606.659.8s.132.665-.017.843a4.329 4.329 0 0 1-.626.71c-.329.281-.544.385-.527.651a5.05 5.05 0 0 1 .033 1.02c-.049.355.082.739-.247 1.168s-.478 1.05-.857 1.3-.379.163-.675.414-.642-.133-.511.266.181.444.478.577a9.087 9.087 0 0 0 1.252.547c.231.03.1.1.527 0a2.583 2.583 0 0 0 .708-.222c.379-.163.379-.015.873-.4s.494-.695.873-.5.478.532.807.532a1.408 1.408 0 0 0 .873-.118c.346-.192.593-.414.791-.34s.692.192.659.355-.28.385-.115.4a5.017 5.017 0 0 0 .857.015c.346-.03.758.281 1.12.059a4.871 4.871 0 0 0 .89-.621c.1-.133.576-.414.774-.651a3.311 3.311 0 0 0 .527-.932c.132-.355 1.071-1.36 1.1-1.7a2.128 2.128 0 0 1 .2-.932c.2-.429 0-.37.428-.754a14.94 14.94 0 0 0 1-1.39c.231-.222.28-.621.675-.991a6.026 6.026 0 0 0 .955-1.167 4.258 4.258 0 0 1 .725-.711 1.474 1.474 0 0 0 .082-.562c-.033-.237-.165-.266-.28-.562s.033-.281-.181-.68-.181-.074-.313-.5-.132-.665-.264-.739-.115-.044-.527-.148-.461-.074-.675-.222-.494-.3-.642-.429a2.727 2.727 0 0 1-.313-.34c-.181-.207-.264-.325-.346-.355a.884.884 0 0 0-.362-.03l-.313.03a1.381 1.381 0 0 1-.362-.266 7.48 7.48 0 0 0-.84-.665 12.313 12.313 0 0 1-1.236-1.006c-.165-.207-.1-.532-.544-.606s-.362.044-.675-.074a6.046 6.046 0 0 1-.67-.325c-.335-.163-.2-.222-.483-.222a2.833 2.833 0 0 0-.576.074 1.8 1.8 0 0 1-.381-.046Z" fill="#000091"></path>
</svg>