<svg xmlns="http://www.w3.org/2000/svg" viewBox="0 0 18.086 21.621" width="18" height="21">
  <path d="M5.012.609A6.279 6.279 0 0 0 2.475.024 2.585 2.585 0 0 0 .67.854c-.536.683-.585.536-.634 1.414a2.443 2.443 0 0 0 .488 2.146c.634.732 1.366 1.122 1.512 1.513a5.319 5.319 0 0 1 .146 1.561c0 .488-.134 1.414.323 1.951s1.823 1.415 2.506 2.1.927 1.073 1.707 1.122.537.39 1.073 0 .78-1.171 1.122-.732a1.193 1.193 0 0 1 .341 1.122 1.146 1.146 0 0 0 .39.976c.147.1.683.244.488.585s-.341.927-.781.732-.536 0-.781-.342 0-.878-.585-.683-.439.244-.976.634-1.073.537-1.122.976-.1 1.366.39 1.756.488 1.317.976 1.219.244.146.78-.293a1.975 1.975 0 0 1 1.561-.585 5.222 5.222 0 0 0 1.464.1 18.017 18.017 0 0 1 1.854.049c.634 0 .352-.487.981-.1s.921.39 1.214.244.976-.39.683.049-.537.361-.683.79-.829 1.161-.195 1.6.829 1.317 1.414.585a11.675 11.675 0 0 0 .9-1.268c.466-.683.759-.683.71-1.414s.352-.293.005-1.9a12.665 12.665 0 0 0-.716-2.732c-.46-1.219-.509-1.561-1.094-2s-1.366-1.024-1.317-1.415.585-.829 0-1.025a2.287 2.287 0 0 0-1.561-.195c-.439.195-.488.78-.781.293s-.585-.634 0-.878a9.613 9.613 0 0 0 1.171-.607.908.908 0 0 0-.2-.759c-.293-.293-.732-.585-.536-.83s.547-.195.981-.293.482-.048.775-.293.976-.439.976-.731 0-.634-.244-.732a2.817 2.817 0 0 0-1.507.2 10.415 10.415 0 0 1-1.274.585c-.39.147-.39.537-.83.39a1.465 1.465 0 0 1-.878-.683 8.416 8.416 0 0 1-.732-1.024c-.195-.341-.961-.976-1.139-1.268s-.715-.439-1.3-.83a11.344 11.344 0 0 0-1.512-.78C6.036 1.048 5.012.609 5.012.609Z" fill="#000091"></path>
</svg>