<svg xmlns="http://www.w3.org/2000/svg" viewBox="0 0 11.462 20.717" width="12" height="21">
  <path d="M3.229 6.945c-.053-.262.105-.472-.577-.525s-.735.105-1.312-.262-1.207-.367-1.259-.63.262-.21.262-.63-.536-.315-.268-.787-.152-.524.478-1 1.021-.315 1.061-.682-.17-.315.25-.735.21-.472.682-.944S3.595-.3 3.7.173s-.1.892 0 1.207-.1.472.525.787.577.1.735.735-.158.63.315 1 .525.735 1.1.472.367-.892 1.1-.472 1.049.892 1.784 1.1a12.1 12.1 0 0 1 1.312.315c.525.21.682.052.787.419a.928.928 0 0 1 0 .84 1.886 1.886 0 0 1-.682 1.207c-.472.367-.472.473-.892.84a4.666 4.666 0 0 0-1.05 2.1 2.771 2.771 0 0 0 .525 1.312c.262.42 1.312.735 1.364 1.1a1.038 1.038 0 0 1-.577 1 5.13 5.13 0 0 0-1.207 1.1c-.052.157.472.524.472.524-.787.525-.944.367-1.1.682a7.651 7.651 0 0 0-.262 1.522l.21.63a4.446 4.446 0 0 1 .84.367c.21.157.42.577.21.735s-.157.315-.63.419-.787.42-.892 0-.21-.787-.525-.682-.157.158-.419.42-.263.682-.63.735-.63.262-.839 0-.262-.63-.525-.682-1.207-.157-1.207-.157a3.132 3.132 0 0 1 .157-.945c.053-.367.315-.524-.21-.315s-.524.525-.839.315-1.26.053-.472-.524.577-.21.787-.578.524-.524.262-.787a1.532 1.532 0 0 0-.63-.472c-.42-.21-.367 0-.578-.524s-.315.157-.21-.525 0-.944.735-.892 1-.158 1.049.315-.105.787 0 1-.105.105.367.472.472.472 1 .419.648.105.77-.21-.069-.745 0-1 .56-.153 0-.782-.35-.682-1.085-1.1-.787-.21-1.207-.787-.944-.578-.472-.945.472.105.472-.367.21.262 0-.472-.262-.367-.1-1.049.419-.735.1-1.1-.42-.157-.367-.63a4.3 4.3 0 0 1 .053-.473Z" fill="#000091"></path>
</svg>