<svg width="14" height="14" viewBox="0 0 14 14" fill="none" xmlns="http://www.w3.org/2000/svg">
<path d="M6.66667 6.66667C5.75 6.66667 4.96528 6.34028 4.3125 5.6875C3.65972 5.03472 3.33333 4.25 3.33333 3.33333C3.33333 2.41667 3.65972 1.63194 4.3125 0.979167C4.96528 0.326389 5.75 0 6.66667 0C7.58333 0 8.36806 0.326389 9.02083 0.979167C9.67361 1.63194 10 2.41667 10 3.33333C10 4.25 9.67361 5.03472 9.02083 5.6875C8.36806 6.34028 7.58333 6.66667 6.66667 6.66667ZM0 13.3333V11C0 10.5278 0.121528 10.0938 0.364583 9.69792C0.607639 9.30208 0.930556 9 1.33333 8.79167C2.19444 8.36111 3.06944 8.03819 3.95833 7.82292C4.84722 7.60764 5.75 7.5 6.66667 7.5C7.58333 7.5 8.48611 7.60764 9.375 7.82292C10.2639 8.03819 11.1389 8.36111 12 8.79167C12.4028 9 12.7257 9.30208 12.9688 9.69792C13.2118 10.0938 13.3333 10.5278 13.3333 11V13.3333H0Z" fill="#000091"/>
</svg>
