<svg xmlns="http://www.w3.org/2000/svg" viewBox="0 0 19.295 17.412" width="19" height="17">
  <path d="M5.935.38c-.369.221-.922.738-1.4 1.07a2.844 2.844 0 0 1-1.144.463c-.258.054-.48-.463-1-.167s-.628.332-.628.664-.074-.148 0 .664.267 1-.033 1.291-.152.554-.632.664-.369-.369-.738.332a1.847 1.847 0 0 0-.332 1.366c.074.369.184 1.365.517 1.587a4.381 4.381 0 0 1 .922 1.4c.074.222.221.886.221.886a1.422 1.422 0 0 0 .258 1.439c.59.627.411 1 1.018 1.107s-.021.111.864.517a5.376 5.376 0 0 1 1.292.7 15.084 15.084 0 0 0 1.808 1.513 9.764 9.764 0 0 0 2.546 1.07c1.033.185 1.181.554 2.583.443a12.724 12.724 0 0 0 2.62-.184c.959-.258 2.616-.59 2.616-.59a.707.707 0 0 0 .779-.775v-1.624a8.06 8.06 0 0 0 .443-1.476c.369-1.4.554-1.255.517-1.993s.6-1.07 0-1.587a11.867 11.867 0 0 0-1.112-.923 4.6 4.6 0 0 1-1.328-1.07c-.443-.591-.406-.577-.812-1.193s-.48-.247-.627-1.243a8.948 8.948 0 0 0-.443-1.624c-.111-.48.184-.625-.554-1.2s-.627-.647-1.7-.795-1.55-.184-2.657-.3A6.946 6.946 0 0 1 7.733.554c-.406-.221-.48-.775-1.144-.48Z" fill="#000091"></path>
</svg>