<svg width="13" height="19" viewBox="0 0 13 19" fill="none" xmlns="http://www.w3.org/2000/svg">
<path d="M8.2404 6.75226C8.48624 6.7729 8.78929 6.94816 9.39527 7.29803L10.8207 8.12083C11.3025 8.39903 11.5436 8.5384 11.7358 8.71513C12.091 9.04172 12.3379 9.46899 12.4432 9.93986C12.5001 10.1947 12.5 10.4732 12.5 11.0296V13.4572C12.5 14.0133 12.5001 14.2916 12.4432 14.5463C12.3379 15.0171 12.0914 15.4445 11.7364 15.7711C11.5443 15.9478 11.3035 16.0871 10.8218 16.3654L8.71809 17.58C8.23622 17.8584 7.9953 17.9979 7.74613 18.0761C7.2855 18.2205 6.79143 18.2205 6.3308 18.0761C6.08154 17.9979 5.84029 17.8585 5.35824 17.58L3.92811 16.7543C3.32195 16.4041 3.01877 16.2289 2.87801 16.0262C2.61493 15.6473 2.61513 15.1445 2.8786 14.7659C3.01956 14.5634 3.32335 14.3886 3.92989 14.039L5.36298 13.2127C5.84542 12.9346 6.08687 12.7957 6.2793 12.619C6.63485 12.2924 6.88184 11.8648 6.98726 11.3937C7.0443 11.1387 7.04468 10.8601 7.04468 10.3033V8.65535C7.04468 7.95562 7.04441 7.60531 7.14945 7.38209C7.34584 6.96495 7.78095 6.71372 8.2404 6.75226Z" fill="#000091"/>
<path d="M4.75387 0.108324C5.21453 -0.0361081 5.70855 -0.0361081 6.1692 0.108324C6.41842 0.186474 6.65925 0.325981 7.14117 0.60437L8.57129 1.43013C9.17735 1.78023 9.48059 1.95559 9.6214 2.15821C9.88452 2.53709 9.8843 3.03984 9.6208 3.41845C9.47979 3.62091 9.17646 3.79587 8.57011 4.14536L7.13643 4.9717C6.65419 5.24965 6.41309 5.38871 6.2207 5.56542C5.86508 5.89205 5.61757 6.31953 5.51215 6.79074C5.45511 7.04572 5.45532 7.32428 5.45532 7.88109V9.52905C5.45532 10.2288 5.45559 10.5791 5.35055 10.8023C5.1542 11.2194 4.71901 11.4706 4.2596 11.4321C4.01377 11.4115 3.71066 11.2362 3.10473 10.8864L1.67874 10.0636C1.197 9.78544 0.956371 9.64596 0.764195 9.46927C0.409042 9.14269 0.16211 8.71539 0.0568263 8.24454C-0.000131852 7.98973 2.80023e-09 7.71118 2.80023e-09 7.15478V4.72723C2.99692e-09 4.17105 -0.000102054 3.89281 0.0568263 3.63806C0.162061 3.16732 0.408597 2.73991 0.763603 2.41334C0.955714 2.23663 1.19653 2.09725 1.67815 1.81903L3.78191 0.60437C4.26381 0.325983 4.50467 0.186478 4.75387 0.108324Z" fill="#000091"/>
</svg>
